<?xml version="1.0" encoding="utf-8"?>
<!-- Generator: Adobe Illustrator 23.0.3, SVG Export Plug-In . SVG Version: 6.00 Build 0)  -->
<svg version="1.1" id="Layer_1" xmlns="http://www.w3.org/2000/svg" xmlns:xlink="http://www.w3.org/1999/xlink" x="0px" y="0px"
	 viewBox="0 0 140 40" style="enable-background:new 0 0 140 40;" xml:space="preserve">
<style type="text/css">
	.st0{clip-path:url(#SVGID_2_);}
	.st1{fill:#2B528A;}
	.st2{fill:#FFAA00;}
</style>
<g>
	<defs>
		<rect id="SVGID_1_" x="20" y="1.9" width="100.1" height="36.2"/>
	</defs>
	<clipPath id="SVGID_2_">
		<use xlink:href="#SVGID_1_"  style="overflow:visible;"/>
	</clipPath>
	<g class="st0">
		<path class="st1" d="M20.8,36.7h0.5c0,0.2,0.1,0.3,0.2,0.4c0.1,0.1,0.3,0.1,0.5,0.1c0.2,0,0.3,0,0.4-0.1c0.1-0.1,0.1-0.2,0.1-0.3
			c0-0.2-0.1-0.3-0.2-0.3c0,0-0.3-0.1-0.8-0.2c-0.4-0.1-0.6-0.3-0.6-0.7c0-0.3,0.1-0.4,0.3-0.6c0.2-0.1,0.4-0.2,0.7-0.2
			c0.3,0,0.5,0.1,0.7,0.2c0.2,0.2,0.3,0.4,0.3,0.6h-0.5c0-0.3-0.2-0.5-0.6-0.5c-0.1,0-0.2,0-0.3,0.1c-0.1,0.1-0.2,0.2-0.2,0.3
			c0,0.2,0.1,0.3,0.3,0.3c0.2,0.1,0.5,0.1,0.8,0.2c0.2,0,0.3,0.1,0.4,0.3c0.1,0.1,0.1,0.3,0.1,0.4c0,0.3-0.1,0.5-0.3,0.6
			c-0.2,0.1-0.4,0.2-0.7,0.2c-0.3,0-0.6-0.1-0.8-0.2C20.9,37.3,20.8,37.1,20.8,36.7z M24.5,37.6V35H25V36h1.2V35h0.5v2.7h-0.5v-1.2
			H25v1.2H24.5z M29.3,35.4l-0.4,1.1h0.8L29.3,35.4L29.3,35.4z M28.1,37.6l1-2.7h0.5l1,2.7h-0.5l-0.3-0.7h-1.1l-0.3,0.7H28.1z
			 M32.5,35.3v0.8h0.8c0.3,0,0.5-0.1,0.5-0.4c0-0.3-0.2-0.4-0.5-0.4H32.5z M32,37.6V35h1.3c0.3,0,0.5,0.1,0.7,0.2
			c0.1,0.1,0.2,0.3,0.2,0.5c0,0.3-0.1,0.6-0.4,0.7v0c0.3,0,0.4,0.2,0.4,0.6c0,0.4,0,0.6,0.1,0.7h-0.5c0-0.1-0.1-0.2-0.1-0.4
			c0-0.3,0-0.4-0.1-0.5c-0.1-0.1-0.2-0.2-0.4-0.2h-0.7v1.1H32z M35.8,37.6V35h1.9v0.4h-1.5v0.7h1.3v0.4h-1.3v0.8h1.5v0.4H35.8z
			 M39.3,37.6v-0.5h0.5v0.5c0,0.2,0,0.3-0.1,0.4c-0.1,0.1-0.2,0.2-0.4,0.2V38c0.1,0,0.1-0.1,0.2-0.1c0-0.1,0.1-0.1,0.1-0.2H39.3z
			 M43.8,37.6V35h0.5v2.3h1.4v0.4H43.8z M47.1,37.6V35H49v0.4h-1.5v0.7h1.3v0.4h-1.3v0.8H49v0.4H47.1z M51.5,35.4l-0.4,1.1H52
			L51.5,35.4L51.5,35.4z M50.3,37.6l1-2.7h0.5l1,2.7h-0.5l-0.3-0.7H51l-0.3,0.7H50.3z M54.7,35.3v0.8h0.8c0.3,0,0.5-0.1,0.5-0.4
			c0-0.3-0.2-0.4-0.5-0.4H54.7z M54.3,37.6V35h1.3c0.3,0,0.5,0.1,0.7,0.2c0.1,0.1,0.2,0.3,0.2,0.5c0,0.3-0.1,0.6-0.4,0.7v0
			c0.3,0,0.4,0.2,0.4,0.6c0,0.4,0,0.6,0.1,0.7H56c0-0.1-0.1-0.2-0.1-0.4c0-0.3,0-0.4-0.1-0.5c-0.1-0.1-0.2-0.2-0.4-0.2h-0.7v1.1
			H54.3z M58,37.6V35h0.5l1.2,2h0v-2h0.4v2.7h-0.5l-1.2-2h0v2H58z M61.9,37.6v-0.5h0.5v0.5c0,0.2,0,0.3-0.1,0.4
			c-0.1,0.1-0.2,0.2-0.4,0.2V38c0.1,0,0.1-0.1,0.2-0.1c0-0.1,0.1-0.1,0.1-0.2H61.9z M66.3,37.6V35h0.5v2.7H66.3z M68.5,37.6V35H69
			l1.2,2h0v-2h0.4v2.7h-0.5l-1.2-2h0v2H68.5z M72.2,36.7h0.5c0,0.2,0.1,0.3,0.2,0.4c0.1,0.1,0.3,0.1,0.5,0.1c0.2,0,0.3,0,0.4-0.1
			c0.1-0.1,0.1-0.2,0.1-0.3c0-0.2-0.1-0.3-0.2-0.3c0,0-0.3-0.1-0.8-0.2c-0.4-0.1-0.6-0.3-0.6-0.7c0-0.3,0.1-0.4,0.3-0.6
			c0.2-0.1,0.4-0.2,0.7-0.2c0.3,0,0.5,0.1,0.7,0.2c0.2,0.2,0.3,0.4,0.3,0.6h-0.5c0-0.3-0.2-0.5-0.6-0.5c-0.1,0-0.2,0-0.3,0.1
			c-0.1,0.1-0.2,0.2-0.2,0.3c0,0.2,0.1,0.3,0.3,0.3c0.2,0.1,0.5,0.1,0.8,0.2c0.2,0,0.3,0.1,0.4,0.3c0.1,0.1,0.1,0.3,0.1,0.4
			c0,0.3-0.1,0.5-0.3,0.6c-0.2,0.1-0.4,0.2-0.7,0.2c-0.3,0-0.6-0.1-0.8-0.2C72.3,37.3,72.2,37.1,72.2,36.7z M76.4,35.3v0.9h0.7
			c0.1,0,0.2,0,0.3-0.1c0.1-0.1,0.2-0.2,0.2-0.3c0-0.3-0.2-0.4-0.5-0.4H76.4z M76,37.6V35h1.2c0.3,0,0.6,0.1,0.7,0.3
			c0.1,0.1,0.2,0.3,0.2,0.5c0,0.2-0.1,0.4-0.2,0.5c-0.2,0.2-0.4,0.3-0.7,0.3h-0.7v1H76z M79.6,37.6V35h0.5v2.7H79.6z M82.3,35.3v0.8
			h0.8c0.3,0,0.5-0.1,0.5-0.4c0-0.3-0.2-0.4-0.5-0.4H82.3z M81.8,37.6V35h1.3c0.3,0,0.5,0.1,0.7,0.2c0.1,0.1,0.2,0.3,0.2,0.5
			c0,0.3-0.1,0.6-0.4,0.7v0c0.3,0,0.4,0.2,0.4,0.6c0,0.4,0,0.6,0.1,0.7h-0.5c0-0.1-0.1-0.2-0.1-0.4c0-0.3,0-0.4-0.1-0.5
			c-0.1-0.1-0.2-0.2-0.4-0.2h-0.7v1.1H81.8z M85.6,37.6V35h1.9v0.4h-1.5v0.7h1.3v0.4h-1.3v0.8h1.5v0.4H85.6z M89.1,37.6v-0.5h0.5
			v0.5c0,0.2,0,0.3-0.1,0.4c-0.1,0.1-0.2,0.2-0.4,0.2V38c0.1,0,0.1-0.1,0.2-0.1c0-0.1,0.1-0.1,0.1-0.2H89.1z M95.8,35.8h-0.5
			c-0.1-0.4-0.3-0.5-0.7-0.5c-0.3,0-0.5,0.1-0.6,0.3c-0.1,0.2-0.2,0.4-0.2,0.7s0.1,0.5,0.2,0.7c0.1,0.2,0.4,0.3,0.6,0.3
			c0.2,0,0.4-0.1,0.5-0.2c0.1-0.1,0.2-0.3,0.2-0.5h0.5c0,0.3-0.1,0.6-0.3,0.8c-0.2,0.2-0.5,0.3-0.8,0.3c-0.4,0-0.7-0.1-0.9-0.4
			c-0.2-0.3-0.3-0.6-0.3-1c0-0.4,0.1-0.7,0.3-1c0.2-0.3,0.5-0.4,0.9-0.4c0.3,0,0.6,0.1,0.8,0.2C95.7,35.3,95.8,35.5,95.8,35.8z
			 M97.4,37.6V35h0.5V36h1.2V35h0.5v2.7h-0.5v-1.2h-1.2v1.2H97.4z M102.2,35.4l-0.4,1.1h0.8L102.2,35.4L102.2,35.4z M101,37.6l1-2.7
			h0.5l1,2.7H103l-0.3-0.7h-1.1l-0.2,0.7H101z M104.9,37.6V35h0.5l1.2,2h0v-2h0.4v2.7h-0.5l-1.2-2h0v2H104.9z M111.1,36.2v1.4h-0.3
			l-0.1-0.3c-0.1,0.1-0.2,0.2-0.4,0.3c-0.1,0.1-0.3,0.1-0.4,0.1c-0.4,0-0.7-0.1-0.9-0.4c-0.2-0.3-0.3-0.6-0.3-1s0.1-0.7,0.3-1
			c0.2-0.3,0.5-0.4,0.9-0.4c0.3,0,0.6,0.1,0.8,0.2c0.2,0.2,0.3,0.4,0.4,0.7h-0.5c0-0.2-0.1-0.3-0.2-0.4c-0.1-0.1-0.3-0.1-0.5-0.1
			c-0.3,0-0.5,0.1-0.6,0.3c-0.1,0.2-0.2,0.4-0.2,0.7s0.1,0.5,0.2,0.7c0.1,0.2,0.4,0.3,0.6,0.3c0.2,0,0.4-0.1,0.5-0.2
			c0.1-0.1,0.2-0.3,0.2-0.5H110v-0.4H111.1z M112.8,37.6V35h1.9v0.4h-1.5v0.7h1.3v0.4h-1.3v0.8h1.5v0.4H112.8z"/>
		<path class="st1" d="M43.8,20.3h4.8c0,1.4,0.5,2.5,1.5,3.2c0.9,0.6,2,0.9,3.5,0.9c1.1,0,2.1-0.2,2.8-0.5c1-0.5,1.5-1.2,1.5-2.3
			c0-1.3-1.2-2.2-3.5-2.9c-4-1.1-6.1-1.8-6.5-2c-2.3-1.1-3.5-2.9-3.5-5.3c0-2.2,0.9-3.9,2.7-5.1c1.6-1.1,3.5-1.7,5.7-1.7
			c2.6,0,4.7,0.6,6.3,1.7C61.1,7.7,62,9.6,62,12h-4.8c-0.1-2.3-1.6-3.4-4.4-3.4c-0.9,0-1.7,0.2-2.3,0.6c-0.7,0.5-1.1,1.1-1.1,2
			c0,0.8,0.4,1.4,1.2,1.8c0.6,0.3,2.5,0.8,5.5,1.6c1.8,0.4,3.1,0.9,3.9,1.5c1.8,1.2,2.7,2.9,2.7,5c0,2.1-0.8,3.9-2.4,5.2
			c-1.7,1.4-4,2-7,2c-2.7,0-4.9-0.6-6.7-1.9C44.8,25,43.8,22.9,43.8,20.3z M67,27.8V5.3h4.9v18.3h11v4.2H67z M86.9,27.8V5.3h4.9
			v22.5H86.9z M117.3,12.9h-4.8c-0.1-1.1-0.7-2-1.6-2.8c-0.9-0.8-2-1.1-3.3-1.1c-2.1,0-3.7,0.8-4.7,2.4c-0.9,1.4-1.4,3.1-1.4,5.3
			c0,2.1,0.5,3.8,1.4,5.2c1.1,1.6,2.7,2.4,4.7,2.4c1.5,0,2.7-0.5,3.6-1.4c0.8-0.9,1.4-2.1,1.5-3.6h4.8c-0.3,2.8-1.3,5-3.1,6.7
			c-1.8,1.7-4.1,2.5-6.8,2.5c-3.4,0-6.1-1.1-8.1-3.4c-2-2.2-2.9-4.9-2.9-8.3c0-3.4,1-6.3,2.9-8.4c2-2.3,4.7-3.4,8.1-3.4
			c2.6,0,4.7,0.7,6.5,2.1C115.9,8.3,117,10.3,117.3,12.9z"/>
		<path class="st2" d="M37.9,8.4C37.9,8.4,37.9,8.4,37.9,8.4C35.5,6,32.3,4.7,29,4.7c-3.3,0-6.5,1.3-8.9,3.7c0,0-0.1,0.1-0.1,0.1
			c0,0.1,0,0.1,0.1,0.1l1.3,1.3c0,0,0.1,0.1,0.1,0.1c0.1,0,0.1,0,0.1-0.1c2-1.9,4.5-3,7.3-3s5.3,1.1,7.3,3c0,0,0.1,0.1,0.1,0.1
			c0.1,0,0.1,0,0.1-0.1l1.3-1.3c0,0,0.1-0.1,0.1-0.1C37.9,8.5,37.9,8.5,37.9,8.4z"/>
		<path class="st2" d="M29,8.1c-2.2,0-4.3,0.9-5.9,2.5c-0.1,0.1-0.1,0.2,0,0.3l1.2,1.2c0,0,0.1,0.1,0.1,0.1c0,0,0.1,0,0.1-0.1
			c1.2-1.2,2.8-1.9,4.5-1.9c1.7,0,3.3,0.7,4.5,1.9c0,0,0.1,0.1,0.1,0.1c0,0,0.1,0,0.1-0.1l1.2-1.2c0,0,0.1-0.1,0.1-0.1
			c0,0,0-0.1-0.1-0.1C33.3,9,31.2,8.1,29,8.1z"/>
		<path class="st2" d="M25.7,25.8c0.6,2,1.5,3.7,2.5,4.1v-4.1H25.7z"/>
		<path class="st2" d="M25.1,21.7c0,1,0.2,2.1,0.4,3.1h2.7v-3.1H25.1z"/>
		<path class="st2" d="M29.5,25.8v4.1c1-0.4,1.9-2.1,2.5-4.1H29.5z"/>
		<path class="st2" d="M24.1,21.7H20c0.1,1.1,0.3,2.1,0.8,3.1h3.8C24.3,23.8,24.2,22.7,24.1,21.7z"/>
		<path class="st2" d="M24.8,25.8h-3.4c1.2,1.9,3,3.3,5.2,3.9C25.8,28.8,25.2,27.4,24.8,25.8z"/>
		<path class="st2" d="M32.9,25.8c-0.4,1.6-1,3-1.8,3.9c2.2-0.6,4-2.1,5.2-3.9H32.9z"/>
		<path class="st2" d="M33.5,21.7c0,1.1-0.1,2.1-0.4,3.1h3.8c0.4-1,0.7-2,0.8-3.1H33.5z"/>
		<path class="st2" d="M29.5,21.7v3.1h2.7c0.2-1,0.3-2,0.4-3.1H29.5z"/>
		<path class="st2" d="M28.8,12.2c-1.1,0-2.1,1.1-2.1,2.2s0.9,2.1,2.1,2.1c1.1,0,2.1-0.9,2.1-2.1S30,12.2,28.8,12.2z"/>
		<path class="st2" d="M35.1,14.5c-0.9,0-1.5,0.7-1.5,1.5c0,0.9,0.7,1.5,1.5,1.5c0.9,0,1.5-0.7,1.5-1.5C36.7,15.1,36,14.5,35.1,14.5
			z"/>
		<path class="st2" d="M22.5,14.5c-0.9,0-1.5,0.7-1.5,1.5c0,0.9,0.7,1.5,1.5,1.5s1.5-0.7,1.5-1.5C24.1,15.1,23.4,14.5,22.5,14.5z"/>
		<path class="st2" d="M36.6,18c-0.4,0.3-0.9,0.5-1.5,0.5c-0.6,0-1.1-0.2-1.5-0.5c-0.2,0.2-0.5,0.4-0.6,0.7c0.1,0.3,0.1,0.6,0.1,0.9
			v1.1h4.3c0.2,0,0.4-0.2,0.4-0.4C37.7,19.4,37.3,18.5,36.6,18z"/>
		<path class="st2" d="M30.5,16.9c-0.5,0.3-1.1,0.5-1.8,0.5c-0.6,0-1.3-0.2-1.8-0.5c-0.9,0.6-1.4,1.7-1.4,2.8v0.4
			c0,0.3,0.2,0.5,0.5,0.5h5.3c0.3,0,0.5-0.2,0.5-0.5v-0.5C31.9,18.4,31.4,17.5,30.5,16.9z"/>
		<path class="st2" d="M24.1,18c-0.4,0.3-1,0.5-1.5,0.5c-0.6,0-1.1-0.2-1.5-0.5c-0.7,0.5-1.1,1.4-1.1,2.3v0.4h4.6v-1.1
			c0-0.3,0-0.6,0.1-0.9C24.5,18.4,24.3,18.2,24.1,18z"/>
	</g>
</g>
</svg>
