<svg xmlns="http://www.w3.org/2000/svg" xmlns:xlink="http://www.w3.org/1999/xlink" viewBox="0 0 180 180"><defs><style>.cls-1{isolation:isolate;}.cls-2{fill:#fdb32c;}.cls-18,.cls-19,.cls-21,.cls-3,.cls-96{mix-blend-mode:overlay;}.cls-4{opacity:0.06;}.cls-5{opacity:0.15;}.cls-6{opacity:0.23;}.cls-7{opacity:0.32;}.cls-8{opacity:0.4;}.cls-9{opacity:0.49;}.cls-10{opacity:0.57;}.cls-11{opacity:0.66;}.cls-12{opacity:0.74;}.cls-13{opacity:0.83;}.cls-14{opacity:0.91;}.cls-15{fill:url(#radial-gradient);}.cls-116,.cls-16{fill:#3e2d21;}.cls-16,.cls-28{opacity:0.1;}.cls-17{fill:#ffede1;}.cls-18,.cls-19,.cls-82,.cls-96{fill:#fff;}.cls-100,.cls-18,.cls-21,.cls-83,.cls-90{opacity:0.4;}.cls-19,.cls-23,.cls-27,.cls-93{opacity:0.3;}.cls-20{fill:#4a477e;}.cls-21{fill:url(#radial-gradient-2);}.cls-22{fill:#f2e9ed;}.cls-24{opacity:0.6;}.cls-25{fill:#37376b;}.cls-26{fill:#bde9f4;}.cls-27{fill:url(#radial-gradient-3);}.cls-29{opacity:0.12;}.cls-30{opacity:0.14;}.cls-31{opacity:0.16;}.cls-32{opacity:0.18;}.cls-33{opacity:0.19;}.cls-34{opacity:0.21;}.cls-35{opacity:0.23;}.cls-36{opacity:0.25;}.cls-37{opacity:0.27;}.cls-38{opacity:0.29;}.cls-39{opacity:0.31;}.cls-40{opacity:0.33;}.cls-41{opacity:0.34;}.cls-42{opacity:0.36;}.cls-43{opacity:0.38;}.cls-44{opacity:0.4;}.cls-45{opacity:0.42;}.cls-46{opacity:0.44;}.cls-47{opacity:0.46;}.cls-48{opacity:0.48;}.cls-49{opacity:0.49;}.cls-50{opacity:0.51;}.cls-51{opacity:0.53;}.cls-52{opacity:0.55;}.cls-53{opacity:0.57;}.cls-54{opacity:0.59;}.cls-55{opacity:0.61;}.cls-56{opacity:0.62;}.cls-57{opacity:0.64;}.cls-58{opacity:0.66;}.cls-59{opacity:0.68;}.cls-60{opacity:0.7;}.cls-61{opacity:0.72;}.cls-62{opacity:0.74;}.cls-63{opacity:0.76;}.cls-64{opacity:0.77;}.cls-65{opacity:0.79;}.cls-66{opacity:0.81;}.cls-67{opacity:0.83;}.cls-68{opacity:0.85;}.cls-69{opacity:0.87;}.cls-70{opacity:0.89;}.cls-71{opacity:0.91;}.cls-72{opacity:0.92;}.cls-73{opacity:0.94;}.cls-74{opacity:0.96;}.cls-75{opacity:0.98;}.cls-76{fill:#009cdd;}.cls-77{fill:#77d1ed;}.cls-77,.cls-96{opacity:0.5;}.cls-78{fill:url(#linear-gradient);}.cls-79{fill:url(#linear-gradient-2);}.cls-80{fill:url(#linear-gradient-3);}.cls-81{fill:#ffac06;}.cls-83{fill:url(#radial-gradient-4);}.cls-84{fill:url(#radial-gradient-5);}.cls-85{fill:url(#radial-gradient-6);}.cls-86{fill:url(#radial-gradient-7);}.cls-87{fill:url(#radial-gradient-8);}.cls-88{fill:url(#linear-gradient-4);}.cls-89{fill:#a8234a;}.cls-90{fill:url(#radial-gradient-9);}.cls-91{fill:url(#radial-gradient-10);}.cls-92{fill:url(#linear-gradient-5);}.cls-93{fill:url(#radial-gradient-11);}.cls-116,.cls-94,.cls-95{opacity:0.2;}.cls-94{fill:url(#linear-gradient-6);}.cls-95{fill:url(#linear-gradient-7);}.cls-97{fill:#68041a;}.cls-98{fill:#a2122a;}.cls-99{fill:url(#linear-gradient-8);}.cls-100{fill:url(#linear-gradient-9);}.cls-101{fill:url(#linear-gradient-10);}.cls-102{fill:#040f21;}.cls-103{fill:url(#linear-gradient-11);}.cls-104{fill:url(#linear-gradient-12);}.cls-105{opacity:0.18;}.cls-106{opacity:0.26;}.cls-107{opacity:0.35;}.cls-108{opacity:0.43;}.cls-109{opacity:0.51;}.cls-110{opacity:0.59;}.cls-111{opacity:0.67;}.cls-112{opacity:0.75;}.cls-113{opacity:0.84;}.cls-114{opacity:0.92;}.cls-115{fill:url(#radial-gradient-12);}</style><radialGradient id="radial-gradient" cx="43.84" cy="68.2" r="109.56" gradientUnits="userSpaceOnUse"><stop offset="0.06" stop-color="#fcd3b3"/><stop offset="0.3" stop-color="#fcd0b2"/><stop offset="0.49" stop-color="#fbc6b0"/><stop offset="0.67" stop-color="#fab5ab"/><stop offset="0.84" stop-color="#f99da5"/><stop offset="1" stop-color="#f77e9d"/></radialGradient><radialGradient id="radial-gradient-2" cx="49.53" cy="31.24" r="103.25" gradientTransform="matrix(0, 1, -1, 0, 157.16, 8.33)" gradientUnits="userSpaceOnUse"><stop offset="0" stop-color="#fff"/><stop offset="1" stop-color="#fff" stop-opacity="0"/></radialGradient><radialGradient id="radial-gradient-3" cx="53.2" cy="39.16" r="63.3" gradientTransform="translate(8.3 3.8)" gradientUnits="userSpaceOnUse"><stop offset="0.21" stop-color="#1f1e21" stop-opacity="0"/><stop offset="0.48" stop-color="#1f1e21" stop-opacity="0.2"/><stop offset="0.86" stop-color="#1f1e21" stop-opacity="0.75"/><stop offset="1" stop-color="#1f1e21"/></radialGradient><linearGradient id="linear-gradient" x1="16.27" y1="-6.9" x2="16.53" y2="-6.9" gradientTransform="translate(79.1 98.4) rotate(11.1)" gradientUnits="userSpaceOnUse"><stop offset="0" stop-color="#704e2c"/><stop offset="1" stop-color="#261c14"/></linearGradient><linearGradient id="linear-gradient-2" x1="96.03" y1="102" x2="96.03" y2="55.2" gradientTransform="translate(9.1 -13.1) rotate(3.6)" gradientUnits="userSpaceOnUse"><stop offset="0" stop-color="#261c14"/><stop offset="1" stop-color="#704e2c"/></linearGradient><linearGradient id="linear-gradient-3" x1="16.01" y1="-6.9" x2="16.27" y2="-6.9" xlink:href="#linear-gradient"/><radialGradient id="radial-gradient-4" cx="12.63" cy="-17.15" r="7.5" gradientTransform="translate(79.1 98.4) rotate(11.1)" gradientUnits="userSpaceOnUse"><stop offset="0" stop-color="#1f1e21" stop-opacity="0"/><stop offset="0.34" stop-color="#1f1e21" stop-opacity="0.2"/><stop offset="0.83" stop-color="#1f1e21" stop-opacity="0.75"/><stop offset="1" stop-color="#1f1e21"/></radialGradient><radialGradient id="radial-gradient-5" cx="82.38" cy="71.44" r="3.58" gradientTransform="translate(10.7 -39.6) rotate(3.6) scale(1 1.37)" gradientUnits="userSpaceOnUse"><stop offset="0.06" stop-color="#fcd3b3"/><stop offset="0.2" stop-color="#fcccb1"/><stop offset="0.39" stop-color="#fbbaad"/><stop offset="0.62" stop-color="#f99ca5"/><stop offset="0.81" stop-color="#f77e9d"/></radialGradient><radialGradient id="radial-gradient-6" cx="64.29" cy="71.87" r="3.58" gradientTransform="matrix(-1, -0.06, -0.09, 1.37, 185.73, -29.26)" xlink:href="#radial-gradient-5"/><radialGradient id="radial-gradient-7" cx="13.9" cy="-16.01" r="5.49" gradientTransform="translate(77.4 107.1) rotate(11.1) scale(1 1.55)" gradientUnits="userSpaceOnUse"><stop offset="0.06" stop-color="#fcd3b3"/><stop offset="0.23" stop-color="#fcccb1"/><stop offset="0.48" stop-color="#fbbaad"/><stop offset="0.76" stop-color="#f99ca5"/><stop offset="1" stop-color="#f77e9d"/></radialGradient><radialGradient id="radial-gradient-8" cx="11.23" cy="-40.03" r="18.48" gradientTransform="matrix(-0.13, 0.99, -0.99, -0.13, 65.03, 43.67)" xlink:href="#radial-gradient-7"/><linearGradient id="linear-gradient-4" x1="96.17" y1="53.95" x2="96.17" y2="83.25" gradientTransform="translate(9.1 -13.1) rotate(3.6)" xlink:href="#linear-gradient"/><radialGradient id="radial-gradient-9" cx="30.8" cy="-8.29" r="2.39" xlink:href="#radial-gradient-4"/><radialGradient id="radial-gradient-10" cx="30.28" cy="-24.04" r="20.26" gradientTransform="translate(79.1 98.4) rotate(11.1)" xlink:href="#radial-gradient-7"/><linearGradient id="linear-gradient-5" x1="27.39" y1="-6.72" x2="31.03" y2="-5.14" gradientTransform="translate(79.1 98.4) rotate(11.1)" gradientUnits="userSpaceOnUse"><stop offset="0" stop-color="#eb427b"/><stop offset="0.29" stop-color="#d43c6f"/><stop offset="0.89" stop-color="#9a2b50"/><stop offset="1" stop-color="#8f284a"/></linearGradient><radialGradient id="radial-gradient-11" cx="31.53" cy="-15.84" r="5.42" xlink:href="#radial-gradient-4"/><linearGradient id="linear-gradient-6" x1="28.91" y1="-5.65" x2="28.91" y2="-8.02" gradientTransform="translate(79.1 98.4) rotate(11.1)" xlink:href="#radial-gradient-4"/><linearGradient id="linear-gradient-7" x1="31.94" y1="-7.36" x2="31.94" y2="-3.57" gradientTransform="translate(79.1 98.4) rotate(11.1)" gradientUnits="userSpaceOnUse"><stop offset="0" stop-color="#1f1e21"/><stop offset="0.17" stop-color="#1f1e21" stop-opacity="0.75"/><stop offset="0.66" stop-color="#1f1e21" stop-opacity="0.2"/><stop offset="1" stop-color="#1f1e21" stop-opacity="0"/></linearGradient><linearGradient id="linear-gradient-8" x1="104.99" y1="90.73" x2="114.27" y2="90.73" gradientTransform="translate(-4.4 -23.4) rotate(2.8)" gradientUnits="userSpaceOnUse"><stop offset="0" stop-color="#e0effe" stop-opacity="0"/><stop offset="1" stop-color="#b9dbfe"/></linearGradient><linearGradient id="linear-gradient-9" x1="109.63" y1="89.94" x2="109.63" y2="90.44" gradientTransform="translate(-4.4 -23.4) rotate(2.8)" gradientUnits="userSpaceOnUse"><stop offset="0"/><stop offset="1" stop-opacity="0"/></linearGradient><linearGradient id="linear-gradient-10" x1="102.38" y1="83.44" x2="104.94" y2="85.11" gradientTransform="translate(-4.4 -23.4) rotate(2.8)" gradientUnits="userSpaceOnUse"><stop offset="0" stop-color="#5b2b1a"/><stop offset="1" stop-color="#36190f"/></linearGradient><linearGradient id="linear-gradient-11" x1="113.27" y1="83.43" x2="115.84" y2="85.11" xlink:href="#linear-gradient-10"/><linearGradient id="linear-gradient-12" x1="-1696.04" y1="150.47" x2="-1694.99" y2="150.24" gradientTransform="matrix(-0.98, 0.1, 0, 0.85, -1565.96, 108.79)" gradientUnits="userSpaceOnUse"><stop offset="0" stop-color="#eb6e72"/><stop offset="0.11" stop-color="#ec7476" stop-opacity="0.92"/><stop offset="0.32" stop-color="#ee8481" stop-opacity="0.7"/><stop offset="0.62" stop-color="#f29e93" stop-opacity="0.35"/><stop offset="0.91" stop-color="#f6b8a5" stop-opacity="0"/></linearGradient><radialGradient id="radial-gradient-12" cx="104.14" cy="76.49" r="101.86" gradientUnits="userSpaceOnUse"><stop offset="0.06" stop-color="#fcd3b3"/><stop offset="0.29" stop-color="#fcd0b2"/><stop offset="0.48" stop-color="#fbc5af"/><stop offset="0.67" stop-color="#fab3ab"/><stop offset="0.85" stop-color="#f99aa4"/><stop offset="1" stop-color="#f77e9d"/></radialGradient></defs><title>section2img2</title><g class="cls-1"><g id="OBJECTS"><circle class="cls-2" cx="50.3" cy="31.8" r="13.2"/><path class="cls-2" d="M81,153.2c-34.6-6.3-69.2-37.3-68.6-74.6.1-6.1,1.1-12.2,4.1-17.5s8-9.6,14-10.6c10.2-1.7,19.6,5.7,29.9,1.6,5.9-2.3,9-7.4,12.8-12.1C83.8,26.9,111,7.1,127.7,21.5c9.2,7.9,6.8,18.9,2.7,28.7-2.6,6-4.6,13.8.8,19s13.7,5.5,20.8,7.4,13.8,8.3,16.2,16.7,2.5,18.7-2,25-9.3,13.1-15.4,18.5a65.4,65.4,0,0,1-12.2,8.6C121.2,154.8,100.4,156.8,81,153.2Z"/><path class="cls-2" d="M81,153.2c-34.6-6.3-69.2-37.3-68.6-74.6.1-6.1,1.1-12.2,4.1-17.5s8-9.6,14-10.6c10.2-1.7,19.6,5.7,29.9,1.6,5.9-2.3,9-7.4,12.8-12.1C83.8,26.9,111,7.1,127.7,21.5c9.2,7.9,6.8,18.9,2.7,28.7-2.6,6-4.6,13.8.8,19s13.7,5.5,20.8,7.4,13.8,8.3,16.2,16.7,2.5,18.7-2,25-9.3,13.1-15.4,18.5a65.4,65.4,0,0,1-12.2,8.6C121.2,154.8,100.4,156.8,81,153.2Z"/></g><g id="Layer_3" data-name="Layer 3"><g class="cls-3"><path class="cls-4" d="M44.5,134.5h0l-.6-1.5c0-.2-.1-.5,0-.7s.1-.1.1-.2h0l.2-.3.4-1h0a1.5,1.5,0,0,0,.1-.7h0a1.1,1.1,0,0,1-.1-.5s0-.2.1-.2h0c.1,0,.3-.1.4.1h.3v.3h-.1v.2h0v.3h.2l.3.6h1.1l.9.4h.5a.1.1,0,0,0,.1.1h-.1v.2a1,1,0,0,1-.4.5l-.3.2a.6.6,0,0,0-.3.6.7.7,0,0,0-.1.5l-2.4-1"/><path class="cls-4" d="M44.4,133.9h0a28.5,28.5,0,0,1-1.2-3.1,2.9,2.9,0,0,1,0-1.3.8.8,0,0,1,.2-.4h0l.3-.6a18,18,0,0,0,.8-2.1h0a2.7,2.7,0,0,0,.2-1.5v-.3c-.1-.3-.1-.7-.2-1s.1-.3.3-.3h0a1,1,0,0,1,.8.3h.3v.2h.2v.7h-.1v.2h0v.4h0v.2h0v.4h0v.8h.2v.2a2.3,2.3,0,0,0,.7,1h.5l.5.3h1.1l1.8.7h.9l.4.2h-.1v.2h0l-.2.4a2.3,2.3,0,0,1-.7,1l-.6.4c-.5.2-.5.6-.7,1.1s-.1.7-.2,1.1l-4.8-2"/><path class="cls-4" d="M44.3,133.2h-.1c-.6-1.5-1.1-3.1-1.6-4.6a3.4,3.4,0,0,1-.1-2l.3-.6h0l.5-1a26.8,26.8,0,0,0,1.2-3h0a5.8,5.8,0,0,0,.3-2.2v-.4l-.3-1.5s.1-.5.4-.6H45a1.1,1.1,0,0,1,1.1.3v.2c.1.1.1.2.2.2s.1.1.1.2a.3.3,0,0,1,.1.2h.3v.2H47v.2h0a1.7,1.7,0,0,1-.1,1v.2h0v.5h0a.3.3,0,0,0-.1.2v.3h0v.3h0v.7h0v1.2h.1v.2a.1.1,0,0,1,.1.1h.1c.1,0,.1.1.1.2a9.1,9.1,0,0,0,1.1,1.6h.1c0,.1,0,.1.1.1h.1a.1.1,0,0,0,.1.1h0c.1.1.2.1.2.2h.2l.7.5.2.2h.5c0,.1.1.1.2.2h.4l.4.2a12.5,12.5,0,0,0,2.7,1l.6.2H55l.3.2h.1a.1.1,0,0,1,.1.1h.1l.5.3h0v.2h0l-.2.3h0c-.1.2-.1.4-.2.6a3.1,3.1,0,0,1-1.1,1.4,3.3,3.3,0,0,1-1,.6,3.1,3.1,0,0,0-.9,1.8,4,4,0,0,0-.3,1.5l-7.2-2.9"/><path class="cls-4" d="M44.2,132.5h-.1a65,65,0,0,1-2.2-6.2,3.6,3.6,0,0,1-.1-2.5,3.6,3.6,0,0,1,.4-.9h0l.6-1.3a19.7,19.7,0,0,0,1.6-4c0-.1,0-.2.1-.2a9.7,9.7,0,0,0,.4-2.9c0-.2-.1-.4-.1-.6a17.7,17.7,0,0,0-.4-2s.1-.6.5-.7h.2a1.4,1.4,0,0,1,1.5.4c0,.1.1.1.1.2l.3.3c0,.1.1.1.1.2l.2.3h0c0,.1.1.1.1.2h.1c0,.1,0,.1.1.2h.1v.2h0a.4.4,0,0,1,.1.3h0a7.6,7.6,0,0,1-.1,1.5v.2h0c0,.1-.1.2-.1.4v.2h0v.4a.6.6,0,0,1-.1.4h0v.4h0v.8h0V120h0v.2h.1v.2a.3.3,0,0,1,.1.2h0v.2h0c0,.1,0,.1.1.2H48c0,.1.1.2.1.3a10.2,10.2,0,0,0,1.4,2.2.1.1,0,0,1,.1.1h.2v.2h.2l.3.3h.1c.1,0,.1,0,.1.1l.9.6.4.3H52a.1.1,0,0,0,.1.1h.7l.2.2h.2l.5.3c1.2.6,2.5.9,3.7,1.4l.8.3h1.1l.7.4h.1v.2a.1.1,0,0,1-.1.1.4.4,0,0,1-.1.3h-.1c0,.1-.1.2-.1.4h0l-.4.8a4.3,4.3,0,0,1-1.4,1.9l-1.3.8a4.1,4.1,0,0,0-1.3,2.3,15.5,15.5,0,0,0-.4,2.1l-9.6-3.9"/><path class="cls-4" d="M44.1,131.8H44c-1.1-2.6-1.9-5.1-2.8-7.8a4.7,4.7,0,0,1-.1-3.1,3.7,3.7,0,0,1,.5-1.1h0c.3-.6.6-1.1.8-1.6a38.6,38.6,0,0,0,2-5.1v-.2a9,9,0,0,0,.5-3.6,1.5,1.5,0,0,0-.1-.7c-.1-.9-.3-1.7-.4-2.5s.1-.8.6-.9h.2a1.9,1.9,0,0,1,1.9.6.2.2,0,0,0,.2.2l.3.5h.1l.3.4h0a.3.3,0,0,0,.1.2h.1c0,.1.1.1.1.2h.1c0,.1.1.1.1.2h0v.2h0v.2h.1c0,.6-.2,1.2-.2,1.8s-.1.1-.1.2h0v.8a.3.3,0,0,1-.1.2h0v.9h0v.5h-.1v1h0v1.5c0,.2,0,.3.1.4v.2h0v.2h0c.1,0,.1.1.1.2v.2c.1,0,.1.1.1.2v.2h.1a.4.4,0,0,0,.1.3h0c0,.1,0,.2.1.2v.2l.2.3a9.5,9.5,0,0,0,1.7,2.7l.2.2c.1.1.1.1.1.2h.2c0,.1.1.1.1.2h.2l.3.3.2.2h.1l1.1.8.5.3h.7l.4.2.3.2h.3l.6.3a25.4,25.4,0,0,0,4.6,1.7l1,.4h.3l.5.2h.5l.9.5h.3v.2h0v.2c0,.1-.1.2-.1.3h0l-.2.3h0v.2h0a1.4,1.4,0,0,1-.2.6h0l-.4,1a6.1,6.1,0,0,1-1.8,2.4l-1.6,1c-1.1.7-1.2,1.7-1.6,2.8a26.1,26.1,0,0,0-.6,2.7l-11.9-4.9"/><path class="cls-4" d="M44,131.2V131a87.1,87.1,0,0,1-3.4-9.3,6.2,6.2,0,0,1-.2-3.8,5.4,5.4,0,0,1,.7-1.3h0l1-1.8a44.9,44.9,0,0,0,2.3-6.1c0-.1.1-.2.1-.3A12.8,12.8,0,0,0,45,104c0-.3-.1-.6-.1-.9l-.6-3s.2-.9.8-1h.2a2.2,2.2,0,0,1,2.3.7l.2.3.4.5a.3.3,0,0,1,.1.2c.2.1.3.3.4.4h0a.3.3,0,0,1,.1.2h.1v.4h.1c0,.1,0,.1.1.2h0c0,.1.1.2.1.3h0c0,.1,0,.1.1.2h0a15.2,15.2,0,0,1-.3,2.1v.3h0a1.3,1.3,0,0,1-.1.6v.5h0v.6a1.3,1.3,0,0,0-.1.6h0v.6h0c0,.5-.1.9-.1,1.3h0a10.9,10.9,0,0,0,.1,1.8v.7h0v.2h.1v.2h0v.2a.4.4,0,0,1,.1.3c0,.1,0,.2.1.2v.2c0,.1.1.2.1.3h0v.2h0v.2c0,.1,0,.2.1.2s.1.3.1.4a14.6,14.6,0,0,0,2.2,3.3.2.2,0,0,0,.2.2c0,.1.1.1.1.2l.2.2.2.2.2.2.4.3a.2.2,0,0,0,.2.2c0,.1.1.1.1.2l1.3,1,.6.3h.4l.2.2h.2l.5.3.4.2h.3l.8.4a36.2,36.2,0,0,0,5.5,2l1.2.5h.4l.6.3.3.2h.1a.1.1,0,0,1,.1.1h.1l1,.6H68v.2h0v.2h-.1v.2h-.1v.2l-.2.4h0c-.1.1-.1.3-.2.4h-.1c-.1.2-.1.4-.2.6v.2a6.1,6.1,0,0,1-.5,1.2,7.5,7.5,0,0,1-2.1,2.9,19.9,19.9,0,0,0-1.9,1.2c-1.3.8-1.5,2-2,3.4a16.5,16.5,0,0,0-.6,3.2l-14.3-6"/><path class="cls-4" d="M43.9,130.5v-.2a89.3,89.3,0,0,1-4-10.9,7.4,7.4,0,0,1-.2-4.4,10.9,10.9,0,0,1,.8-1.5h0a21.2,21.2,0,0,0,1.1-2.1,56.6,56.6,0,0,0,2.8-7.2.4.4,0,0,1,.1-.3,14.6,14.6,0,0,0,.7-5.1c-.1-.3-.1-.6-.2-.9l-.6-3.5s.2-1.1.9-1.3h.2a2.9,2.9,0,0,1,2.7.9l.3.3.4.6.2.2.3.6h0l.2.2c0,.1.1.1.1.2h0l.2.3v.2h0c.1,0,.1.1.1.2h.1c0,.2.1.3.1.4h0c0,.1,0,.2.1.2h0a21.3,21.3,0,0,1-.3,2.5v.3h0a1.5,1.5,0,0,0-.1.7v.6h0v.6a1.7,1.7,0,0,1-.1.7v.9h0v1.5h0v3.1h0v.2h0v.3h0a.4.4,0,0,1,.1.3.4.4,0,0,0,.1.3v.5a.4.4,0,0,0,.1.3h0a.4.4,0,0,0,.1.3h0c0,.1.1.2.1.3v.2c.1.1.1.3.2.5a15.6,15.6,0,0,0,2.5,3.8c.1.1.1.2.2.2l.2.2.2.3a.2.2,0,0,1,.2.2l.3.2.4.4.2.2.2.2,1.6,1.2.6.4h.5l.2.2h.3l.6.3.4.2h.4l.9.5a60.5,60.5,0,0,0,6.4,2.4l1.4.5.4.2.7.3.4.2h.3l1.3.7c0,.1,0,.1.1.2h.2a.1.1,0,0,0,.1.1v.2h0v.2h0v.2h-.1v.3h-.1a.3.3,0,0,1-.1.2c0,.2-.1.3-.1.5h-.1a.8.8,0,0,1-.2.5h0c0,.1-.1.1-.1.2h0l-.3.7v.2l-.6,1.4a8.3,8.3,0,0,1-2.5,3.3,13.5,13.5,0,0,1-2.2,1.4c-1.5,1-1.8,2.4-2.3,4a24.5,24.5,0,0,0-.8,3.7l-16.7-6.9"/><path class="cls-4" d="M43.8,129.8c-.1-.1-.1-.2-.2-.2a114.4,114.4,0,0,1-4.4-12.4,8.2,8.2,0,0,1-.3-5.1,9.1,9.1,0,0,1,.9-1.7h0a19.6,19.6,0,0,0,1.3-2.5,71.4,71.4,0,0,0,3.1-8.1c0-.1.1-.2.1-.3a14.8,14.8,0,0,0,.8-5.9c0-.3-.1-.7-.1-1.1s-.5-2.6-.8-4,.3-1.2,1.1-1.4h.2a3,3,0,0,1,3.1.9l.3.4.5.7.2.3.4.6h0l.2.3c0,.1.1.1.1.2h.1c0,.1.1.2.1.3a.3.3,0,0,1,.1.2h.1v.3h0c0,.1.1.1.1.2s.1.2.1.4h0v.3h0v.2a26.6,26.6,0,0,1-.3,2.8c0,.1-.1.3-.1.4h0a1.7,1.7,0,0,1-.1.7v.7h0c0,.3-.1.5-.1.8v.8h0c0,.3-.1.6-.1.8h0v1.7h0v3.6h0v.2h0v.3h0v.4a.4.4,0,0,1,.1.3c.1.1.1.2.1.4v.2a.4.4,0,0,0,.1.3h0a.8.8,0,0,0,.1.4h0a.4.4,0,0,1,.1.3.3.3,0,0,1,.1.2l.3.6a17.7,17.7,0,0,0,2.8,4.3l.3.3.2.3.2.2.3.3.2.2.6.5a.2.2,0,0,0,.2.2l.2.2,1.8,1.4.7.4h0l.2.2.4.2h.5l.7.4.5.2.4.2,1.1.5a45.5,45.5,0,0,0,7.3,2.7l1.6.6.5.2.8.4.4.2h.4a5,5,0,0,1,1.4.8h.1l.2.2h0a.1.1,0,0,0,.1.1h0a.4.4,0,0,1,.1.3h0v.2h0v.2h0v.4a.4.4,0,0,0-.1.3h0c-.1,0-.1.1-.1.2l-.2.5h0c-.1.3-.2.4-.2.6H75v.2h0l-.3.9c-.1,0-.1.1-.1.2a11.1,11.1,0,0,1-.7,1.6A8.8,8.8,0,0,1,71,135a22.6,22.6,0,0,1-2.6,1.6c-1.7,1.1-2,2.7-2.5,4.6a21,21,0,0,0-.9,4.2l-19.1-7.9"/><path class="cls-4" d="M43.6,129.2a.8.8,0,0,0-.1-.4,115.2,115.2,0,0,1-5-13.9,9.2,9.2,0,0,1-.3-5.7,11.4,11.4,0,0,1,1-1.9h0a24.4,24.4,0,0,0,1.4-2.8,71.7,71.7,0,0,0,3.6-9.1c0-.2,0-.3.1-.4a16.7,16.7,0,0,0,.9-6.6c-.1-.4-.1-.8-.2-1.2s-.5-3-.8-4.5c0,0,.3-1.4,1.1-1.6h.4a3.3,3.3,0,0,1,3.4,1l.3.4.6.8c0,.1.1.2.2.3l.5.7h0l.2.3a.3.3,0,0,1,.1.2h.1c0,.1.1.2.2.3s.1.2.1.3h.1a.4.4,0,0,0,.1.3h0c0,.1,0,.1.1.2s.1.3.1.5h0c0,.1.1.2.1.3h0a16.5,16.5,0,0,1-.4,3.2v.5h0c0,.3-.1.6-.1.9v.4a.8.8,0,0,0-.1.4h0v.8a2.8,2.8,0,0,0-.1.9v1.1h0a11.5,11.5,0,0,0-.1,1.9h0v2.9a2,2,0,0,0,.1.7v.4h0a.4.4,0,0,0,.1.3h0v.3h0a.4.4,0,0,1,.1.3c0,.2.1.3.1.4s0,.3.1.4a8241685469897.8,8241685469897.8,0,0,1,.2.6h0c0,.2,0,.3.1.4v.2h0l.2.3a.4.4,0,0,0,.1.3,1.4,1.4,0,0,1,.2.6,23,23,0,0,0,3.2,4.9l.3.3.3.3.3.3.2.3.3.3.6.5.3.3.2.2,2,1.5.8.5h0l.3.2.4.2h.3l.3.2.7.3.7.3.3.2,1.3.6a57.3,57.3,0,0,0,8.2,3l1.8.7.5.2.9.4.5.3h.4a4.2,4.2,0,0,1,1.6.9l.2.2h.2a.1.1,0,0,0,.1.1h0a.4.4,0,0,1,.1.3v.2h0v.2h0v.2h0v.2a.4.4,0,0,1-.1.3v.3h-.1c0,.1,0,.2-.1.2s-.1.4-.1.6v.2a1.4,1.4,0,0,0-.2.6h-.1c-.1,0-.1.1-.1.2h-.1l-.3.9a.4.4,0,0,1-.1.3,13.4,13.4,0,0,1-.7,1.8,12.4,12.4,0,0,1-3.2,4.3,28.2,28.2,0,0,1-2.9,1.8c-1.9,1.3-2.2,3.1-2.9,5.1a27.3,27.3,0,0,0-1,4.8L46,137.8"/><path class="cls-4" d="M43.5,128.5c0-.1-.1-.2-.1-.4a141.7,141.7,0,0,1-5.6-15.4,10,10,0,0,1-.3-6.4c.3-.7.7-1.4,1.1-2.2h0c.6-1,1.1-2.1,1.6-3.1a73.9,73.9,0,0,0,3.9-10.2.6.6,0,0,0,.1-.4,16.8,16.8,0,0,0,1-7.3,5.7,5.7,0,0,0-.1-1.3c-.3-1.7-.6-3.4-1-5.1,0,0,.3-1.5,1.3-1.8h.4A3.5,3.5,0,0,1,49.5,76c.2.1.3.3.5.5l.6.8c0,.1.1.2.2.4l.6.7h0l.2.3a.3.3,0,0,0,.1.2v.2c.1.1.1.2.2.4l.2.3h0l.2.3h0v.2a1.4,1.4,0,0,1,.2.6h0a.4.4,0,0,1,.1.3h0v.2c0,1.2-.3,2.4-.4,3.5v.5h-.1v1a.7.7,0,0,0-.1.5v.3h0c0,.3-.1.6-.1.9a3.1,3.1,0,0,1-.1,1v1.3h0c0,.7-.1,1.5-.1,2.2h0v3.2a1.9,1.9,0,0,1,.1.8v.5h0a.4.4,0,0,1,.1.3h0a.4.4,0,0,0,.1.3h0a30827137529842.3,30827137529842.3,0,0,1,.2.8.9.9,0,0,0,.1.5,24725056409676.2,24725056409676.2,0,0,1,.2.6h0a4.3,4.3,0,0,0,.1.5v.2h0c0,.1.1.2.1.3s.1.2.1.3l.3.7a20.1,20.1,0,0,0,3.6,5.5l.3.3.3.3.3.4.3.3.3.3.6.6.4.3.3.2a17.3,17.3,0,0,0,2.1,1.7l.9.5H63l.5.3h.3l.3.2.9.4.7.3.4.3,1.3.6a78.3,78.3,0,0,0,9.2,3.4l2,.7.6.3,1,.4.5.3h.5a10.4,10.4,0,0,1,1.8,1v.2c.1.1.2.1.2.2h.1a.1.1,0,0,1,.1.1h0a.4.4,0,0,1,.1.3v.2h0v.3h0v.2h0v.5a.4.4,0,0,1-.1.3h0c0,.1-.1.2-.1.3s-.1.4-.2.6-.1.1-.1.2a2.5,2.5,0,0,0-.2.7h-.1c-.1.1-.1.1-.1.2h-.1l-.3,1.1a.4.4,0,0,0-.1.3l-.9,2a12.7,12.7,0,0,1-3.5,4.8l-3.2,2c-2.1,1.4-2.5,3.4-3.2,5.7a23.8,23.8,0,0,0-1.1,5.3l-23.9-9.9"/><path class="cls-4" d="M43.4,127.8c0-.1-.1-.2-.1-.4-2.6-5.5-4.3-11.2-6.2-17a11.2,11.2,0,0,1-.3-7A13.4,13.4,0,0,1,38,101h0l1.8-3.4a89.2,89.2,0,0,0,4.3-11.2c0-.2.1-.3.1-.5a21.8,21.8,0,0,0,1.1-8,7.7,7.7,0,0,0-.2-1.5c-.3-1.8-.6-3.7-1-5.5,0,0,.3-1.7,1.4-2h.4A3.8,3.8,0,0,1,50,70.1l.5.5.6.9.4.4a4.1,4.1,0,0,0,.5.9h.1a.8.8,0,0,0,.2.4v.4l.2.4.2.3c0,.1.1.1.1.2s.1.2.1.4h0c.1,0,.1.1.1.2s.2.3.2.5h0v.2c.1,0,.1.1.1.2v.4a25.8,25.8,0,0,1-.4,3.8c0,.2-.1.4-.1.6h0c0,.3-.1.7-.1,1v.6c-.1.1-.1.2-.1.4h0a3.4,3.4,0,0,1-.1,1v1.3a4.5,4.5,0,0,0-.1,1.1h0a16.9,16.9,0,0,1-.1,2.3h0c0,1.2,0,2.3.1,3.5v1.4h0v.5c.1.1.1.2.1.4h0c0,.2.1.3.1.5s.1.3.1.4a1.1,1.1,0,0,1,.1.5.6.6,0,0,1,.1.4l.2.4h0a4.3,4.3,0,0,1,.1.5h.1c0,.2.1.3.1.5l.2.3.3.8a23.3,23.3,0,0,0,3.9,5.9l.4.5.2.3.4.3.3.4.4.3.7.7.3.3.4.3,2.3,1.8,1,.6h0l.4.2.4.3.4.2h.4l.9.5.8.4.4.2,1.5.7a71.7,71.7,0,0,0,10.1,3.7l2.1.8.7.3,1.1.5.6.3h.6a10,10,0,0,1,1.9,1.2c.1,0,.1.1.2.2l.2.2h.2a.6.6,0,0,1,.1.4v.2h0v.3h0v.3h0v.2c0,.1-.1.2-.1.4s-.1.2-.1.3h0a.4.4,0,0,0-.1.3l-.3.7v.2a4.1,4.1,0,0,0-.3.8v.2h0v.4l-.4,1.2v.3l-.9,2.2a12.6,12.6,0,0,1-3.9,5.2,33.7,33.7,0,0,1-3.5,2.2c-2.4,1.6-2.8,3.8-3.6,6.3a39.9,39.9,0,0,0-1.2,5.8L46.3,138.4"/><path class="cls-5" d="M43.6,127.8c0-.1-.1-.2-.1-.4-2.6-5.5-4.3-11.2-6.2-17a11.2,11.2,0,0,1-.3-7,13.4,13.4,0,0,1,1.2-2.4h0L40,97.6a89.2,89.2,0,0,0,4.3-11.2c0-.2.1-.3.1-.5a19.9,19.9,0,0,0,1.1-8,7.7,7.7,0,0,0-.2-1.5c-.3-1.8-.6-3.7-1-5.5,0,0,.3-1.7,1.4-2h.4a3.8,3.8,0,0,1,4.1,1.3l.5.5.7.9.3.4.5.9h.1a.8.8,0,0,0,.2.4v.4l.3.4v.3c0,.1.1.1.1.2s.1.2.1.4h0c.1,0,.1.1.1.2s.2.3.2.5h0v.2c.1,0,.1.1.1.2v.4a25.8,25.8,0,0,1-.4,3.8c0,.2-.1.4-.1.6h0c0,.3-.1.7-.1,1v.6c0,.1-.1.2-.1.4h0v1a4.1,4.1,0,0,0-.1,1.1v.2c0,.4-.1.8-.1,1.1h0v2.3h0a20.5,20.5,0,0,0,0,3.5v1.1a.4.4,0,0,1,.1.3h0v.9h0a.9.9,0,0,1,.1.5c0,.1.1.3.1.4a1.1,1.1,0,0,1,.1.5.6.6,0,0,1,.1.4l.2.4h0a4.3,4.3,0,0,1,.1.5h.1c0,.2.1.3.1.5l.2.3.3.8a23.3,23.3,0,0,0,3.9,5.9l.4.5.3.3.3.3.3.4.4.3.7.7.3.3.4.3,2.3,1.8,1,.6h0l.4.2.4.3.4.2h.4l.9.5.8.4.4.2,1.5.7A71.7,71.7,0,0,0,80,116.9l2.2.8.7.3,1,.5.6.3h.6l1.6.9.3.3c.1.1.2.1.2.2l.2.2a.1.1,0,0,0,.1.1h.1a.8.8,0,0,1,.1.4v.2h0v.3h0a.4.4,0,0,1-.1.3h0v.3a.4.4,0,0,0-.1.3c0,.1-.1.2-.1.3v.2l-.2.3v.2l-.2.5v.2h0v.4l-.2.3v.2h0a.1.1,0,0,0-.1.1.4.4,0,0,1-.1.3h0l-.5,1.2a4945011281926.3,4945011281926.3,0,0,0-.2.6l-.8,2-1.5,2.6a16.1,16.1,0,0,1-2.2,2.3l-.5.4c-1.1.9-2.3,1.5-3.4,2.4l-.7.6c-1.6,1.6-2.1,3.8-2.7,6a30.2,30.2,0,0,0-1.6,5.1l-15.4-6.4-10.6-4.5c0-.5.2-.8.2-1.1s-.1.3-.2.1"/><path class="cls-6" d="M43.8,127.8c0-.1-.1-.2-.1-.4a163.9,163.9,0,0,1-6.2-17,11.2,11.2,0,0,1-.3-7,13.4,13.4,0,0,1,1.2-2.4h0l1.8-3.4a89.2,89.2,0,0,0,4.3-11.2c0-.2.1-.3.1-.5a19.9,19.9,0,0,0,1.1-8,7.7,7.7,0,0,0-.2-1.5c-.3-1.8-.6-3.7-1-5.5,0,0,.3-1.7,1.4-2h.4a4,4,0,0,1,4.2,1.3l.4.5.7.9.3.4a4.1,4.1,0,0,1,.5.9h.1a.8.8,0,0,0,.2.4.3.3,0,0,1,.1.2v.2l.3.4v.3c0,.1.1.1.1.2s.1.2.1.4h0c.1,0,.1.1.1.2s.2.3.2.5h0v.2c.1,0,.1.1.1.2v.4a25.8,25.8,0,0,1-.4,3.8c0,.2-.1.4-.1.6h0a3.4,3.4,0,0,1-.1,1v.6c0,.1-.1.2-.1.4h0v1a4.1,4.1,0,0,0-.1,1.1v.2c0,.4-.1.8-.1,1.1h0v2.3h0a20.5,20.5,0,0,0,0,3.5v.9a.3.3,0,0,0,.1.2v.3h0v.3c0,.1.1.1.1.2v.4h0a.9.9,0,0,1,.1.5.6.6,0,0,1,.1.4,1.1,1.1,0,0,1,.1.5c.1.1.1.3.2.4a.8.8,0,0,0,.1.4h0a4.3,4.3,0,0,1,.1.5H54c0,.2.1.3.1.5l.2.3.3.8a23.3,23.3,0,0,0,3.9,5.9l.4.5.3.3.3.3.3.4.4.3a4.6,4.6,0,0,1,.7.7l.4.3.3.3L64,110l.9.6h0l.4.2.4.3a.5.5,0,0,1,.4.2h.4l.9.5.8.4.5.2,1.4.7a71.7,71.7,0,0,0,10.1,3.7l2.2.8.7.3,1,.5.6.3h.6l1.6.9.3.3c.1.1.2.1.2.2l.2.2a.1.1,0,0,0,.1.1h0a.1.1,0,0,1,.1.1v.9h0v.2h0a.4.4,0,0,1-.1.3h0v.2a.4.4,0,0,0-.1.3v.4a.1.1,0,0,1-.1.1.8.8,0,0,1-.1.4h0a1.4,1.4,0,0,0-.2.6c0,.1-.1.1-.1.2h0v.2c0,.1-.1.1-.1.2v.5h0a.4.4,0,0,0-.1.3.3.3,0,0,1-.1.2c-.1.4-.3.8-.4,1.2a.4.4,0,0,0-.1.3v.2l-.9,2.1a14.5,14.5,0,0,1-1.7,2.6,10.4,10.4,0,0,1-2.3,2.4l-.4.3c-1.2.9-2.3,1.7-3.4,2.7l-.7.6c-1.4,1.6-1.9,4-2.5,6.2s-1.7,2.8-1.9,4.4L56.7,143l-10.4-4.6c-.2-.5.2-.8.3-1.3s-.2-.2-.4-.6"/><path class="cls-7" d="M44,127.8c0-.1-.1-.2-.1-.4a163.9,163.9,0,0,1-6.2-17,11.2,11.2,0,0,1-.3-7,13.4,13.4,0,0,1,1.2-2.4h0l1.8-3.4a89.2,89.2,0,0,0,4.3-11.2c0-.2.1-.3.1-.5a18.3,18.3,0,0,0,1.1-8,7.7,7.7,0,0,0-.2-1.5c-.3-1.8-.6-3.7-1-5.5,0,0,.3-1.7,1.4-2h.4a4,4,0,0,1,4.2,1.3l.4.5.7.9.3.4a4.1,4.1,0,0,1,.5.9h.1l.2.4a.3.3,0,0,1,.1.2v.2l.3.4v.3c0,.1.1.1.1.2l.2.4h0v.2c.1.2.2.3.2.5h0v.8a25.8,25.8,0,0,1-.4,3.8,1.3,1.3,0,0,1-.1.6h0a3.4,3.4,0,0,1-.1,1v.6a.8.8,0,0,1-.1.4h0v1a4.1,4.1,0,0,0-.1,1.1v.2c0,.4-.1.8-.1,1.1h0v2.3h0c-.1,1.2,0,2.3,0,3.5v.9a.3.3,0,0,0,.1.2v.3h0v.3c.1.1.1.1.1.2v.4h0a.9.9,0,0,1,.1.5.6.6,0,0,1,.1.4c.1.2.1.4.2.5a.6.6,0,0,0,.1.4.8.8,0,0,0,.1.4h0a4.3,4.3,0,0,1,.1.5h.1c0,.2.1.3.1.5l.2.3.3.8a23.3,23.3,0,0,0,3.9,5.9l.4.5.3.3.3.3.3.4.4.3.7.7.4.3.3.3,2.4,1.8.9.6h0l.4.2.5.3.3.2h.4l.9.5.8.4.5.2,1.5.7a66.2,66.2,0,0,0,10,3.7l2.2.8.7.3,1.1.5.5.3h.6l1.6,1,.4.2a.2.2,0,0,0,.2.2v.2H88c0,.1,0,.2.1.2v.7h0v.3h0a.3.3,0,0,1-.1.2h0v.3a6181264102436.2,6181264102436.2,0,0,1-.2.6c0,.1,0,.1-.1.2a.4.4,0,0,1-.1.3v.2a1.4,1.4,0,0,0-.2.6v.2h-.1v.4c0,.1-.1.2-.1.3s-.1.1-.1.2h0a.4.4,0,0,0-.1.3c-.1.1-.1.1-.1.2s-.3.8-.5,1.3v.5l-.9,2.1a12.7,12.7,0,0,1-1.8,2.7,17.5,17.5,0,0,1-2.4,2.3,1,1,0,0,0-.5.4,30.4,30.4,0,0,0-3.3,2.8l-.6.8c-1.4,1.6-1.9,4.2-2.5,6.4s-2,2.2-2.2,3.7l-15.3-6.3s-9.2-4.1-10.2-4.7.2-.9.3-1.5-.2-.7-.4-1.4"/><path class="cls-8" d="M44.3,127.8a.5.5,0,0,1-.2-.4,163.9,163.9,0,0,1-6.2-17,11.2,11.2,0,0,1-.3-7,13.4,13.4,0,0,1,1.2-2.4h0l1.8-3.4a89.2,89.2,0,0,0,4.3-11.2c0-.2.1-.3.1-.5a18.3,18.3,0,0,0,1.1-8,7.7,7.7,0,0,0-.2-1.5c-.3-1.8-.6-3.7-1-5.5,0,0,.3-1.7,1.4-2h.4a4,4,0,0,1,4.2,1.3l.4.5.7.9.3.4a4.1,4.1,0,0,1,.5.9h.1l.2.4.2.2v.2l.3.4v.5c.1.1.1.2.2.4h0v.2c.1.2.2.3.2.5h0a.3.3,0,0,1,.1.2v.6a25.8,25.8,0,0,1-.4,3.8,1.3,1.3,0,0,1-.1.6h0a3.4,3.4,0,0,1-.1,1v.6a.8.8,0,0,1-.1.4h0v1a4.1,4.1,0,0,0-.1,1.1v.2a3.7,3.7,0,0,1-.1,1.1h0v2.3h0v4.9h0a.4.4,0,0,0,.1.3v.6h0a.9.9,0,0,1,.1.5.6.6,0,0,1,.1.4c.1.2.1.4.2.5a.6.6,0,0,0,.1.4.8.8,0,0,0,.1.4h0a4.3,4.3,0,0,1,.1.5h.1c0,.2.1.3.2.5a.4.4,0,0,0,.1.3l.3.8a26.3,26.3,0,0,0,3.9,5.9l.4.5.3.3.3.3.3.4.4.3a4.6,4.6,0,0,1,.7.7l.4.3.3.3,2.4,1.8.9.6h.1l.3.2.5.3.3.2h.4l.9.5.8.4.5.2,1.5.7a66.2,66.2,0,0,0,10,3.7l2.2.8.7.3,1.1.5.6.3h.5a15.1,15.1,0,0,1,1.7,1l.3.2c.1.1.1.2.2.2v.2a.1.1,0,0,1,.1.1h.1c0,.1.1.2.1.3v.3h0v.2h0v.3h0c0,.1,0,.2-.1.2v.2c0,.1,0,.2-.1.2v.3a.4.4,0,0,0-.1.3.3.3,0,0,1-.1.2c0,.1-.1.3-.1.4v.2a1.4,1.4,0,0,1-.2.6v.2h-.1c0,.1-.1.1-.1.2h0c-.1.2-.1.3-.2.4v.2h0v.2c0,.1-.1.1-.1.2s0,.2-.1.2-.3.9-.4,1.3l-.2.4a.3.3,0,0,1-.1.2,13.6,13.6,0,0,1-1,2.1,12.7,12.7,0,0,1-1.8,2.7,18.6,18.6,0,0,1-2.6,2.3l-.5.4A31.4,31.4,0,0,0,77,139l-.6.8c-1.2,1.7-1.8,4.5-2.3,6.6s-2.4,1.8-2.6,3l-15.1-6.2s-8.8-3.9-10.1-4.8.3-1,.3-1.7-.1-1.3-.5-2.2"/><path class="cls-9" d="M44.5,127.8c-.1-.1-.1-.2-.2-.4a163.9,163.9,0,0,1-6.2-17,11.9,11.9,0,0,1-.3-7c.3-.8.8-1.6,1.2-2.4h0c.7-1.1,1.2-2.3,1.8-3.4a89.2,89.2,0,0,0,4.3-11.2c0-.2.1-.3.1-.5a18.3,18.3,0,0,0,1.1-8,7.7,7.7,0,0,0-.2-1.5c-.3-1.8-.6-3.7-1-5.5,0,0,.3-1.7,1.4-2h.4a4,4,0,0,1,4.2,1.3l.4.5.7.9.3.4.6.9h0l.2.4.2.2v.2a.8.8,0,0,0,.2.4v.5c.1.1.1.2.2.4h0v.2c.1.2.2.3.2.5h0a.3.3,0,0,1,.1.2v.6a25.8,25.8,0,0,1-.4,3.8,1.3,1.3,0,0,1-.1.6h0a3.4,3.4,0,0,1-.1,1v1h0a3.4,3.4,0,0,0-.1,1c0,.4-.1.7-.1,1.1v.2a3.7,3.7,0,0,1-.1,1.1h0v2.3h0v4.4c.1,0,.1.1.1.2v.3h0a.4.4,0,0,0,.1.3v.6h.1v.5a.6.6,0,0,1,.1.4c.1.2.1.4.2.5a.6.6,0,0,0,.1.4.8.8,0,0,0,.1.4h0a4.3,4.3,0,0,1,.1.5h.1l.2.5a.4.4,0,0,0,.1.3l.3.8a26.3,26.3,0,0,0,3.9,5.9l.4.5.3.3.3.3.4.4.3.3.7.7.4.3.3.3,2.4,1.8,1,.6h0l.3.2.5.3.3.2h.4l.9.5.8.4.5.2,1.5.7a70.5,70.5,0,0,0,10,3.7l2.2.8.7.3,1.1.5.6.3h.5a9.5,9.5,0,0,1,1.7,1l.3.3c.1,0,.1.1.2.2h.3v.2c.1,0,.1.1.1.2v.3h0v.2h0v.3h0a.4.4,0,0,1-.1.3h0a.4.4,0,0,1-.1.3v.3a.4.4,0,0,0-.1.3v.2c0,.1-.1.2-.1.3v.2a6.4,6.4,0,0,1-.2.7v.2h0v.2c0,.1,0,.1-.1.1s0,.3-.1.4,0,.1-.1.2h0v.2a.3.3,0,0,0-.1.2c0,.1-.1.2-.1.3s-.3.9-.5,1.3-.1.2-.1.3a.4.4,0,0,0-.1.3,22.6,22.6,0,0,1-1.1,2.2,13.1,13.1,0,0,1-1.9,2.7,34.5,34.5,0,0,1-2.8,2.3l-.4.3a14.1,14.1,0,0,0-3.1,3.4,2.4,2.4,0,0,0-.6.8c-1.2,1.7-1.8,4.8-2.3,6.9s-2.7,1.2-2.9,2.2l-15-6.1s-8.3-3.8-9.9-4.9.3-1,.4-1.9-.2-1.8-.7-2.9"/><path class="cls-10" d="M44.7,127.8c-.1-.1-.1-.2-.2-.4a163.9,163.9,0,0,1-6.2-17,11.9,11.9,0,0,1-.3-7c.3-.8.8-1.6,1.2-2.4h0c.7-1.1,1.2-2.3,1.8-3.4a89.2,89.2,0,0,0,4.3-11.2c0-.2.1-.3.1-.5a18.3,18.3,0,0,0,1.1-8c0-.5-.1-1-.1-1.5s-.7-3.7-1.1-5.5c0,0,.4-1.7,1.4-2h.4a4,4,0,0,1,4.2,1.3l.4.5.7.9.3.4.6.9h0a.8.8,0,0,1,.2.4l.2.2v.2a.8.8,0,0,0,.2.4v.5l.2.4h0v.2c0,.2.1.3.1.5h0c.1,0,.1.1.1.2v.6a25.8,25.8,0,0,1-.4,3.8v.6h-.1a3.4,3.4,0,0,1-.1,1v1h0a3.4,3.4,0,0,0-.1,1c0,.4-.1.7-.1,1.1v.2a3.7,3.7,0,0,1-.1,1.1h0v2.3h0v3.5a2.8,2.8,0,0,0,.1.9v.5h0a.4.4,0,0,0,.1.3v.6h.1v.5l.2.4a.7.7,0,0,0,.1.5.6.6,0,0,0,.1.4.8.8,0,0,0,.1.4h0l.2.5h0l.2.5c0,.1.1.2.1.3l.3.8a26.3,26.3,0,0,0,3.9,5.9l.4.5.3.3.3.3.4.4.3.3.7.7.4.3.3.3,2.4,1.8,1,.6h0l.3.2.5.3.3.2h.4l.9.5.8.4.5.2,1.5.7a70.5,70.5,0,0,0,10,3.7l2.2.8.7.3,1.1.5.6.3h.5l1.8,1,.2.3a.2.2,0,0,1,.2.2h.3v.2c.1,0,.1.1.1.2v.3c.1,0,.1.1,0,.1v.3h0v.2h0a.4.4,0,0,1-.1.3v.2c0,.1-.1.2-.1.3v.2a.4.4,0,0,0-.1.3v.2c0,.1-.1.3-.1.4s-.1.1-.1.2a1.9,1.9,0,0,0-.2.7h-.2v.2h-.1c0,.2-.1.3-.1.4v.2h0v.2l-.2.3v.2a7.8,7.8,0,0,0-.5,1.4l-.2.3c0,.1-.1.2-.1.3a22.6,22.6,0,0,1-1.1,2.2,13.5,13.5,0,0,1-2,2.7,20.9,20.9,0,0,1-2.9,2.3l-.5.4a12.4,12.4,0,0,0-3,3.5l-.6.9c-1,1.8-1.6,5.1-2.1,7.2s-3.1.6-3.3,1.5l-14.8-6.1s-7.9-3.7-9.8-5,.3-1.1.4-2.2a5.6,5.6,0,0,0-.7-3.6"/><path class="cls-11" d="M44.9,127.8c-.1-.1-.1-.2-.2-.4a163.9,163.9,0,0,1-6.2-17,11.9,11.9,0,0,1-.3-7c.3-.8.8-1.6,1.2-2.4h0a27.9,27.9,0,0,0,1.8-3.4,89.2,89.2,0,0,0,4.3-11.2c0-.2.1-.3.1-.5a18.3,18.3,0,0,0,1.1-8c0-.5-.1-1-.1-1.5s-.7-3.7-1.1-5.5c0,0,.4-1.7,1.4-2h.4a4,4,0,0,1,4.2,1.3l.4.5.7.9.3.4.6.9h0a.8.8,0,0,1,.2.4c.1.1.1.2.2.2v.2a.8.8,0,0,0,.2.4l.2.3v.2c.1.1.1.2.2.4h0v.2c0,.2.1.3.1.5h0c.1,0,.1.1.1.2v.6a16.9,16.9,0,0,1-.4,3.8v.6h0c-.1.3-.1.7-.2,1v1h0a3.4,3.4,0,0,0-.1,1c0,.4-.1.7-.1,1.1v1.3h0a18.5,18.5,0,0,0-.1,2.3h0v3.5a2.8,2.8,0,0,0,.1.9v.5h0c0,.1.1.2.1.3v.2a.8.8,0,0,0,.1.4h0a.9.9,0,0,0,.1.5.6.6,0,0,0,.1.4.7.7,0,0,0,.1.5.6.6,0,0,0,.1.4c0,.1.1.2.1.4h0l.2.5h0l.2.5c0,.1.1.2.1.3l.3.8a26.3,26.3,0,0,0,3.9,5.9l.4.5.3.3.3.3.4.4.3.3a4.6,4.6,0,0,1,.7.7l.4.3.3.3L65,110l1,.6h0l.3.2.5.3.3.2h.4l.9.5.8.4.5.2,1.5.7a70.5,70.5,0,0,0,10,3.7l2.2.8.7.3,1.1.5.6.3h.5l1.8,1.1.3.2c0,.1.1.1.2.2h.1c.1.1.1.1.1.2h0a.4.4,0,0,1,.1.3v.4c-.1,0-.1.1-.1.2h0v.3h0v.4c0,.1-.1.2-.1.3v.3a.4.4,0,0,0-.1.3c-.1,0-.1.1-.1.2s-.1.2-.1.4-.1.1-.1.2l-.3.6v.2h0v.2a.3.3,0,0,1-.1.2h0c-.1.2-.1.3-.2.4v.2h0c0,.1-.1.1-.1.2s-.1.2-.1.3,0,.2-.1.2a5.8,5.8,0,0,1-.5,1.4l-.2.4c0,.1,0,.2-.1.2a16.3,16.3,0,0,1-1.1,2.3,11.8,11.8,0,0,1-2.2,2.8,23.2,23.2,0,0,1-3,2.2l-.5.4a12,12,0,0,0-2.9,3.8l-.5.9c-1,1.8-1.6,5.4-2,7.4s-3.6.1-3.6.8l-14.8-6s-7.4-3.6-9.6-5.1.3-1.2.4-2.4a6.6,6.6,0,0,0-.8-4.3"/><path class="cls-12" d="M45.1,127.8c-.1-.1-.1-.2-.2-.4a163.9,163.9,0,0,1-6.2-17,11.9,11.9,0,0,1-.3-7c.3-.8.8-1.6,1.2-2.4h0a27.9,27.9,0,0,0,1.8-3.4,89.2,89.2,0,0,0,4.3-11.2.9.9,0,0,0,.1-.5,20,20,0,0,0,1.2-8c-.1-.5-.1-1-.2-1.5s-.7-3.7-1.1-5.5c0,0,.4-1.7,1.4-2h.4a4,4,0,0,1,4.2,1.3l.4.5.7.9.3.4.6.9h0a.8.8,0,0,1,.2.4l.2.2v.2a.8.8,0,0,0,.2.4l.2.3v.2c.1.1.1.2.2.4h0v.2c0,.2.1.3.1.5h0c.1,0,.1.1.1.2v.4a.3.3,0,0,0,.1.2,26.5,26.5,0,0,1-.5,3.8v.6h0a3.4,3.4,0,0,0-.1,1,1.3,1.3,0,0,0-.1.6V83h0a3.4,3.4,0,0,0-.1,1c0,.4-.1.7-.1,1.1v1.3h0a18.5,18.5,0,0,0-.1,2.3h0v3.5a2.8,2.8,0,0,0,.1.9v.5h0c0,.1.1.2.1.3v.2a.8.8,0,0,0,.1.4h0a.9.9,0,0,0,.1.5.6.6,0,0,0,.1.4.7.7,0,0,0,.1.5v.4c0,.1.1.2.1.4h0c.1.1.1.3.2.5h0l.2.5c0,.1.1.2.1.3l.3.8a26.3,26.3,0,0,0,3.9,5.9l.4.5.3.3.3.3.4.4.3.3.7.7.4.3.3.3,2.4,1.8,1,.6h0l.3.2.5.3.3.2h.4l1,.5.7.4.5.2,1.5.7a70.5,70.5,0,0,0,10,3.7l2.2.8.7.3,1.1.5.6.3h.5l1.8,1.1.3.2.2.2v.2h0c.1,0,.1,0,.1.1h.1v.3c0,.1.1.1.1.2v.2a.3.3,0,0,0-.1.2h0v.3h0c0,.1,0,.2-.1.2v1.1c-.1.1-.1.1-.1.2s-.1.3-.2.4v.2l-.3.7v.2h0c0,.1-.1.2-.1.3h0c-.1.2-.1.3-.2.4v.2c-.1,0-.1,0-.1.1h0a6181264102404.8,6181264102404.8,0,0,0-.2.6l-.6,1.4c0,.1-.1.2-.1.4s-.1.1-.1.2l-1.2,2.3a10.4,10.4,0,0,1-2.3,2.8,17.3,17.3,0,0,1-3.1,2.2l-.5.4a11.1,11.1,0,0,0-2.9,4l-.5,1.1a44.5,44.5,0,0,0-1.9,7.6c-.1.5-3.9-.5-3.9.1l-14.6-6s-6.9-3.5-9.5-5.2c-1-.8.4-1.2.5-2.6a10.6,10.6,0,0,0-.9-5.1"/><path class="cls-13" d="M45.3,127.8l-.2-.4a143.2,143.2,0,0,1-6.1-17,11.2,11.2,0,0,1-.4-7c.3-.8.8-1.6,1.2-2.4h0a27.9,27.9,0,0,0,1.8-3.4,89.2,89.2,0,0,0,4.3-11.2l.2-.5a21.8,21.8,0,0,0,1.1-8c-.1-.5-.1-1-.2-1.5s-.7-3.7-1.1-5.5c0,0,.4-1.7,1.5-2h.4a3.9,3.9,0,0,1,4.1,1.3l.4.5.7.9.3.4.6.9h0a.8.8,0,0,1,.2.4l.2.2v.2c.1.1.1.3.2.4l.2.3v.2c.1.1.1.2.2.4h0v.2c0,.2.1.3.1.5h0a.1.1,0,0,0,.1.1v.6c.1,0,.1.1.1.2a26.5,26.5,0,0,1-.5,3.8v.6h0a3.4,3.4,0,0,0-.1,1,1.3,1.3,0,0,0-.1.6V83h0a3.4,3.4,0,0,0-.1,1,4.1,4.1,0,0,1-.1,1.1v1.3h0a18.5,18.5,0,0,0-.1,2.3h0v3.5a2.8,2.8,0,0,0,.1.9v.5h0c0,.1.1.2.1.3v.2a.8.8,0,0,0,.1.4h0a.9.9,0,0,0,.1.5.6.6,0,0,0,.1.4.7.7,0,0,0,.1.5v.4c0,.1.1.2.1.4h0c.1.1.1.3.2.5h0l.2.5c0,.1.1.2.1.3l.3.8a26.3,26.3,0,0,0,3.9,5.9l.4.5.3.3.3.3.4.4.3.3a2.3,2.3,0,0,1,.7.7l.4.3.3.3,2.4,1.8,1,.6h0l.3.2.5.3.4.2h.3l1,.5.7.4.5.2,1.5.7a70.5,70.5,0,0,0,10,3.7l2.2.8.7.3,1.1.5.6.3h.5l1.9,1.1.2.2.2.2c0,.1.1.1.1.2h.2v.7c0,.1-.1.1-.1.2h0v.3h0a.4.4,0,0,1-.1.3v.5c0,.1,0,.2-.1.2a.8.8,0,0,1-.1.4h0l-.2.5v.2l-.3.7c0,.1-.1.1-.1.2h0a.4.4,0,0,0-.1.3h-.1c0,.2-.1.3-.1.4v.2h0l-.2.3a.4.4,0,0,1-.1.3,5.8,5.8,0,0,1-.5,1.4l-.2.4c0,.1-.1.2-.1.3l-1.2,2.4a16.1,16.1,0,0,1-2.4,2.8c-1,.8-2.2,1.4-3.3,2.2l-.5.4a9.7,9.7,0,0,0-2.8,4.2c-.1.4-.3.7-.4,1.1a40.2,40.2,0,0,0-1.8,7.8c-.1.4-4.3-.9-4.3-.6l-14.5-5.9s-6.4-3.4-9.3-5.3c-1.1-.9.4-1.3.5-2.8a10.6,10.6,0,0,0-1-5.9"/><path class="cls-14" d="M45.5,127.8c-.1-.1-.1-.2-.2-.4a143.2,143.2,0,0,1-6.1-17,10.5,10.5,0,0,1-.3-7A12.8,12.8,0,0,1,40,101h.1c.6-1.1,1.2-2.3,1.7-3.4a89.2,89.2,0,0,0,4.3-11.2l.2-.5a21.8,21.8,0,0,0,1.1-8c-.1-.5-.1-1-.2-1.5s-.7-3.7-1.1-5.5c0,0,.4-1.7,1.5-2H48a3.9,3.9,0,0,1,4.1,1.3,1,1,0,0,1,.4.5l.7.9.3.4.6.9h0l.3.4c0,.1,0,.2.1.2v.2c.1.1.1.3.2.4l.2.3v.2c.1.1.1.2.2.4h0v.2l.2.5h0v.4c0,.1,0,.1.1.2v.2a26.5,26.5,0,0,1-.5,3.8v.6h0a3.4,3.4,0,0,0-.1,1,1.3,1.3,0,0,0-.1.6V83h0c0,.3-.1.7-.1,1a4.1,4.1,0,0,1-.1,1.1v1.3h0a18.5,18.5,0,0,0-.1,2.3h0v3.5c0,.3.1.6.1.9v.5h0a.4.4,0,0,1,.1.3v.2a.8.8,0,0,0,.1.4h0a.9.9,0,0,0,.1.5.6.6,0,0,0,.1.4.7.7,0,0,0,.1.5v.4c0,.1.1.2.1.4h0c.1.1.1.3.2.5h0l.2.5c0,.1.1.2.1.3l.3.8a23.6,23.6,0,0,0,4,5.9l.3.5.3.3.3.3.4.4.3.3a2.3,2.3,0,0,1,.7.7l.4.3.3.3,2.4,1.8,1,.6h0l.3.2.5.3.4.2h.3l1,.5.7.4.5.2,1.5.7a70.5,70.5,0,0,0,10,3.7l2.2.8.7.3,1.1.5.6.3h.5a7.6,7.6,0,0,1,1.9,1.2H89l.2.3a.1.1,0,0,1,.1.1h.2a.8.8,0,0,0,.1.4v.2h0a.4.4,0,0,1-.1.3h0v.2h0a.3.3,0,0,1-.1.2v.3a.4.4,0,0,0-.1.3c0,.1-.1.1-.1.2a.4.4,0,0,1-.1.3v.2l-.2.4a.4.4,0,0,1-.1.3,1.9,1.9,0,0,0-.2.7c-.1.1-.1.1-.1.2h-.1v.3a.1.1,0,0,0-.1.1c0,.2-.1.3-.1.4v.2H88v.6l-.6,1.5v.4l-.2.3a14.1,14.1,0,0,1-1.3,2.4,9.2,9.2,0,0,1-2.4,2.8l-3.4,2.2-.6.4a8.7,8.7,0,0,0-2.7,4.5,7.6,7.6,0,0,1-.4,1.1,72.5,72.5,0,0,0-1.6,8.1c-.1.2-4.7-1.5-4.7-1.3l-14.4-5.9s-5.9-3.2-9.1-5.4c-1.3-1,.4-1.4.5-3a13.3,13.3,0,0,0-1-6.6"/><path d="M89.8,121.6h0a.4.4,0,0,1-.1.3h0v.3h0c0,.1,0,.1-.1.2v.4a.4.4,0,0,0-.1.3h-.1a.4.4,0,0,1-.1.3,1.4,1.4,0,0,1-.2.7.3.3,0,0,1-.1.2l-.3.8v.2h-.1c0,.1,0,.2-.1.2v.2a5.6,5.6,0,0,0-.4,1.2.4.4,0,0,0-.1.3l-.9,2.2a14.6,14.6,0,0,1-3.9,5.2,26.7,26.7,0,0,1-3.6,2.2c-2.3,1.6-2.7,3.8-3.5,6.3a80.9,80.9,0,0,0-1.6,8.3l-19.2-7.8s-5.5-3.1-9-5.5c-1.4-1,.5-1.5.6-3.2a15.6,15.6,0,0,0-1.2-7.4c-.1-.1-.1-.2-.2-.4a163.4,163.4,0,0,1-6.1-17,10.5,10.5,0,0,1-.3-7,12.8,12.8,0,0,1,1.1-2.4h.1c.6-1.1,1.2-2.3,1.7-3.4a89.2,89.2,0,0,0,4.3-11.2l.2-.5a21.8,21.8,0,0,0,1.1-8c-.1-.5-.1-1-.2-1.5s-.7-3.7-1.1-5.5c0,0,.4-1.7,1.5-2h.4a3.9,3.9,0,0,1,4.1,1.3l.5.5.6.9.3.4.6.9h0l.3.4v.4c.1.1.1.3.2.4l.2.3v.2l.2.4h0v.2l.2.5h0v.4c0,.1.1.1.1.2v.2a26.5,26.5,0,0,1-.5,3.8v.6h0a3.4,3.4,0,0,0-.1,1c0,.2-.1.4-.1.6V83h0c0,.3-.1.7-.1,1a4.1,4.1,0,0,1-.1,1.1v1.3h0a18.5,18.5,0,0,0-.1,2.3h0v3.5c0,.3.1.6.1.9v.5h0a.4.4,0,0,1,.1.3v.2c0,.1.1.2.1.4h0a.9.9,0,0,0,.1.5.6.6,0,0,0,.1.4,4.3,4.3,0,0,0,.1.5v.4c0,.1.1.2.1.4h0c.1.1.1.3.2.5h0l.2.5c0,.1.1.2.1.3a3,3,0,0,0,.4.8,20.9,20.9,0,0,0,3.9,5.9l.3.5.3.3.3.3a.8.8,0,0,1,.4.4l.3.3a2.3,2.3,0,0,1,.7.7l.4.3.3.3,2.4,1.8,1,.6h0l.3.2.5.3.4.2h.3l1,.5.7.4.5.2,1.5.7a70.5,70.5,0,0,0,10,3.7l2.2.8.7.3,1.1.5.6.3h.5a8.2,8.2,0,0,1,2,1.2l.2.2v.2c.1,0,.1,0,.1.1h.2c0,.1.1.3.1.4Z"/></g><path class="cls-15" d="M89.8,121.7h0v.3h0c0,.1,0,.1-.1.2h0v.2c0,.1-.1.2-.1.3v.4h0a.4.4,0,0,0-.1.3l-.3.7v.2l-.3.8h-.1a.3.3,0,0,0-.1.2v.2c-.1.4-.3.8-.4,1.1v.4l-.9,2.1a12.3,12.3,0,0,1-3.9,5.3,33.7,33.7,0,0,1-3.5,2.2c-2.4,1.6-2.8,3.8-3.6,6.3a72.3,72.3,0,0,0-1.5,8.1l-2.3-.7-3.1-1L62,147.3l-4-1.9-2.6-1.3L53.5,143c-4-2.4-4.2-2.6-7.1-4.5l-1-.7c-.3-.3,1.4-1.2,1.5-2.5a14.5,14.5,0,0,0-1.2-7.4c0-.1-.1-.3-.1-.4-2.6-5.5-4.3-11.2-6.2-17a11.2,11.2,0,0,1-.3-7,13.4,13.4,0,0,1,1.2-2.4h0l1.8-3.5a82.3,82.3,0,0,0,4.3-11.1c0-.2.1-.3.1-.5a20.1,20.1,0,0,0,1.1-8,7.7,7.7,0,0,0-.2-1.5c-.3-1.9-.6-3.7-1-5.5,0,0,.3-1.7,1.4-2h.4a3.7,3.7,0,0,1,4.1,1.2l.5.6.7.9.3.4a5.6,5.6,0,0,0,.5.8.1.1,0,0,0,.1.1.8.8,0,0,0,.2.4c0,.1.1.1.1.2v.2l.3.4c0,.1.1.2.1.3v.2c0,.1.1.2.1.3h0v.2a1.4,1.4,0,0,1,.2.6h0a.4.4,0,0,1,.1.3h0v.2a25.8,25.8,0,0,1-.4,3.9c0,.2-.1.4-.1.6h0c0,.4-.1.8-.1,1.1v.6c0,.1-.1.2-.1.4h0v1a3.7,3.7,0,0,0-.1,1.1v.2c0,.4-.1.8-.1,1.1h0v2.3h0a19.3,19.3,0,0,0,0,3.4v1.2a.4.4,0,0,1,.1.3h0v.3c0,.1,0,.1.1.2v.3h0a.9.9,0,0,1,.1.5v.4a.9.9,0,0,1,.1.5.6.6,0,0,1,.1.4l.2.3h0a4.3,4.3,0,0,1,.1.5h.1c0,.2.1.3.1.4s.1.3.2.4l.3.7a23.8,23.8,0,0,0,3.9,6,.8.8,0,0,0,.4.4l.3.3.3.4.3.3c.1.2.3.3.4.4l.7.7.3.3.4.2a21.1,21.1,0,0,0,2.3,1.9l1,.6h0l.4.2.4.3H68l.4.2.9.5.8.3.4.3,1.5.7c3.2,1.6,6.7,2.5,10.1,3.7l2.2.8.7.3,1,.5.6.3h.6a7.6,7.6,0,0,1,1.9,1.2c.1,0,.1.1.2.2s.1.1.2.2h.2c.1.1.1.2.1.4Z"/><path class="cls-16" d="M89.8,121.6a17.4,17.4,0,0,1-1.3,4.2c-.5,1.7-1,2.1-2.7,2.2H79.7a27.3,27.3,0,0,0-4.1.3c-4.6.9-8.6,4.2-13.2,4.1a7.6,7.6,0,0,1-3.5-1.1,12.5,12.5,0,0,1-1.7-1.6c-2.6-2.6-6.9-3.6-7.6-7.7a23.7,23.7,0,0,1,.2-6.5c.4-3.3.1-6.5.5-9.9s1.2-7.7,1.8-11.5,1.1-7.7,1.4-11.5a37.5,37.5,0,0,0,.2-5.8c0-1.2.4-4.5-.3-5.4a16.2,16.2,0,0,1,2.1,3.6c.6,1.7,0,3.5-.2,5.2a97.1,97.1,0,0,0-.5,12.1,18.4,18.4,0,0,0,1.7,6.8,20.9,20.9,0,0,0,3.9,5.9,27.9,27.9,0,0,0,5.4,4.9c2,1.3,4.1,2.1,6.2,3.2a70.5,70.5,0,0,0,10,3.7,37.1,37.1,0,0,1,4.6,1.9C87.7,119.3,89.8,120.1,89.8,121.6Z"/><path class="cls-17" d="M49.7,77.5l-.3.2a5.5,5.5,0,0,1-1.8.2c-.1-.5-.1-1-.2-1.5s-.7-3.7-1.1-5.5c0,0,.4-1.7,1.5-2A32.9,32.9,0,0,1,49.7,77,.4.4,0,0,1,49.7,77.5Z"/><path class="cls-16" d="M46.9,135.2a14.4,14.4,0,0,0-1.2-6.8c-.1-.1-.1-.3-.2-.4a143.2,143.2,0,0,1-6.1-17,11.2,11.2,0,0,1-.4-7c.3-.8.8-1.6,1.2-2.4h0a17.2,17.2,0,0,0-.1,6,46,46,0,0,0,2.8,9.4,24.9,24.9,0,0,0,2.5,5.2,22.2,22.2,0,0,1,3.6,9v1.3c.1,3.8,5.1,9.8,8.6,12.7,1,.8-6.7-3.6-11.5-6.9-.4-.3-.7-.5-.7-.7S46.8,136.4,46.9,135.2Z"/><path class="cls-18" d="M87.1,129.7a14.6,14.6,0,0,1-3.9,5.2,26.7,26.7,0,0,1-3.6,2.2c-2.3,1.6-2.7,3.8-3.5,6.3a60.3,60.3,0,0,0-1.5,8.3l-1.6-.4c.4-1.3.9-4.8,1.4-6.2a5.6,5.6,0,0,0,.5-3.6c-.4-1.2-2.1-2-3-1.2a31.1,31.1,0,0,1,8-6c2.6-1.2,5.6-2.2,6.8-4.8Z"/><path class="cls-19" d="M49.1,70.5a3.9,3.9,0,0,0-.7,2.6c.1,1.5.4,3.1.6,4.6a20.2,20.2,0,0,1-1.5,10.6,40.2,40.2,0,0,1-2.4,4.6c-.8,1.7-2.3,3-3.1,4.7a89.2,89.2,0,0,0,4.3-11.2l.2-.5a21.8,21.8,0,0,0,1.1-8c-.1-.5-.1-1-.2-1.5s-.7-3.7-1.1-5.5c0,0,.4-1.7,1.5-2h.4a3.9,3.9,0,0,1,4.1,1.3A2.9,2.9,0,0,0,49.1,70.5Z"/><rect class="cls-20" x="32.3" y="56.2" width="95.3" height="49.48" rx="3.7" transform="matrix(0.07, -1, 1, 0.07, -6.54, 154.85)"/><rect class="cls-21" x="32.6" y="56.5" width="94.7" height="48.83" rx="3.4" transform="translate(-6.5 154.9) rotate(-85.9)"/><rect x="37.8" y="57.8" width="84.2" height="46.3" rx="2.7" transform="translate(-6.5 154.9) rotate(-85.9)"/><rect class="cls-22" x="38.2" y="58.1" width="83.6" height="45.73" rx="2.4" transform="translate(-6.6 154.9) rotate(-85.9)"/><g class="cls-23"><path d="M105.6,43h0v-.2h-.1v-.2c0-.1,0-.2-.1-.2v-.2h-.1a.3.3,0,0,0-.1-.2h0c0-.1-.1-.1-.1-.2a.1.1,0,0,1-.1-.1h-.2a.1.1,0,0,1-.1-.1h-1.3l-4.9-.4h0l-14-1h-.4L62.5,37.8H61.2c0,.1-.1.1-.2.2h-.6c0,.1,0,.1-.1.2h-.1c0,.1,0,.2-.1.2h0v.2c-.1,0-.1,0-.1.1h0v.3L55.8,97.7h0l-1.5,21h0v.5h.2l.2.4h.6c0,.1.1.1.1.2h1.1l34.8,2.5,6.1.4c.2.1.4,0,.5,0h.7a.1.1,0,0,0,.1-.1H99a.1.1,0,0,1,.1-.1v-.2h.2c0-.1.1-.1.1-.2v-.2a.8.8,0,0,0,.2-.4h0v-.2h0l.2-2.6v-1.1h0v-3.1h0l.3-3.8.8-11.9.3-4,.3-3.2.2-3.9.2-2.6v-.3l.3-2.8V80.5h0v-.9h0V78.2h0V76.2h0l.2-2.7h0V70.6l.3-4.1h0l.4-5V61l.3-4.1.4-5.5.2-2.8h0V47.3l.2-2.6V43.3h0Zm-.6,4.2v1.3h0l-.2,2.9-.4,5.4L104,61v.5l-.4,4.9-.3,4.2v1.2h0v1.6l-.2,2.6v3.4h0v3.3h0l-.3,2.8v.5l-.2,2.3-.2,4.1-.3,2.9-.2,3.9-.9,12-.2,3-.2,2.6v.4h0l-.2,2.2-.2,2.4h0a2.2,2.2,0,0,1-2.2,2l-6-.5-34.9-2.5a2.1,2.1,0,0,1-1.9-2.2L56,98.4h0l4.2-58.3a2.1,2.1,0,0,1,2.3-2L84,39.7h.4l16.4,1.2h0l2.6.2a1.7,1.7,0,0,1,1.2.5h0a2.3,2.3,0,0,1,.7,1.7v1.4Z"/></g><rect class="cls-24" x="69.3" y="124.1" width="15.1" height="3.17" rx="1.3" transform="translate(9.2 -5.2) rotate(4.1)"/><rect class="cls-25" x="69.3" y="124.1" width="14.8" height="2.88" rx="1.2" transform="translate(9.2 -5.2) rotate(4.1)"/><path class="cls-20" d="M107.2,50h.1a0,0,0,0,1,0,0V63.3a0,0,0,0,1,0,0h-.1a.7.7,0,0,1-.7-.7V50.7A.7.7,0,0,1,107.2,50Z" transform="translate(209.5 120.8) rotate(-175.9)"/><path class="cls-20" d="M57.4,43.6h.1a0,0,0,0,1,0,0v8.9a0,0,0,0,1,0,0h-.1a.7.7,0,0,1-.7-.7V44.3A.7.7,0,0,1,57.4,43.6Z" transform="translate(3.6 -4) rotate(4.1)"/><path class="cls-20" d="M56.6,53.5h.1a0,0,0,0,1,0,0v8.9a0,0,0,0,1,0,0h-.1a.7.7,0,0,1-.7-.7V54.2a.7.7,0,0,1,.7-.7Z" transform="translate(4.3 -3.9) rotate(4.1)"/><rect class="cls-26" x="61.4" y="42.8" width="39" height="50.04" transform="translate(5.1 -5.6) rotate(4.1)"/><rect class="cls-27" x="61.4" y="42.8" width="39" height="50.04" transform="translate(5.1 -5.6) rotate(4.1)"/><g class="cls-23"><polygon class="cls-28" points="125.7 46.7 113.9 102.2 68.9 96.3 80.7 37.8 125.7 46.7"/><polygon class="cls-29" points="125.8 46.6 114 102.2 69 96.3 80.7 37.8 125.8 46.6"/><polygon class="cls-30" points="125.8 46.6 114.1 102.3 69.1 96.2 80.8 37.8 125.8 46.6"/><polygon class="cls-31" points="125.9 46.5 114.2 102.3 69.2 96.2 80.9 37.7 125.9 46.5"/><polygon class="cls-32" points="126 46.5 114.3 102.3 69.3 96.1 81 37.7 126 46.5"/><polygon class="cls-33" points="126.1 46.5 114.4 102.3 69.4 96.1 81.1 37.7 126.1 46.5"/><polygon class="cls-34" points="126.2 46.4 114.5 102.3 69.4 96 81.2 37.6 126.2 46.4"/><polygon class="cls-35" points="126.3 46.4 114.6 102.3 69.5 96 81.2 37.6 126.3 46.4"/><polygon class="cls-36" points="126.4 46.4 114.7 102.3 69.6 95.9 81.3 37.6 126.4 46.4"/><polygon class="cls-37" points="126.4 46.3 114.8 102.3 69.7 95.8 81.4 37.5 126.4 46.3"/><polygon class="cls-38" points="126.5 46.3 114.9 102.3 69.8 95.8 81.5 37.5 126.5 46.3"/><polygon class="cls-39" points="126.6 46.3 115 102.3 69.9 95.7 81.6 37.4 126.6 46.3"/><polygon class="cls-40" points="126.7 46.2 115.1 102.3 70 95.7 81.7 37.4 126.7 46.2"/><polygon class="cls-41" points="126.8 46.2 115.2 102.4 70.1 95.6 81.8 37.4 126.8 46.2"/><polygon class="cls-42" points="126.9 46.1 115.2 102.4 70.2 95.6 81.8 37.3 126.9 46.1"/><polygon class="cls-43" points="126.9 46.1 115.3 102.4 70.3 95.5 81.9 37.3 126.9 46.1"/><polygon class="cls-44" points="127 46.1 115.4 102.4 70.4 95.5 82 37.3 127 46.1"/><polygon class="cls-45" points="127.1 46 115.5 102.4 70.5 95.4 82.1 37.2 127.1 46"/><polygon class="cls-46" points="127.2 46 115.6 102.4 70.6 95.4 82.2 37.2 127.2 46"/><polygon class="cls-47" points="127.3 46 115.7 102.4 70.7 95.3 82.3 37.1 127.3 46"/><polygon class="cls-48" points="127.4 45.9 115.8 102.4 70.8 95.3 82.3 37.1 127.4 45.9"/><polygon class="cls-49" points="127.5 45.9 115.9 102.4 70.9 95.2 82.4 37.1 127.5 45.9"/><polygon class="cls-50" points="127.5 45.9 116 102.4 71 95.2 82.5 37 127.5 45.9"/><polygon class="cls-51" points="127.6 45.8 116.1 102.5 71 95.1 82.6 37 127.6 45.8"/><polygon class="cls-52" points="127.7 45.8 116.2 102.5 71.1 95.1 82.7 37 127.7 45.8"/><polygon class="cls-53" points="127.8 45.7 116.3 102.5 71.2 95 82.8 36.9 127.8 45.7"/><polygon class="cls-54" points="127.9 45.7 116.4 102.5 71.3 95 82.9 36.9 127.9 45.7"/><polygon class="cls-55" points="128 45.7 116.5 102.5 71.4 94.9 82.9 36.9 128 45.7"/><polygon class="cls-56" points="128 45.6 116.6 102.5 71.5 94.9 83 36.8 128 45.6"/><polygon class="cls-57" points="128.1 45.6 116.7 102.5 71.6 94.8 83.1 36.8 128.1 45.6"/><polygon class="cls-58" points="128.2 45.6 116.7 102.5 71.7 94.8 83.2 36.7 128.2 45.6"/><polygon class="cls-59" points="128.3 45.5 116.8 102.5 71.8 94.7 83.3 36.7 128.3 45.5"/><polygon class="cls-60" points="128.4 45.5 116.9 102.5 71.9 94.7 83.4 36.7 128.4 45.5"/><polygon class="cls-61" points="128.5 45.5 117 102.5 72 94.6 83.4 36.6 128.5 45.5"/><polygon class="cls-62" points="128.6 45.4 117.1 102.6 72.1 94.6 83.5 36.6 128.6 45.4"/><polygon class="cls-63" points="128.6 45.4 117.2 102.6 72.2 94.5 83.6 36.6 128.6 45.4"/><polygon class="cls-64" points="128.7 45.3 117.3 102.6 72.3 94.5 83.7 36.5 128.7 45.3"/><polygon class="cls-65" points="128.8 45.3 117.4 102.6 72.4 94.4 83.8 36.5 128.8 45.3"/><polygon class="cls-66" points="128.9 45.3 117.5 102.6 72.5 94.4 83.9 36.5 128.9 45.3"/><polygon class="cls-67" points="129 45.2 117.6 102.6 72.6 94.3 84 36.4 129 45.2"/><polygon class="cls-68" points="129.1 45.2 117.7 102.6 72.6 94.3 84 36.4 129.1 45.2"/><polygon class="cls-69" points="129.1 45.2 117.8 102.6 72.7 94.2 84.1 36.3 129.1 45.2"/><polygon class="cls-70" points="129.2 45.1 117.9 102.6 72.8 94.2 84.2 36.3 129.2 45.1"/><polygon class="cls-71" points="129.3 45.1 118 102.6 72.9 94.1 84.3 36.3 129.3 45.1"/><polygon class="cls-72" points="129.4 45.1 118.1 102.7 73 94.1 84.4 36.2 129.4 45.1"/><polygon class="cls-73" points="129.5 45 118.1 102.7 73.1 94 84.5 36.2 129.5 45"/><polygon class="cls-74" points="129.6 45 118.2 102.7 73.2 94 84.5 36.2 129.6 45"/><polygon class="cls-75" points="129.7 44.9 118.3 102.7 73.3 93.9 84.6 36.1 129.7 44.9"/><rect x="72.1" y="46.4" width="58.9" height="45.88" transform="translate(14 155.7) rotate(-78.9)"/></g><rect class="cls-76" x="72.1" y="46.4" width="58.9" height="45.88" transform="translate(14 155.7) rotate(-78.9)"/><path class="cls-77" d="M85.9,43.5l42.5,8.3,1-5.3L86.9,38.2a2,2,0,0,0-2.5,1.6L84.2,41A2.1,2.1,0,0,0,85.9,43.5Z"/><path class="cls-77" d="M79.6,81.2l25.7,5,1-5.3L80.6,75.8A2.3,2.3,0,0,0,78,77.6l-.2.9A2.3,2.3,0,0,0,79.6,81.2Z"/><path class="cls-77" d="M119.4,59.8l-25.7-5,1.1-5.4,25.7,5.1a2.1,2.1,0,0,1,1.7,2.6V58A2.4,2.4,0,0,1,119.4,59.8Z"/><path class="cls-77" d="M82.5,62.3l28.9,5.6,1-5.3L83.6,57a2.2,2.2,0,0,0-2.7,1.7v1A2.1,2.1,0,0,0,82.5,62.3Z"/><path class="cls-77" d="M120.1,79.4,85.2,72.6l1.1-5.4L121.1,74a2.4,2.4,0,0,1,1.8,2.7l-.2.9A2.3,2.3,0,0,1,120.1,79.4Z"/><path class="cls-78" d="M96.6,94.8Z"/><path class="cls-79" d="M114.8,85.9a3.1,3.1,0,0,0,.1,2.8,9,9,0,0,1,.8,2.8,3.8,3.8,0,0,1-2.4,3.2,14,14,0,0,1-4.1.6l-10.4.2h-.5L88,93.9a10.8,10.8,0,0,1-4-1.1,3.5,3.5,0,0,1-2-3.4,6.2,6.2,0,0,1,1.2-2.6c.4-.9.8-2,.3-2.8a12.1,12.1,0,0,0-1-1.4c-.5-1.1.2-2.5,1-3.5s1.9-2.6,1-4.1l-1.2-1.2c-2.6-2.5,1.1-4.5,1-7.1s-.6-2.1-.8-3.2a3.6,3.6,0,0,1,.8-3c.7-.9,1.7-1.9,1.8-3.1s-.1-1.9,0-2.8a4.5,4.5,0,0,1,1-2.7,4.8,4.8,0,0,1,3.6-2.6q3.1-.6,6.3-.9a48.3,48.3,0,0,1,12.6.7c1.7.3,3.7.6,4.6,2.2s1.9,3.5,1.8,5.1-.4,1.9-.4,2.8.8,2.3,1.4,3.3a3.4,3.4,0,0,1,.4,3.1,16.6,16.6,0,0,0-1.2,3.1c-.4,2.5,3,5,.2,7.1L115,76.9c-1.1,1.4-.4,3,.4,4.2s1.3,2.5.6,3.6A6.8,6.8,0,0,1,114.8,85.9Z"/><path class="cls-80" d="M96.4,94.7h0Z"/><path class="cls-81" d="M116.2,101.9v.3L76.7,94.5v-.3a17.5,17.5,0,0,1,3.6-7.5,16.6,16.6,0,0,1,15.7-5.4l7.1,1.4a14.2,14.2,0,0,1,5.3,2l2.4,1.7.8.7a16.6,16.6,0,0,1,4.2,7.4A15.4,15.4,0,0,1,116.2,101.9Z"/><path class="cls-82" d="M106.7,88a2.3,2.3,0,0,1-1.8,1.1h-1a1.4,1.4,0,0,0-.8.7c-.2.5-.2,1-.4,1.5a2.9,2.9,0,0,1-1,1.2l-1.3.4A4.5,4.5,0,0,0,99.1,94c-.6.5-1.5.7-2.1,1.3h-.1c-.3-.7-1.1-1.3-1.4-2a7.1,7.1,0,0,0-.8-1.5l-1.1-.9a2.7,2.7,0,0,1-.5-1.4c0-.6.2-1.1.2-1.6a1.4,1.4,0,0,0-.5-1c-.2-.2-.6-.2-.9-.4a2.3,2.3,0,0,1-1.3-1.7,1.8,1.8,0,0,1,1-1.8l.8-.5a1,1,0,0,0,0-.9,3.2,3.2,0,0,0-.3-.9,1.9,1.9,0,0,1,1.3-2.3,3.4,3.4,0,0,1,1.5-.2h1.5l1.9.2,3.6.7,1.6.5h.8l1,.3a2.9,2.9,0,0,1,1.3.8,1.9,1.9,0,0,1,.3,2.6l-.6.7a.9.9,0,0,0-.3.9c.1.3.4.5.6.8A1.8,1.8,0,0,1,106.7,88Z"/><path class="cls-81" d="M104.3,87a1.9,1.9,0,0,1-1.3,1.2h-.7a1.1,1.1,0,0,0-.6.7c-.2.5-.2,1-.4,1.5a2.5,2.5,0,0,1-.8,1.2l-.9.5c-.4.3-.6.8-1,1.1s-1.1.9-1.5,1.4v0a10.1,10.1,0,0,0-.9-1.8,6.6,6.6,0,0,0-.4-1.5c-.2-.3-.6-.5-.7-.8a6.1,6.1,0,0,1-.3-1.3c0-.6.2-1,.2-1.6a1.3,1.3,0,0,0-.2-.9c-.2-.2-.4-.2-.6-.3a1.8,1.8,0,0,1-.8-1.6,2,2,0,0,1,.7-1.8c.2-.2.5-.3.6-.6a2.8,2.8,0,0,0,.1-.9,2.9,2.9,0,0,0-.2-.9,2.6,2.6,0,0,1,1-2.3l.5-.2h.4l1.9.2,3.6.7,1.6.5h.8l.3.3a2.5,2.5,0,0,1,.1,2.5,3.5,3.5,0,0,0-.5.8,1.1,1.1,0,0,0-.3.8c.1.3.3.5.4.8A2.1,2.1,0,0,1,104.3,87Z"/><path class="cls-83" d="M103.9,79.8l-.8,4.3c-.3,1.6-6.1,11-6.1,11s-1.8-10.9-1.5-12.5l.8-4.3,1.9.2,3.5.7,1.7.5Z"/><path class="cls-84" d="M91.3,64.6c-.1,1.8-1.3,3.1-2.7,3s-2.4-1.6-2.3-3.3,1.3-3.2,2.7-3.1S91.4,62.8,91.3,64.6Z"/><path class="cls-85" d="M110.9,65.8c-.2,1.8.9,3.3,2.2,3.4s2.6-1.3,2.7-3.1-.9-3.3-2.3-3.4S111,64,110.9,65.8Z"/><path class="cls-86" d="M97,95.1h0s-1-10.7-.7-12.4l1.2-5.6,5.8,1.1-1.1,5.7C101.9,85.5,97,95.1,97,95.1Z"/><ellipse class="cls-87" cx="101.2" cy="63.6" rx="15.7" ry="12.1" transform="translate(31.5 160.6) rotate(-86.4)"/><path class="cls-88" d="M114.5,62.6a2.5,2.5,0,0,1,0-1.7l.3-.5a3.2,3.2,0,0,0,.3-1.4c-.1-.5-.4-.9-.5-1.4a3.4,3.4,0,0,1,.2-2,3.7,3.7,0,0,0,.5-2.3,7.9,7.9,0,0,0-1-3.3,10.6,10.6,0,0,0-10.1-5.2,4.5,4.5,0,0,0-2.8,1.2c.2-.2-2.1-1.1-2.3-1.2-4.6-1.7-9.6,1.5-11.3,5.9a4.4,4.4,0,0,0-.2,3.2,2.7,2.7,0,0,1-.1,2,8.4,8.4,0,0,0-.6,1.4,2.3,2.3,0,0,0,.1,1.4.8.8,0,0,1,.2.5,2.6,2.6,0,0,1-.2,1.7l-.3.6c0,.1,0,.4-.1.4a.8.8,0,0,1,.8-.1c.8.2.7,1.1.7,1.8s-.3,2.7.3,4l.6,1.1a3.6,3.6,0,0,1-.8,3.8,2.9,2.9,0,0,0,1.9-2.7,5.9,5.9,0,0,0-.5-1.9,2.4,2.4,0,0,1,.2-1.9c.2-.4.6-.6.8-1s-.1-2.6.4-3.7l.4-.5,4.7.2a14.8,14.8,0,0,0,.1-2.1l.5,2,4.1.4V60.1l.3.8a8.4,8.4,0,0,1,.5-3.1c.1,1.2.3,2.4.4,3.6l4.6.3V60.6l.3,1.1h3.1l.3.6c.4,1.2-.7,2.6-.1,3.8a8.6,8.6,0,0,1,.7,1,2.1,2.1,0,0,1-.1,1.9,10.6,10.6,0,0,0-.6,1.9,2.7,2.7,0,0,0,1.5,2.8,3.3,3.3,0,0,1-.3-3.8,8.6,8.6,0,0,1,.7-1,9,9,0,0,0,.8-4c.1-.6.1-1.6.9-1.7a1.1,1.1,0,0,1,.8.3c-.1-.1,0-.3-.1-.5A1.4,1.4,0,0,0,114.5,62.6Z"/><path class="cls-89" d="M108.3,94.6c.2-.1.4,0,.7.1l.8.3,1.6.7.5.2.7.4,1,.5c.1.1.4.3.3.5a.4.4,0,0,1-.4.4h-.6l-.9-.2-.8-.2a7.5,7.5,0,0,1-1.3-.6l-.8-.2c-.3-.1-.6-.2-.7-.5a.4.4,0,0,0-.1-.3c-.1-.2-.4-.3-.4-.6A.7.7,0,0,1,108.3,94.6Z"/><path class="cls-90" d="M108.3,94.6c.2-.1.4,0,.7.1l.8.3,1.6.7.5.2.7.4,1,.5c.1.1.4.3.3.5a.4.4,0,0,1-.4.4h-.6l-.9-.2-.8-.2a7.5,7.5,0,0,1-1.3-.6l-.8-.2c-.3-.1-.6-.2-.7-.5a.4.4,0,0,0-.1-.3c-.1-.2-.4-.3-.4-.6A.7.7,0,0,1,108.3,94.6Z"/><path class="cls-91" d="M120.3,87.2a12,12,0,0,1-1.1,2.3l-.2.3a13.2,13.2,0,0,1-1.2,2l-.8,1-.5.6-.3.3-.7.7-.4.4h-.2a9.4,9.4,0,0,0-1,1c-.2.3-.7,1.3-1.3,2.6l-.4.7c-.3.6-.5,1.2-.8,1.7l-5.6-1.1,2.1-3.5.4-.7a2.9,2.9,0,0,1,.4-.8v-.3h0a.4.4,0,0,0,.1-.3c.3-1.2-.2-2.3-.4-3.4v-.4c0-.1-.1-.2-.1-.3V89c0-.5.1-.9.1-1.4a9,9,0,0,0-.3-1.6c-.1,0-.1-.1-.1-.2H108v-.3c0-.1,0-.3.1-.3l.2-.2h.1a.3.3,0,0,1,.4,0h.3a1.8,1.8,0,0,1,1,1.1,5.6,5.6,0,0,1,.4,1.2h0c.1.2.1.4.2.5h0c.1,0,.1,0,.1-.1h.2c0-.1.1-.1.1-.2a3.9,3.9,0,0,0,.6-1.1,9.1,9.1,0,0,1,.7-1.4,10.9,10.9,0,0,1,.8-1.5c.3-.4.5-1,.9-1.3h.3a.4.4,0,0,1,.5.1.9.9,0,0,1,.1.5,4.6,4.6,0,0,1-.5,2,7.4,7.4,0,0,0-.4,1.4,2.1,2.1,0,0,0-.3.7c.1.1.2.1.2,0h.1c.3-.6.7-1.3,1-2h0l.2-.4.3-.5.7-1.4c.2-.3.8-1.2,1.3-.9l.3.5h0v.4a4.1,4.1,0,0,1-.4,1.6h0c-.1.2-.1.4-.2.5h0l-.4.9a2.8,2.8,0,0,0-.4.7,11.1,11.1,0,0,0-.7,1.6,3.1,3.1,0,0,0,.7-.9l.6-1.2.2-.3h0c0-.1.1-.1.1-.2h.1v-.2c.3-.5.8-1.7,1.5-1.6h.3a1.5,1.5,0,0,1,.1.7v.2h0a2.6,2.6,0,0,1-.3,1.1,11.5,11.5,0,0,1-.9,1.9l-.7,1.5h.1a5.2,5.2,0,0,1,2.1-2.3h0a.1.1,0,0,1,.1-.1h.2A.7.7,0,0,1,120.3,87.2Z"/><path class="cls-92" d="M113.9,97.2c0,.3,0,.4-.3.6l-.6.6-.3.5-1.2,2.4h0l-6.3-1.2,1.6-2.5a7.1,7.1,0,0,0,.8-1.5,1.9,1.9,0,0,0,.2-.8.4.4,0,0,1,.1-.3v-.2a.7.7,0,0,0,.2.6h.1l1,.4.5.6.3.2.4.2h1.7l.5.3.2.2h.1a.9.9,0,0,0,.7,0A.5.5,0,0,0,113.9,97.2Z"/><path class="cls-93" d="M110.8,88.9a5.1,5.1,0,0,1,1.3,4.1l1.1-.8a13.9,13.9,0,0,1,3.6-1.2l-2.1-.4-.7-.2c-1-.3-1.7-1.2-2.6-1.7l-.3-.2-.3.2Z"/><path class="cls-82" d="M94.5,96.3a.4.4,0,1,1-.3-.5C94.4,95.8,94.5,96,94.5,96.3Z"/><path class="cls-82" d="M95.2,96c-.2-.1-.4.1-.5.3s.2.5.4.5a.5.5,0,0,0,.5-.3C95.6,96.2,95.5,96,95.2,96Zm.3.5a.3.3,0,0,1-.4.2c-.2,0-.3-.2-.3-.4s.2-.3.4-.3A.5.5,0,0,1,95.5,96.5Z"/><path class="cls-82" d="M96.3,96.2c-.2-.1-.4.1-.5.3s.1.5.3.5a.4.4,0,0,0,.2-.8Zm.3.5c-.1.1-.3.3-.4.2s-.4-.2-.3-.4.2-.3.4-.2S96.6,96.5,96.6,96.7Z"/><path class="cls-82" d="M97.4,96.4a.4.4,0,1,0-.2.8.4.4,0,0,0,.2-.8Zm.2.5c0,.2-.2.3-.4.2s-.3-.2-.2-.4.2-.3.4-.2A.3.3,0,0,1,97.6,96.9Z"/><path class="cls-82" d="M98.4,96.6c-.2-.1-.4.1-.5.3s.1.5.4.5.4-.1.5-.3S98.7,96.6,98.4,96.6Zm.3.5c0,.2-.2.3-.4.3a.5.5,0,0,1-.3-.5c.1-.1.2-.3.4-.2S98.7,96.9,98.7,97.1Z"/><path class="cls-94" d="M109.7,96.7h-.1a1.4,1.4,0,0,0-.5.8,2.5,2.5,0,0,1-.4.9h-.1a5,5,0,0,1,.2-1.2,2.4,2.4,0,0,0-.2-.8,1.3,1.3,0,0,0-.4-.7h.1l1,.4C109.4,96.2,109.8,96.6,109.7,96.7Z"/><path class="cls-95" d="M112.6,97.5l-.4.6a2.5,2.5,0,0,0-.4.9,3.6,3.6,0,0,1-.4,1.1c0,.1-.1.2-.1.3l-.3.2a.4.4,0,0,1-.4-.4,1.4,1.4,0,0,1,.2-.6l.2-.4a2,2,0,0,0-.1.7c.1.1.2,0,.2-.1a8.5,8.5,0,0,0,.6-1.7,1.3,1.3,0,0,0-.1-.6c-.1-.1-.5-.1-.6-.3s.3,0,.4,0h.8A.5.5,0,0,1,112.6,97.5Z"/><path class="cls-96" d="M106.4,72a.7.7,0,0,1,.7.9l-.6,1.3a6.5,6.5,0,0,1-5.8,2.6,6.6,6.6,0,0,1-4.7-2,4.4,4.4,0,0,1-1.3-2.5.6.6,0,0,1,.7-.8Z"/><path class="cls-97" d="M106.8,72.9a3.4,3.4,0,0,1-.6,1.2,6.3,6.3,0,0,1-5.7,2.5,7.7,7.7,0,0,1-4.6-1.9,4.6,4.6,0,0,1-1.2-2.4.6.6,0,0,1,.7-.8l10.8.5A.7.7,0,0,1,106.8,72.9Z"/><path class="cls-98" d="M106.2,74.1a6.3,6.3,0,0,1-5.7,2.5,7.7,7.7,0,0,1-4.6-1.9,7.1,7.1,0,0,1,10.3-.6Z"/><path class="cls-82" d="M105.4,72v.7a.9.9,0,0,1-.8.8l-7.8-.4a.8.8,0,0,1-.7-.9v-.7Z"/><path class="cls-99" d="M105.4,72v.7a.9.9,0,0,1-.8.8l-7.8-.4a.8.8,0,0,1-.7-.9v-.7Z"/><path class="cls-100" d="M105.4,72v.7a.9.9,0,0,1-.8.8l-7.8-.4a.8.8,0,0,1-.7-.9v-.7Z"/><path class="cls-96" d="M97.1,66a1.9,1.9,0,0,1-3.8-.1,1.9,1.9,0,0,1,2-1.8A1.9,1.9,0,0,1,97.1,66Z"/><path class="cls-101" d="M96.8,65.9A1.6,1.6,0,0,1,95,67.5a1.7,1.7,0,0,1-1.7-1.8A1.9,1.9,0,0,1,95.2,64,1.8,1.8,0,0,1,96.8,65.9Z"/><path class="cls-102" d="M96.2,65.8A1.3,1.3,0,0,1,95,66.9a1.1,1.1,0,0,1-1-1.2,1,1,0,0,1,1.1-1A1.1,1.1,0,0,1,96.2,65.8Z"/><path class="cls-82" d="M96.4,65.3a.6.6,0,1,1-.5-.6A.6.6,0,0,1,96.4,65.3Z"/><path class="cls-96" d="M108,66.6a1.9,1.9,0,0,1-2,1.7,1.8,1.8,0,0,1-1.8-1.9,1.9,1.9,0,0,1,2-1.8A2,2,0,0,1,108,66.6Z"/><circle class="cls-103" cx="106" cy="66.3" r="1.8"/><path class="cls-102" d="M107.1,66.3a1.2,1.2,0,0,1-1.2,1.1,1.1,1.1,0,0,1-1-1.2,1,1,0,0,1,1.1-1A1.1,1.1,0,0,1,107.1,66.3Z"/><path class="cls-82" d="M107.3,65.8a.6.6,0,0,1-.6.5.5.5,0,0,1-.5-.5.6.6,0,0,1,.6-.6C107,65.3,107.3,65.5,107.3,65.8Z"/><path class="cls-104" d="M100.2,69.1v-.2a.9.9,0,0,0,.1-.5,10.9,10.9,0,0,0,.2-3.6,8.4,8.4,0,0,1-.7,2.6c-.3,1-.6,2.5.4,3.1a1.4,1.4,0,0,0,1.1.3l-.3-.2a1.2,1.2,0,0,1-.8-1.1Z"/><path class="cls-18" d="M57.4,126.8H55.6a3.5,3.5,0,0,1-3.2-3.7l6.3-87.6a3.5,3.5,0,0,1,3.7-3.2h1.8a3.5,3.5,0,0,0-3.7,3.2l-6.3,87.6A3.5,3.5,0,0,0,57.4,126.8Z"/><g class="cls-3"><path class="cls-28" d="M145.1,140.7l-21,10.6-2.2-4.6h0s-5.2-2-7.8-4.8l-1.6-1.6-.5-.4-.2-.2-.6-.5-1.3-1.1h-.2l-.5-.4-1.2-.8c-1.4-1.1-2.9-.8-4-3.7l-.5-1v-.5l-.3-.5c-.1-.2-.2-.3-.2-.4l-.3-.4v-.2l-.2-.3-.3-.4a.8.8,0,0,1-.2-.4,2.1,2.1,0,0,1-.4-.6l-.3-.4-.9-1.3-.3-.3-.9-1.3-.2-.3-.3-.4h-.1a5.8,5.8,0,0,1-.7-1.1V123h-.1c0-.1-.1-.2-.1-.3h-.1c0-.1-.1-.2-.1-.3h-.2c0-.1-.1-.2-.1-.4h0c0-.1-.1-.2-.1-.3h0a1.9,1.9,0,0,1-.2-.7.6.6,0,0,1-.1-.4h-.1c-.4-1.4-.7-2.8-1-4s-.1-.2-.1-.3-.1-.8-.2-1.1a1.1,1.1,0,0,1,0-.8h.1a.5.5,0,0,1,.3-.5h.1a.5.5,0,0,1,.5-.3h2.2a3.4,3.4,0,0,1,1.1.5h.3a11.7,11.7,0,0,1,3.3,3.4,13.2,13.2,0,0,1,1.1,3.8s2.9,1.3,3.8,3.5c.1,0,.1,0,.1.1h0l1.1.4h.3l.5.2h.3a1.7,1.7,0,0,0,1.2.1h.1l.3-.4a10.3,10.3,0,0,0,.1-1.9v-.4a2,2,0,0,1-.1-.7.4.4,0,0,0-.1-.3V120a13.6,13.6,0,0,0-.2-2c0-.4-.1-.9-.1-1.3s-.1-.9-.2-1.3l-.6-3.3a23.3,23.3,0,0,0-.7-2.5.9.9,0,0,0-.1-.5c-.1-.5-.3-.9-.4-1.4a26.7,26.7,0,0,1-.8-4.8c0-.4-.1-.8-.1-1.1V101h0c-.1-.1-.1-.1-.1-.2v-.3h0l-.3-.4-.2-.3a4.3,4.3,0,0,0-.4-.7v-.2c0-.1-.1-.1-.1-.2a7.7,7.7,0,0,1-.7-1.6h0v-.2a41.9,41.9,0,0,1-1.1-5.1v-.3a.4.4,0,0,0-.1-.3v-.3H105v-.2l-.3-.4-.2-.2v-.2l-.7-1-.4-.8-.3-.8a.1.1,0,0,1-.1-.1c-.1-.2-.1-.5-.2-.8v-.2h0c0-.2-.1-.4-.1-.6a7.8,7.8,0,0,1-.2-1.6.6.6,0,0,0-.1-.4,13.3,13.3,0,0,1,0-2h0a2.2,2.2,0,0,1,.1-.8,1.3,1.3,0,0,1,.1-.6l.3-.6.2-.3a.8.8,0,0,1,.4-.4h.1l.5-.4a.1.1,0,0,0,.1-.1h.2a9.7,9.7,0,0,1,1.7-.9h.1l.3.7,1.5,3.3h0c.6,1.2,1.1,2.4,1.7,3.7a5.9,5.9,0,0,0,.4.8l.7,1.8.3.5.2.5c.2.5.5,1.1.7,1.7v.2l.9,1.9.7,1.8.8,1.8,1,2.4a11.7,11.7,0,0,1,.5,1.1c.6,1.7,1.1,3.8,2.9,4.7l.5.2h.6a11.3,11.3,0,0,0,1.8.3l1.2.2a2.6,2.6,0,0,1,1.4,1.1c.2.2.2.5.4.7a.1.1,0,0,1,.1.1l.8.2H127l1.1.2a2.5,2.5,0,0,1,2,1.6h0l.3.5a1.3,1.3,0,0,0,.9.2h.1a7.1,7.1,0,0,1,2.9.5h.3l.6.5a3.3,3.3,0,0,1,1.1,1.5h0l.3.8v.2h.4a.1.1,0,0,1,.1.1h.6a2.1,2.1,0,0,1,.3.7,62.1,62.1,0,0,1,3.4,16.5c.1,1.6.1,3.1.2,4.3s.1.7.1,1,.1.7.1,1,.1.4.1.6.1.4.1.6.1.4.1.6a8.2,8.2,0,0,0,1,2.4c.2.3,0,.3.1.6S143.3,137.5,145.1,140.7Z"/><path class="cls-105" d="M102.6,80l.3-.6c0-.1.1-.2.2-.3l.4-.5h0l.6-.4h.3a7.1,7.1,0,0,1,1.7-.9h.1l.3.6a.3.3,0,0,0,.1.2c.4,1,.9,2,1.4,3h0l.3.6h0l1.3,3a2,2,0,0,1,.4.8l.2.4a3.6,3.6,0,0,0,.4.9.8.8,0,0,0,.2.4,1.4,1.4,0,0,0,.2.6c.1.1.1.3.2.4l.3.6a1.9,1.9,0,0,1,.2.7l.3.5h0c.2.5.5,1,.7,1.6l.2.4.7,1.8a8.9,8.9,0,0,1,.8,1.7l.7,1.6.3.8a11.7,11.7,0,0,0,.5,1.1c0,.2.1.3.1.4a7.6,7.6,0,0,1,.4,1.1,5.7,5.7,0,0,0,2.4,3.3l.5.2h2.4l1.1.3,1,.5a1.2,1.2,0,0,1,.5.5l.5.7h.1c.1.2.4.2.7.3h2.6l.7.2a2.6,2.6,0,0,1,1.4,1.3h0c.1.2.1.4.3.5h0l.4.2h1a6.1,6.1,0,0,1,2.4.4l.3.2.4.2.3.2.2.3a3,3,0,0,1,.9,1.3h0l.3.6h.1a.1.1,0,0,1,.1.1h.4c0,.1,0,.1.1.1h.5l.3.6a58.3,58.3,0,0,1,3.3,16.4.9.9,0,0,1,.1.5c.1,1.4.1,2.7.2,3.9v.5c0,.2.1.3.1.5v.5c0,.2.1.3.1.4a10998156482168.2,10998156482168.2,0,0,0,.2,1.2c0,.2.1.4.1.6a1.4,1.4,0,0,0,.2.6,13.4,13.4,0,0,0,.7,1.8c.2.3,0,.3.2.6s.3.2.3-.1,0-3.1,1.1-.9l-20.6,10.5-2-4.3h0l-.2-.4h0a23.8,23.8,0,0,1-7.7-4.5v-.2l-1.5-1.5h-.2l-.3-.3H112l-.5-.5h-.1l-1.3-1.1h-.2l-.5-.4-1.2-.9c-1.4-1-2.9-.7-4-3.6l-.5-1v-.5l-.3-.5-.3-.4-.2-.4v-.2l-.3-.3a.5.5,0,0,0-.2-.4l-.3-.4-.4-.6-.2-.4-.9-1.3-.3-.3c-.3-.5-.7-.9-.9-1.3s-.2-.2-.2-.3l-.3-.4h0v-.2a3.7,3.7,0,0,1-.7-1V123h-.1a.4.4,0,0,1-.1-.3h-.1a.4.4,0,0,1-.1-.3h0v-.2h0a.1.1,0,0,1-.1-.1h0c0-.1-.1-.2-.1-.4h0a.4.4,0,0,1-.1-.3h0a1.9,1.9,0,0,1-.2-.7.6.6,0,0,1-.1-.4h-.1a38.9,38.9,0,0,1-1-4c0-.1-.1-.2-.1-.3a5.2,5.2,0,0,1-.2-1.1,1.1,1.1,0,0,1,0-.8h0a1,1,0,0,1,.4-.5h.1a1,1,0,0,1,.5-.4h2.1l1.2.6h.3a11.7,11.7,0,0,1,3.3,3.4,13.2,13.2,0,0,1,1.1,3.8s2.9,1.3,3.8,3.5h.1l1.1.4h.2l.6.2h.2a3.1,3.1,0,0,0,1.3.1h.1l.3-.4a10.3,10.3,0,0,0,.1-1.9c0-.2-.1-.3-.1-.4V120c-.1-.7-.1-1.3-.2-2s-.1-.9-.1-1.3-.1-.9-.2-1.3l-.6-3.3a23.3,23.3,0,0,0-.7-2.5,4.3,4.3,0,0,0-.1-.5c-.1-.5-.3-.9-.4-1.4a26.4,26.4,0,0,1-.8-4.9,3.4,3.4,0,0,1-.1-1v-.2a1.3,1.3,0,0,0-.1-.6h0v-.2a.4.4,0,0,1-.1-.3h0l-.3-.5-.2-.3-.4-.6v-.4a7.7,7.7,0,0,1-.7-1.6h0v-.2a22.1,22.1,0,0,1-1.1-5.1v-.9c-.1,0-.1,0-.1-.1h0v-.2a.8.8,0,0,0-.2-.4l-.2-.2-.2-.3-.6-.9-.4-.8a3,3,0,0,1-.4-.8h0a2.4,2.4,0,0,1-.2-.8c0-.1-.1-.1-.1-.2h0a1.3,1.3,0,0,1-.1-.6,7.8,7.8,0,0,1-.2-1.6v-.4c0-.7-.1-1.4-.1-2h0a2.2,2.2,0,0,0,.1-.8C102.5,80.4,102.5,80.2,102.6,80Z"/><path class="cls-106" d="M102.8,80l.3-.6c0-.1.1-.2.2-.3l.3-.5h.1l.6-.4h.3a5.6,5.6,0,0,1,1.7-.9h0a.1.1,0,0,1,.1.1l.3.6h0c.5,1,1,2,1.4,3h0l.3.7h0l1.4,3,.3.8c.1.1.1.2.2.4l.4.9.2.4a1.4,1.4,0,0,1,.2.6.5.5,0,0,1,.2.4l.3.6.3.6c0,.2.1.3.2.5h0a11.1,11.1,0,0,1,.7,1.6l.2.4a14.2,14.2,0,0,0,.8,1.8c.2.6.5,1.1.7,1.7a12.2,12.2,0,0,1,.7,1.7l.4.8c.1.3.3.7.4,1.1s.1.3.2.4a7.6,7.6,0,0,0,.4,1.1,6,6,0,0,0,2.3,3.3l.5.3h2.4l1.1.2,1,.5.6.6.4.7h.1a.9.9,0,0,0,.7.3.1.1,0,0,0,.1.1h2.5l.7.2a2.7,2.7,0,0,1,1.5,1.3h0l.2.5h0l.5.3h1a6.7,6.7,0,0,1,2.4.4l.3.2.3.2.3.2.3.2a2.6,2.6,0,0,1,.8,1.3h0a.1.1,0,0,1,.1.1h0a6.4,6.4,0,0,0,.2.7h.3c0,.1,0,.1.1.1h.8a2.5,2.5,0,0,1,.4.7,57.6,57.6,0,0,1,3.3,16.4c0,.2,0,.3.1.4s.1,2.8.2,3.9v1a1.3,1.3,0,0,1,.1.6.8.8,0,0,0,.1.4v.6a1.3,1.3,0,0,1,.1.6c.1.2.1.4.2.5s.1.4.1.6a14.2,14.2,0,0,0,.8,1.8c.1.3,0,.4.2.7s.2.1.2-.1,0-2.7.8-.7c-.9.6-20.2,10.2-20.2,10.2l-2.1-4.2h0s-.1-.4-.2-.4h0c-.2-.1-5.1-1.9-7.6-4.5l-.2-.2-1.5-1.5h-.1l-.3-.3h-.3c-.2-.2-.4-.3-.5-.5h-.1l-1.3-1h-.2l-.5-.4-1.2-.9c-1.4-1-2.9-.7-4-3.6l-.5-1-.2-.3c0-.1,0-.2-.1-.2l-.3-.5a.5.5,0,0,0-.2-.4l-.2-.4c-.1,0-.1-.1-.1-.2l-.3-.4-.2-.3-.3-.4-.4-.6c-.1-.1-.1-.3-.2-.4l-1-1.3c0-.1-.1-.2-.2-.3a14.7,14.7,0,0,0-1-1.3c0-.1-.1-.2-.1-.3l-.3-.4h0c-.1,0-.1-.1-.1-.2a3.7,3.7,0,0,1-.7-1V123h-.1l-.2-.3h0v-.4h-.1v-.2h-.1c-.1-.1-.1-.2-.1-.4h0c-.1,0-.1-.1-.1-.3a.1.1,0,0,1-.1-.1,1.4,1.4,0,0,0-.2-.6c0-.2,0-.3-.1-.4v-.2h0a38.9,38.9,0,0,1-1-4,.4.4,0,0,1-.1-.3,6,6,0,0,1-.2-1.2.9.9,0,0,1,0-.7h0a1,1,0,0,1,.4-.5h.1a1,1,0,0,1,.5-.4h2.1l1.2.5.2.2a11,11,0,0,1,3.4,3.4,11.3,11.3,0,0,1,1,3.8s3,1.3,3.9,3.5h.1a3,3,0,0,1,1.1.4h.2l.6.2h.2a3.1,3.1,0,0,0,1.3.1h.1a.5.5,0,0,0,.2-.4,5.5,5.5,0,0,0,.2-1.9.8.8,0,0,1-.1-.4,1.5,1.5,0,0,0-.1-.7V120c-.1-.7-.1-1.4-.2-2s-.1-.9-.1-1.3a6.9,6.9,0,0,1-.2-1.3l-.6-3.3c-.2-.8-.5-1.7-.7-2.6s-.1-.3-.1-.4a7.4,7.4,0,0,1-.4-1.4,26.4,26.4,0,0,1-.8-4.9,3.4,3.4,0,0,1-.1-1v-.2a1.3,1.3,0,0,0-.1-.6h0v-.2l-.2-.3h0c0-.2-.1-.3-.2-.5l-.2-.3-.4-.6v-.2c-.1-.1-.1-.2-.2-.2l-.6-1.6h-.1v-.2a22.1,22.1,0,0,1-1.1-5.1v-.3a.4.4,0,0,1-.1-.3.4.4,0,0,0-.1-.3h0v-.2a.8.8,0,0,0-.2-.4l-.2-.2-.2-.3-.6-1a5.6,5.6,0,0,1-.5-.8l-.3-.7h0a2.4,2.4,0,0,1-.2-.8c-.1-.1-.1-.1-.1-.2h0a1.3,1.3,0,0,1-.1-.6,8.8,8.8,0,0,1-.2-1.6.6.6,0,0,1-.1-.4c0-.7-.1-1.4-.1-2h0c0-.3.1-.5.1-.8S102.7,80.2,102.8,80Z"/><path class="cls-107" d="M103,80a1.4,1.4,0,0,1,.2-.6c.1-.1.2-.2.2-.3l.4-.5h.1l.5-.4a.1.1,0,0,0,.1-.1h.3l1.6-.9h.1a.1.1,0,0,1,.1.1l.2.5a.3.3,0,0,1,.1.2l1.4,3h0l.3.6h0l1.3,3a5.9,5.9,0,0,0,.4.8c0,.1.1.2.1.3a3,3,0,0,1,.4,1c.1.1.2.2.2.3l.3.6c0,.2.1.3.1.4l.3.6.3.7a.8.8,0,0,0,.2.4h0l.7,1.6.2.4a14.2,14.2,0,0,0,.8,1.8l.7,1.8a11.1,11.1,0,0,1,.7,1.6,3,3,0,0,1,.4.8c.1.4.3.8.4,1.1l.2.4c.1.4.3.8.4,1.1a6.7,6.7,0,0,0,2.2,3.4l.5.3h2.5l1.1.2a3.1,3.1,0,0,1,1,.5l.6.5.5.7h0l.7.3h2.7l.7.2a2.9,2.9,0,0,1,1.4,1.3h0l.3.5h0c.1.2.2.3.4.3h1a6.4,6.4,0,0,1,2.4.4l.4.2.3.2.3.2c.1.1.2.1.2.2a3.8,3.8,0,0,1,.9,1.3h0c0,.1.1.1.1.2h0c.1.2.1.5.2.6s.1.1.1.2h1.1a2.5,2.5,0,0,1,.4.7,60.5,60.5,0,0,1,3.3,16.4v.4q.1,2.1.3,3.9v1c0,.2.1.3.1.5v.4a1.3,1.3,0,0,1,.1.6c0,.2.1.4.1.6a1.3,1.3,0,0,1,.1.6c.1.2.1.4.2.6a13.4,13.4,0,0,0,.7,1.8c.2.3.1.3.2.6s.2,0,.3-.1-.2-2.3.4-.4c-1.3.8-19.8,9.9-19.8,9.9l-2.1-4.2h0l-.2-.3h0c-.4-.2-5.1-2-7.6-4.6h-.2l-1.5-1.5c0-.1-.1-.1-.1-.2l-.3-.3h-.3l-.6-.5h-.1l-1.2-1h-.2l-.5-.4-1.2-.9c-1.4-1-3-.7-4-3.6l-.5-1c-.1-.1-.1-.2-.2-.4h-.1l-.3-.6-.2-.3-.2-.4v-.2l-.3-.4-.2-.3-.3-.4-.4-.6-.3-.4-.9-1.3-.2-.3-1-1.4-.2-.2c-.1-.1-.1-.3-.2-.4h0l-.2-.2-.7-1V123H98l-.2-.3h0a.1.1,0,0,1-.1-.1v-.2h0v-.2h0c0-.1,0-.1-.1-.1h0c-.1-.1-.1-.2-.1-.4h-.1a.4.4,0,0,0-.1-.3h0a1.4,1.4,0,0,0-.2-.6c0-.2,0-.3-.1-.4v-.2h0c-.4-1.4-.8-2.8-1.1-4V115l-.3-1.1v-.7h.1l.3-.6H96l.6-.4h2.1l1.1.5.3.2a9.7,9.7,0,0,1,3.3,3.4,10.3,10.3,0,0,1,1.1,3.8s3,1.3,3.9,3.5h.1l1,.5h.3l.5.2h.3a3.1,3.1,0,0,0,1.3.1h.1a.5.5,0,0,0,.2-.4,3.9,3.9,0,0,0,.1-1.9v-.4a2.2,2.2,0,0,0-.1-.8v-.5c0-.1,0-.2-.1-.2a12.7,12.7,0,0,0-.1-2c-.1-.5-.1-.9-.2-1.3a5.1,5.1,0,0,0-.2-1.3,19.1,19.1,0,0,0-.6-3.3l-.6-2.6a.6.6,0,0,1-.1-.4,7.4,7.4,0,0,1-.4-1.4,38.6,38.6,0,0,1-.9-4.9v-1.2c0-.2-.1-.4-.1-.6h0c0-.1,0-.2-.1-.2a.4.4,0,0,0-.1-.3h0l-.2-.5-.2-.3-.5-.6c0-.1,0-.2-.1-.2s0-.2-.1-.2l-.7-1.6h0v-.2a22.1,22.1,0,0,1-1.1-5.1.4.4,0,0,0-.1-.3v-.3a.4.4,0,0,0-.1-.3h0a.3.3,0,0,1-.1-.2l-.3-.4c0-.1-.1-.2-.1-.3l-.2-.2a8.6,8.6,0,0,1-.7-1l-.4-.8-.3-.7h0l-.3-.8v-.2h0v-.2c-.1-.1-.1-.3-.2-.5a8.8,8.8,0,0,0-.2-1.6v-.4a14.1,14.1,0,0,1-.1-2h0c0-.3.1-.6.1-.8A1.4,1.4,0,0,1,103,80Z"/><path class="cls-108" d="M103.2,80a1.4,1.4,0,0,1,.2-.6c.1-.1.2-.2.2-.3l.4-.5h.1l.5-.4a.1.1,0,0,0,.1-.1h.3l1.6-.9h.1l.3.6v.2l1.4,2.9h0c.1.2.1.4.2.6h0c.5,1,.9,2,1.3,2.9l.4.8c.1.2.1.3.2.4a3.6,3.6,0,0,0,.4.9c0,.2.1.3.1.4l.3.6.2.4a.8.8,0,0,0,.2.5l.3.7.2.5h.1l.6,1.6.2.3c.2.6.5,1.2.8,1.9s.5,1.1.7,1.7l.8,1.7.3.8a11.7,11.7,0,0,1,.5,1.1v.4a4.9,4.9,0,0,1,.4,1.1,6.7,6.7,0,0,0,2.2,3.4c.2.2.3.3.5.3l.4.2H122l1.1.2,1,.4.6.5.5.7h.1l.6.4h2.7l.7.2a3.6,3.6,0,0,1,1.5,1.2h0c.1.2.1.4.2.6h0l.4.3h1.1a6.7,6.7,0,0,1,2.4.4h.3l.3.2.4.3.2.2a3,3,0,0,1,.9,1.3h0v.2h0a1.4,1.4,0,0,0,.2.6c0,.1,0,.1.1.1h1.1a2.5,2.5,0,0,1,.4.7,60.6,60.6,0,0,1,3.3,16.3v.4c.1,1.5.2,2.8.2,3.9a4.3,4.3,0,0,0,.1.5v.5a1.3,1.3,0,0,0,.1.6v.4a4.3,4.3,0,0,0,.1.5c0,.3.1.4.1.6s.1.4.1.6.1.4.2.6a6.7,6.7,0,0,0,.7,1.8l.2.6c.2.4.1,0,.2-.1s-.2-1.9.1-.1l-19.4,9.7-2.1-4.2h0l-.3-.3h0c-.5-.2-5.1-2-7.6-4.6v-.2l-1.5-1.5c-.1,0-.1,0-.1-.1l-.3-.3h-.4l-.5-.4h-.1l-1.2-1h-.2l-.5-.3-1.2-.9c-1.5-1-3-.7-4-3.6-.2-.3-.3-.7-.5-1l-.2-.4H104l-.3-.6-.2-.3-.2-.4-.2-.2-.2-.4-.3-.3a.5.5,0,0,0-.2-.4l-.4-.6-.3-.4-.9-1.3a.5.5,0,0,1-.2-.4,11.3,11.3,0,0,1-1-1.3l-.2-.2a.8.8,0,0,1-.2-.4h0l-.2-.2-.7-1c0-.1,0-.1-.1-.2h0c-.1-.1-.2-.2-.2-.3h0c-.1,0-.1,0-.1-.1v-.2h0v-.2h-.2a.6.6,0,0,0-.1-.4h0a.4.4,0,0,0-.1-.3h0a6.4,6.4,0,0,1-.2-.7c0-.1-.1-.2-.1-.3v-.2h0c-.4-1.4-.8-2.8-1.1-4V115l-.3-1.1v-.7a.1.1,0,0,1,.1-.1h0l.3-.6c.1,0,.1,0,.1-.1l.6-.3h2.1l1.1.5.3.2a9.7,9.7,0,0,1,3.3,3.4,10.3,10.3,0,0,1,1.1,3.8s2.9,1.3,3.9,3.5h.1l1,.5h.3l.5.2h.3a2.7,2.7,0,0,0,1.2.1h.2a.5.5,0,0,0,.2-.4,3.9,3.9,0,0,0,.1-1.9v-.4c0-.3-.1-.5-.1-.8v-.5a.4.4,0,0,1-.1-.3c0-.6-.1-1.3-.1-1.9s-.1-.9-.2-1.3a6.8,6.8,0,0,0-.2-1.4,19.8,19.8,0,0,0-.6-3.2l-.6-2.6c-.1-.1-.1-.3-.2-.4l-.3-1.4a26.5,26.5,0,0,1-.9-4.9v-1c0-.1,0-.2-.1-.2V101h0c0-.1,0-.2-.1-.2a.4.4,0,0,0-.1-.3h0l-.3-.5-.2-.3a2.1,2.1,0,0,0-.4-.6c0-.1,0-.2-.1-.2s-.1-.2-.1-.3a10.1,10.1,0,0,1-.7-1.5h0a22.1,22.1,0,0,1-1.1-5.1v-.6c0-.1-.1-.2-.1-.3h0c0-.1-.1-.1-.1-.2l-.3-.4c0-.1-.1-.2-.1-.3l-.2-.2a3.6,3.6,0,0,1-.7-1,5.9,5.9,0,0,1-.4-.8l-.3-.7h0l-.3-.8v-.2h0v-.2a.7.7,0,0,0-.1-.5,8.8,8.8,0,0,0-.2-1.6v-.4a14.1,14.1,0,0,1-.1-2h0a1.7,1.7,0,0,1,.1-.7A1.4,1.4,0,0,1,103.2,80Z"/><path class="cls-109" d="M103.3,80l.3-.6c.1-.1.1-.2.2-.4l.4-.4h.1l.5-.3a.1.1,0,0,1,.1-.1h.2l1.7-.9h.1l.3.6v.2l1.3,2.8h0l.3.7h0l1.3,2.8.3.8c.1.1.1.3.2.4l.4.9c.1.1.1.2.2.4s.1.3.2.5.1.3.2.4.1.4.2.6l.3.6.2.5h.1a11.1,11.1,0,0,0,.7,1.6v.3c.3.6.5,1.3.8,1.9l.8,1.7c.2.6.5,1.1.7,1.7l.3.8.5,1.2.2.4a4.2,4.2,0,0,0,.4,1,8.2,8.2,0,0,0,2.1,3.6l.5.3h.6l.5.2h.4c0,.1.1.1.2.1h.8l1.1.2a2.1,2.1,0,0,1,1,.4l.6.4.6.7h0l.6.4h2.7l.7.2a2.6,2.6,0,0,1,1.5,1.2h0l.3.5h0l.4.4h1a4.9,4.9,0,0,1,2.4.4h.4l.3.2.3.2.3.2a4.2,4.2,0,0,1,.9,1.4h0l.3.6h.7a.1.1,0,0,1,.1.1h.4a2.5,2.5,0,0,1,.4.7,63.8,63.8,0,0,1,3.3,16.3v.4c.1,1.4.1,2.7.2,3.8v.6a.7.7,0,0,1,.1.5v.5a.6.6,0,0,1,.1.4,1.3,1.3,0,0,0,.1.6,1.3,1.3,0,0,0,.1.6,1.3,1.3,0,0,0,.1.6c0,.2.1.3.1.5a6.4,6.4,0,0,0,.8,1.9c.1.2,0,.3.2.6s0-.1.1-.2-.2-1.5-.2.2c-2.2,1.3-19,9.4-19,9.4l-2.2-4.2h0l-.3-.3h0c-.5-.2-5.1-2-7.5-4.5l-.2-.2-1.4-1.5h-.2l-.3-.3h-.3l-.5-.4h-.1l-1.2-1h-.1v-.2h-.1l-.4-.3-1.2-.9c-1.5-1-3-.7-4.1-3.6a4.2,4.2,0,0,0-.4-1c-.1-.2-.2-.3-.2-.4h-.1l-.3-.6c-.1-.1-.2-.2-.2-.3l-.3-.4c0-.1,0-.1-.1-.2l-.2-.4-.3-.4-.2-.3-.4-.6-.3-.4-.9-1.3-.3-.4-.9-1.3-.2-.2-.3-.4h0c0-.1-.1-.1-.1-.2l-.7-1c0-.1-.1-.1-.1-.2h-.1c0-.2-.1-.3-.1-.4h-.1a.3.3,0,0,1-.1-.2h-.2a.6.6,0,0,0-.1-.4h0v-.3h0a6.4,6.4,0,0,1-.2-.7c0-.1-.1-.2-.1-.3v-.2h0c-.4-1.4-.7-2.9-1-4s0-.3-.1-.4-.1-.8-.2-1.1,0-.5,0-.7H96c0-.2.2-.4.3-.6a.1.1,0,0,0,.1-.1l.6-.3h.5a.1.1,0,0,0,.1-.1h1.5l1.1.5.3.2a10.6,10.6,0,0,1,3.3,3.4,10.3,10.3,0,0,1,1.1,3.8s2.9,1.3,3.9,3.5h.1l1,.5h.3l.5.2h.3a2.7,2.7,0,0,0,1.2.1h.2l.2-.4a11.5,11.5,0,0,0,.1-2v-.3a2.2,2.2,0,0,1-.1-.8v-.3c0-.1-.1-.2-.1-.3v-.2c0-.6-.1-1.3-.1-1.9s-.1-.9-.2-1.4-.1-.8-.2-1.3l-.6-3.2-.6-2.6c-.1-.1-.1-.3-.2-.4a5.7,5.7,0,0,0-.4-1.4,26.4,26.4,0,0,1-.8-4.9,3.4,3.4,0,0,0-.1-1V101h0v-.3a.3.3,0,0,0-.1-.2h0l-.3-.4-.2-.3a4.3,4.3,0,0,1-.4-.7h-.1c0-.1-.1-.2-.1-.3a10.1,10.1,0,0,1-.7-1.5h-.1a41.9,41.9,0,0,1-1.1-5.1v-.6a.4.4,0,0,1-.1-.3h0c-.1-.1-.1-.1-.1-.2l-.3-.5-.2-.2v-.2a3.6,3.6,0,0,1-.7-1,5.9,5.9,0,0,1-.4-.8l-.3-.7h0l-.3-.8v-.2h0v-.2c0-.2-.1-.4-.1-.6s-.1-1-.2-1.5v-.4a14.1,14.1,0,0,1-.1-2h0a1.7,1.7,0,0,1,.1-.7C103.2,80.4,103.3,80.2,103.3,80Z"/><path class="cls-110" d="M103.5,79.9l.3-.5.2-.4.4-.4h.1l.5-.3a.1.1,0,0,1,.1-.1h.1v-.2l1.6-.8h.2l.3.6h0l1.4,2.9h0l.3.6h0l1.2,2.8.4.8v.4a3.6,3.6,0,0,1,.4.9l.2.3a1.4,1.4,0,0,1,.2.6c.1.1.1.2.2.4l.3.5a1.9,1.9,0,0,0,.2.7.8.8,0,0,1,.2.4h.1a7.7,7.7,0,0,0,.7,1.6v.3c.3.6.5,1.3.8,1.9l.8,1.8.7,1.6.3.8a6.1,6.1,0,0,1,.5,1.2c.1.1.1.3.2.4s.3.7.4,1.1a8.2,8.2,0,0,0,2.1,3.6l.5.3.3.2h2.2l1,.2,1.1.4.6.5.6.7h.1l.5.4h2.7l.7.2a2.7,2.7,0,0,1,1.6,1.1h0l.3.6h0l.3.3h1a6.9,6.9,0,0,1,2.5.4l.3.2.3.2.4.2.2.2a4.1,4.1,0,0,1,1,1.3h0a2.5,2.5,0,0,1,.2.7.1.1,0,0,1,.1.1h.7a.1.1,0,0,1,.1.1h.4a1.5,1.5,0,0,1,.3.7,56.3,56.3,0,0,1,3.3,16.2.8.8,0,0,1,.1.4c.1,1.5.1,2.7.2,3.9v.5c0,.2.1.3.1.5v.5c0,.2,0,.3.1.4v.6a1.3,1.3,0,0,1,.1.6c.1.2.1.4.2.6a1.3,1.3,0,0,0,.1.6,13.4,13.4,0,0,0,.7,1.8c.1.2.1.4.3.6s-.1-.2.1-.1-.4-1.1-.5.4c-2.7,1.5-18.7,9.1-18.7,9.1l-2.2-4.1h0l-.3-.3h0c-.7-.3-5.2-2-7.5-4.5l-.2-.2a10.6,10.6,0,0,0-1.5-1.5h-.1l-.3-.3h-.3l-.5-.4h-.1l-1.3-1h-.2l-.5-.3a9.4,9.4,0,0,0-1.2-.9c-1.4-1-2.9-.7-4-3.6l-.5-1.1c0-.1-.1-.2-.1-.3s-.1-.1-.1-.2l-.3-.5c-.1-.1-.2-.2-.2-.3l-.3-.4c0-.1-.1-.1-.1-.2a.8.8,0,0,1-.2-.4l-.3-.4a.5.5,0,0,1-.2-.4,1,1,0,0,1-.4-.5l-.3-.4-.9-1.3-.3-.4L100,125c-.1-.1-.1-.2-.2-.2l-.3-.4h0c0-.1-.1-.1-.1-.2l-.7-1c0-.1-.1-.1-.1-.2h-.1v-.3h-.1c0-.1-.1-.1-.1-.2h-.1a.1.1,0,0,0-.1-.1h0c0-.1-.1-.3-.1-.4h0v-.3h0a1.4,1.4,0,0,1-.2-.7.4.4,0,0,1-.1-.3v-.2h0c-.4-1.4-.7-2.9-1-4.1V115c-.1-.4-.1-.8-.2-1.1a.9.9,0,0,1,0-.7h.1a.9.9,0,0,1,.3-.6.1.1,0,0,0,.1-.1l.5-.3h.6a.1.1,0,0,1,.1-.1h1.5l1.1.5.3.2A10.6,10.6,0,0,1,104,116a13.2,13.2,0,0,1,1.1,3.8s2.9,1.3,3.8,3.5h.1l1.1.4.3.2.5.2h.3a1.9,1.9,0,0,0,1.2.2h.1l.3-.4a11.5,11.5,0,0,0,.1-2v-.4a1.7,1.7,0,0,1-.1-.7.4.4,0,0,0-.1-.3v-.5a12.3,12.3,0,0,0-.2-1.9c0-.5-.1-.9-.1-1.4s-.1-.8-.2-1.3l-.6-3.2a25,25,0,0,0-.7-2.6.6.6,0,0,0-.1-.4c-.1-.5-.3-1-.4-1.4a27.8,27.8,0,0,1-.8-4.9c0-.3-.1-.7-.1-1.1V101h0a.4.4,0,0,1-.1-.3c0-.1-.1-.2-.1-.3h0l-.3-.4-.2-.3a4.3,4.3,0,0,1-.4-.7h-.1c0-.1-.1-.2-.1-.3a10.1,10.1,0,0,1-.7-1.5h-.1a31,31,0,0,1-1.1-5.1v-.3a.4.4,0,0,0-.1-.3v-.3a.1.1,0,0,0-.1-.1h0v-.2l-.3-.5-.2-.2c0-.1-.1-.1-.1-.2a3.6,3.6,0,0,1-.7-1,3,3,0,0,1-.4-.8l-.3-.7a.1.1,0,0,0-.1-.1c-.1-.3-.1-.6-.2-.8s0-.2-.1-.2h0v-.2c0-.2-.1-.4-.1-.6a7.7,7.7,0,0,1-.2-1.5c0-.2,0-.3-.1-.4a13.3,13.3,0,0,1,0-2h0a50773689991412.1,50773689991412.1,0,0,0,.2-1.4Z"/><path class="cls-111" d="M103.7,79.9l.3-.6.2-.3.4-.4h0l.6-.3c0-.1,0-.1.1-.1h0l.2-.2,1.6-.8h.2l.2.5v.2c.5.9.9,1.9,1.3,2.8h0l.3.6h0c.4,1,.9,1.9,1.3,2.8l.3.8c.1.1.1.2.2.4a5.9,5.9,0,0,0,.4.8c0,.2.1.3.1.4l.3.5c0,.2.1.3.1.4l.3.6a1.4,1.4,0,0,1,.2.6c.1.2.2.3.2.4v.2c.2.5.5,1,.7,1.6s.1.1.1.2.5,1.3.8,1.9l.8,1.8c.2.6.5,1.1.7,1.7l.4.8a6.1,6.1,0,0,0,.5,1.2c0,.1.1.2.1.4a3.6,3.6,0,0,1,.4,1.1,8.2,8.2,0,0,0,2.1,3.6l.5.3.3.2.3.2h1.8l1.1.2,1.1.3c.2.2.5.3.6.5a2.3,2.3,0,0,1,.7.7h0l.5.5h3.4a2.5,2.5,0,0,1,1.6,1.2h0l.3.5h0a.8.8,0,0,0,.4.4h1a6.7,6.7,0,0,1,2.4.4l.4.2.3.2.3.2.3.2a3,3,0,0,1,.9,1.3h0v.2h0c.1.2.1.5.2.7a.1.1,0,0,1,.1.1h1.2l.3.7a59.8,59.8,0,0,1,3.3,16.2.6.6,0,0,0,.1.4c0,1.4.1,2.7.2,3.8v1a1.3,1.3,0,0,1,.1.6v.4a1.3,1.3,0,0,1,.1.6c0,.2.1.4.1.6s.1.3.1.5.1.4.2.6a6.7,6.7,0,0,0,.7,1.8l.2.6c.2.4,0-.2.1-.1s-.4-.7-.8.7c-3.2,1.8-18.4,8.8-18.4,8.8l-2.1-4.1h0l-.4-.2h0c-.8-.3-5.1-2.1-7.5-4.6h-.1a21.1,21.1,0,0,0-1.5-1.5.1.1,0,0,0-.1-.1l-.3-.3H113l-.5-.5h-.1l-1.2-1H111l-.5-.3-1.2-.9c-1.4-1-2.9-.7-4-3.6l-.5-1.1-.2-.3v-.2l-.3-.5-.3-.4-.2-.3a.3.3,0,0,0-.1-.2l-.3-.4-.2-.4-.3-.4-.4-.5a.5.5,0,0,0-.2-.4l-.9-1.3-.3-.4a10.1,10.1,0,0,1-.9-1.3l-.2-.2-.3-.4h0c0-.1-.1-.1-.1-.2l-.7-1V123c0-.1-.1-.1-.1-.2h0a.4.4,0,0,1-.1-.3h-.1c-.1-.1-.1-.1-.1-.2h-.1a.1.1,0,0,0-.1-.1h0c0-.2-.1-.3-.1-.4h0a.4.4,0,0,1-.1-.3h0a1.4,1.4,0,0,1-.2-.7c-.1-.1-.1-.2-.1-.4h-.1a40.4,40.4,0,0,1-1-4.1V115a5.2,5.2,0,0,1-.2-1.1.9.9,0,0,1,0-.7h0a2.1,2.1,0,0,1,.4-.6h.1l.5-.3h2.1l1.2.5.3.2a9.7,9.7,0,0,1,3.3,3.4,13.2,13.2,0,0,1,1.1,3.8s2.9,1.3,3.8,3.5h.1l1.1.4h.2l.6.2h.2a2.2,2.2,0,0,0,1.3.2h.1l.3-.4a11.5,11.5,0,0,0,.1-2c0-.1-.1-.2-.1-.4v-.7c0-.1-.1-.2-.1-.3v-.5c-.1-.6-.1-1.3-.2-2s-.1-.8-.1-1.3-.1-.8-.2-1.3l-.6-3.2a25,25,0,0,0-.7-2.6,4.3,4.3,0,0,1-.1-.5l-.4-1.3a27.8,27.8,0,0,1-.8-4.9,4.1,4.1,0,0,1-.1-1.1v-.2a.9.9,0,0,0-.1-.5h0v-.3a.4.4,0,0,1-.1-.3h0l-.3-.4-.2-.3a1.6,1.6,0,0,1-.4-.7h-.1a.4.4,0,0,1-.1-.3,10.1,10.1,0,0,1-.7-1.5h-.1a23.3,23.3,0,0,1-1.1-5.1v-.9h-.1v-.2c0-.2-.1-.3-.2-.5l-.2-.2c0-.1-.1-.1-.2-.2l-.6-1-.4-.8a2,2,0,0,1-.4-.8h0a3.1,3.1,0,0,1-.2-.8v-.2h0v-.2a1.3,1.3,0,0,1-.1-.6,7.7,7.7,0,0,1-.2-1.5c0-.2-.1-.3-.1-.5s-.1-1.3-.1-1.9h0a1.7,1.7,0,0,0,.1-.7A6.4,6.4,0,0,1,103.7,79.9Z"/><path class="cls-112" d="M103.9,79.9l.3-.6.2-.3.3-.4h.1l.6-.4h.3l1.6-.8h.2l.2.5v.2c.4.9.9,1.8,1.3,2.8h0l.3.6h0l1.2,2.7.3.8.2.3.4.9c0,.1.1.2.1.4l.3.5a.8.8,0,0,0,.2.4c0,.2.1.3.2.5l.3.6c0,.2.1.3.1.5h.1l.7,1.6v.2a16.7,16.7,0,0,1,.8,2l.8,1.7c.3.6.5,1.2.7,1.7l.4.8.5,1.2c0,.1.1.3.1.4a11.7,11.7,0,0,0,.5,1.1,9.5,9.5,0,0,0,2,3.7c.1.2.3.3.4.4l.4.2h.2l.6.2h1.3l1.1.2a2.3,2.3,0,0,1,1.1.3l.7.4.6.7h.1a1,1,0,0,0,.4.5H129l.8.2a3.6,3.6,0,0,1,1.6,1.1h0l.3.5h0c.1.1.1.3.3.4h1a7.3,7.3,0,0,1,2.5.4l.3.2h.3l.4.3.2.2a2.6,2.6,0,0,1,1,1.3h0v.2h0a1.4,1.4,0,0,0,.2.6v.2h.2a.1.1,0,0,0,.1.1h.4c.1,0,.1,0,.1.1h.3a1.6,1.6,0,0,1,.4.7,58.4,58.4,0,0,1,3.3,16.1v.5c.1,1.4.2,2.6.3,3.8v1c0,.2.1.3.1.5v.4c0,.2.1.4.1.6a1.3,1.3,0,0,0,.1.6c0,.2.1.4.1.6s.1.4.1.6a13.4,13.4,0,0,0,.7,1.8,3.3,3.3,0,0,1,.3.6c.2.3-.1-.3,0-.2s-.5-.3-1.1,1c-3.6,2-18,8.6-18,8.6l-2.2-4.1h0a.4.4,0,0,0-.3-.2h0c-.9-.4-5.2-2.2-7.5-4.6l-.2-.2-1.4-1.4-.2-.2-.3-.2h-.3l-.5-.5h-.1l-1.2-.9h-.2l-.5-.4-1.2-.8c-1.4-1.1-2.9-.7-4-3.6L105,132l-.2-.3v-.2l-.3-.5-.2-.4-.2-.3v-.2l-.3-.4-.2-.4-.3-.4a1,1,0,0,0-.4-.5l-.2-.4a14.7,14.7,0,0,0-1-1.3.5.5,0,0,0-.2-.4,14.7,14.7,0,0,0-1-1.3v-.3l-.3-.3h0v-.2l-.7-1V123c-.1-.1-.1-.1-.1-.2h0l-.2-.3h0a.1.1,0,0,0-.1-.1v-.2h-.2a.4.4,0,0,1-.1-.3h0a.4.4,0,0,1-.1-.3h-.1a2.5,2.5,0,0,0-.2-.7.8.8,0,0,0-.1-.4h0a40.4,40.4,0,0,1-1-4.1.4.4,0,0,1-.1-.3,5.2,5.2,0,0,1-.2-1.1.8.8,0,0,1,0-.7V113h0a2.1,2.1,0,0,1,.4-.6.1.1,0,0,1,.1-.1l.5-.3h2.1l1.2.5.2.2a9.2,9.2,0,0,1,3.4,3.4,10.8,10.8,0,0,1,1,3.8s3,1.3,3.9,3.5h.1l1.1.4h.2l.6.2h.2a2.2,2.2,0,0,0,1.3.2h.1a.8.8,0,0,0,.2-.4,6.2,6.2,0,0,0,.2-2c-.1-.1-.1-.2-.1-.4a1.7,1.7,0,0,0-.1-.7v-.8c-.1-.6-.1-1.3-.2-2s-.1-.8-.1-1.3a5.9,5.9,0,0,1-.2-1.3l-.6-3.2c-.2-.9-.5-1.8-.7-2.6s-.1-.3-.1-.5a6.5,6.5,0,0,1-.4-1.3,27.8,27.8,0,0,1-.8-4.9,4.1,4.1,0,0,1-.1-1.1v-.2a.9.9,0,0,0-.1-.5h0v-.3l-.2-.3h0a.8.8,0,0,0-.2-.4l-.2-.3a2.5,2.5,0,0,1-.4-.7c-.1,0-.1-.1-.1-.2s-.1-.1-.2-.2l-.6-1.5h-.1a22.9,22.9,0,0,1-1.1-5.2v-.5a.4.4,0,0,0-.1-.3h0c0-.1,0-.2-.1-.2s-.1-.3-.2-.5l-.2-.2-.2-.2-.6-1-.5-.8-.3-.8h0a2.9,2.9,0,0,1-.2-.9.1.1,0,0,1-.1-.1h0v-.2a1.3,1.3,0,0,1-.1-.6,7.7,7.7,0,0,1-.2-1.5.9.9,0,0,1-.1-.5c0-.6-.1-1.3-.1-1.9h0c0-.2.1-.5.1-.7A6.4,6.4,0,0,1,103.9,79.9Z"/><path class="cls-113" d="M104.1,79.9a1.4,1.4,0,0,1,.2-.6l.2-.3c.2-.1.3-.3.4-.4h.1l.5-.4h.4l1.5-.8h.2l.3.5v.2l1.2,2.7h0l.3.6h0l1.2,2.7a3,3,0,0,1,.4.8c0,.1.1.2.1.3a3.6,3.6,0,0,1,.4.9l.2.3c.1.2.1.4.2.6l.2.3c.1.2.1.4.2.6l.3.6a.8.8,0,0,0,.2.4h0a12.2,12.2,0,0,1,.7,1.7h.1a16.7,16.7,0,0,1,.8,2,14.2,14.2,0,0,1,.8,1.8c.3.5.5,1.1.8,1.7l.3.8.5,1.2c.1.1.1.2.2.4s.3.7.4,1.1a9.5,9.5,0,0,0,2,3.7c.1.2.3.3.4.4l.3.2.3.2.5.2h2.5l1.1.3.7.4a2.4,2.4,0,0,1,.6.8h.1l.4.5h.1l.3.2h2.4l.7.2a2.6,2.6,0,0,1,1.6,1.1h.1a.8.8,0,0,1,.2.5h0l.3.5h1a6.9,6.9,0,0,1,2.5.4h.4l.3.2.4.2a.2.2,0,0,0,.2.2,3.6,3.6,0,0,1,1,1.4h.1a1.4,1.4,0,0,0,.2.6h.3a.1.1,0,0,0,.1.1h.5c0,.1,0,.1.1.1h.2a1.6,1.6,0,0,1,.4.7,58.4,58.4,0,0,1,3.3,16.1v.4c.1,1.4.2,2.7.2,3.8s.1.4.1.6v.4a1.3,1.3,0,0,0,.1.6v.4a.9.9,0,0,0,.1.5,21996312964442.5,21996312964442.5,0,0,0,.2,1.2c0,.2.1.4.1.6a13.4,13.4,0,0,0,.7,1.8c.1.2.1.4.3.6v-.2c.2.1-.5.2-1.4,1.2-4,2.4-17.6,8.4-17.6,8.4l-2.2-4h0l-.4-.2h0c-1-.5-5.2-2.2-7.4-4.6l-.2-.2-1.5-1.5H114l-.3-.3a.1.1,0,0,1-.1-.1h-.2l-.5-.4h-.1l-1.2-1h-.2l-.5-.4-1.2-.8c-1.4-1.1-3-.7-4-3.6a11.7,11.7,0,0,1-.5-1.1l-.2-.3v-.2l-.3-.5-.2-.4-.2-.3v-.2l-.3-.4-.2-.4-.3-.4-.4-.6-.3-.3-.9-1.3-.2-.4-1-1.3-.2-.3-.2-.3h0c-.1-.1-.1-.2-.2-.2l-.7-1.1h0c-.1-.1-.1-.1-.1-.2h0l-.2-.3h-.1c0-.1,0-.2-.1-.2h-.1a.4.4,0,0,1-.1-.3h-.1a.4.4,0,0,0-.1-.3h0a2.5,2.5,0,0,0-.2-.7.8.8,0,0,0-.1-.4h0l-1.1-4.1V115l-.3-1.1v-.7c0-.1.1-.1.1-.2h0a3.3,3.3,0,0,1,.3-.6.1.1,0,0,0,.1-.1l.6-.3h2.1l1.1.5.3.2a8.9,8.9,0,0,1,3.3,3.4,9.8,9.8,0,0,1,1.1,3.8s3,1.2,3.9,3.5h.1l1,.4h.3l.5.2h.3a2.2,2.2,0,0,0,1.3.2h.1a.8.8,0,0,0,.2-.4,4.4,4.4,0,0,0,.1-2v-.4a1.7,1.7,0,0,0-.1-.7v-.8a13.4,13.4,0,0,0-.1-2c-.1-.4-.1-.8-.2-1.3a5.9,5.9,0,0,0-.2-1.3,16.5,16.5,0,0,0-.6-3.2l-.6-2.6a.9.9,0,0,1-.1-.5,6.5,6.5,0,0,1-.4-1.3,42.1,42.1,0,0,1-.9-4.9v-1.3a4.3,4.3,0,0,0-.1-.5h0a6181264102439.4,6181264102439.4,0,0,0-.2-.6h0c-.1-.1-.1-.3-.2-.4l-.2-.3-.5-.7v-.4l-.7-1.5h0a22.9,22.9,0,0,1-1.1-5.2.4.4,0,0,0-.1-.3v-.3a.4.4,0,0,0-.1-.3h0v-.2l-.3-.5v-.2l-.2-.2-.7-1c-.1-.3-.3-.5-.4-.8l-.3-.8h0l-.3-.9V86h0c-.1-.2-.1-.4-.2-.6a10,10,0,0,0-.2-1.6v-.4a12.7,12.7,0,0,1-.1-2h0c0-.3.1-.5.1-.8A1.4,1.4,0,0,1,104.1,79.9Z"/><path class="cls-114" d="M104.3,79.9a1.4,1.4,0,0,1,.2-.6l.2-.3.4-.4h.1l.5-.4h.4l1.5-.8h.2l.3.6h0c.5.9.9,1.8,1.3,2.7h0l.3.6h0l1.2,2.7.3.7c.1.2.1.3.2.4l.3.8c.1.2.1.3.2.4s.2.3.2.5.1.3.2.4l.2.5.3.6.2.4v.2a11.1,11.1,0,0,1,.7,1.6c.1,0,.1.1.1.2l.9,1.9.7,1.8.8,1.7.3.8a6.1,6.1,0,0,1,.5,1.2c.1.1.1.3.2.4a7.6,7.6,0,0,1,.4,1.1,12,12,0,0,0,2,3.9l.4.3.3.3h.3l.5.2h2.5l1.1.3.7.3a2.7,2.7,0,0,1,.7.8h0l.4.5h.1l.3.2H130a3.4,3.4,0,0,1,1.7,1.1h0l.3.5h0c.1.2.1.4.3.5l.3.2h.7a7.3,7.3,0,0,1,2.5.4h.3l.4.2.3.2.3.2a6.4,6.4,0,0,1,1,1.3h0v.2h0l.3.7h0a.1.1,0,0,0,.1.1h1.1c.2.1.3.4.4.7a62.3,62.3,0,0,1,3.3,16.1v.4c.1,1.4.1,2.6.2,3.8v.5a.9.9,0,0,1,.1.5v1.5a10998156482197.1,10998156482197.1,0,0,1,.2,1.2l.2.5a7.6,7.6,0,0,0,.6,1.8l.3.6c.2.3-.2-.4,0-.1s-.6.5-1.8,1.4c-4.5,2.6-17.2,8.1-17.2,8.1l-2.2-4h0l-.4-.2h0a22.5,22.5,0,0,1-7.5-4.5v-.2l-1.5-1.5h-.1l-.3-.3a.1.1,0,0,1-.1-.1h-.2l-.5-.4H113l-1.2-1h-.3l-.4-.4-1.2-.8c-1.5-1.1-3-.7-4.1-3.6a4.9,4.9,0,0,0-.4-1.1l-.2-.3v-.2l-.3-.5c-.1-.1-.1-.3-.2-.4a.5.5,0,0,1-.2-.4h-.2a.5.5,0,0,0-.2-.4l-.3-.4a.8.8,0,0,0-.2-.4l-.4-.6-.3-.3-.9-1.3c-.1-.2-.2-.3-.2-.4l-1-1.3-.2-.3-.2-.3h0c-.1-.1-.1-.2-.2-.2l-.7-1.1h-.1v-.2h0l-.2-.3h0a.1.1,0,0,1-.1-.1c0-.1,0-.2-.1-.2h-.1v-.2h-.1a.4.4,0,0,0-.1-.3h0a.4.4,0,0,0-.1-.3h0a6.4,6.4,0,0,1-.2-.7c0-.1-.1-.2-.1-.4h0c-.4-1.3-.8-2.8-1.1-4V115l-.3-1.1v-.8h.1l.3-.5a.1.1,0,0,0,.1-.1l.6-.3H100l1.1.5h.3a9.9,9.9,0,0,1,3.3,3.5,9.8,9.8,0,0,1,1.1,3.8s2.9,1.2,3.9,3.5h.1l1,.4h.3l.5.2h.3c.5.2,1,.3,1.2.1h.2a.8.8,0,0,0,.2-.4,4.4,4.4,0,0,0,.1-2v-.4c0-.2-.1-.5-.1-.7v-.8c0-.7-.1-1.3-.1-2s-.1-.9-.2-1.3a5.9,5.9,0,0,0-.2-1.3,19.1,19.1,0,0,0-.6-3.3l-.6-2.5-.2-.5-.3-1.4a27,27,0,0,1-.9-4.8v-1.1c0-.1,0-.1-.1-.2V101h0a6181264102400.4,6181264102400.4,0,0,1-.2-.6h0l-.3-.4-.2-.3a1.6,1.6,0,0,0-.4-.7v-.2c0-.1-.1-.1-.1-.2a10.1,10.1,0,0,1-.7-1.5h0a22.9,22.9,0,0,1-1.1-5.2c0-.1-.1-.2-.1-.3v-.3c0-.1-.1-.2-.1-.3h0v-.2l-.3-.5v-.2l-.2-.2a6.1,6.1,0,0,1-.7-1,5.9,5.9,0,0,0-.4-.8l-.3-.8h0l-.3-.8V86h-.1a1.3,1.3,0,0,0-.1-.6,10,10,0,0,0-.2-1.6v-.4a13.4,13.4,0,0,1-.1-2h0a2.2,2.2,0,0,1,.1-.8A1.4,1.4,0,0,1,104.3,79.9Z"/><path d="M126.2,150.5l-2.3-3.9h0s-5.2-2-7.8-4.8l-1.6-1.6-.4-.4-.3-.2-.6-.5-1.3-1.1h-.1l-.5-.4-1.2-.8c-1.5-1.1-3-.8-4.1-3.6a4.9,4.9,0,0,0-.4-1.1c-.1-.1-.2-.2-.2-.3v-.2l-.3-.5-.2-.4-.3-.4h-.1l-.2-.4-.3-.4-.2-.4-.4-.6-.3-.4-.9-1.3-.3-.3-.9-1.3-.2-.3-.3-.4h-.1l-.7-1.1h-.1v-.2h0v-.3h-.1V122h0a.1.1,0,0,0-.1-.1h0v-.2h-.1a.8.8,0,0,0-.1-.4h0v-.3h0c-.1-.2-.1-.5-.2-.7s-.1-.3-.1-.4h-.1c-.4-1.3-.7-2.8-1-4a.4.4,0,0,0-.1-.3,3.6,3.6,0,0,0-.2-1.1,2.2,2.2,0,0,1,0-.8h.1a.9.9,0,0,1,.3-.5.1.1,0,0,1,.1-.1.7.7,0,0,1,.6-.3h2.1a3.4,3.4,0,0,1,1.1.5h.3a11.7,11.7,0,0,1,3.3,3.4,10.3,10.3,0,0,1,1.1,3.8s2.9,1.3,3.9,3.5h.1l1,.4h.3l.5.2h.3a1.7,1.7,0,0,0,1.2.1h.2c.1,0,.1-.2.2-.3a12.1,12.1,0,0,0,.1-2v-.4a2,2,0,0,1-.1-.7v-.3c0-.1-.1-.2-.1-.3v-.2c0-.7-.1-1.3-.1-2s-.1-.9-.2-1.3-.1-.9-.2-1.3l-.6-3.3-.6-2.5-.2-.5a10.3,10.3,0,0,0-.4-1.4,26.7,26.7,0,0,1-.8-4.8,4.1,4.1,0,0,0-.1-1.1v-.8h0v-.2c0-.1-.1-.2-.1-.3h0l-.3-.4-.2-.3a4.3,4.3,0,0,0-.4-.7c0-.1-.1-.1-.1-.2s-.1-.1-.1-.2a10.1,10.1,0,0,1-.7-1.5h0v-.2a38.2,38.2,0,0,1-1.1-5.1v-.6a.4.4,0,0,1-.1-.3h0a.3.3,0,0,1-.1-.2l-.3-.5-.2-.2a.3.3,0,0,0-.1-.2l-.7-1-.4-.8-.3-.8h0l-.3-.8V86h-.1c0-.2-.1-.4-.1-.6s-.1-1-.2-1.6v-.4a14.1,14.1,0,0,1-.1-2h0a2.2,2.2,0,0,1,.1-.8c0-.2.1-.4.1-.6l.3-.6.2-.3a.8.8,0,0,1,.4-.4h.1l.5-.4h.3a9.7,9.7,0,0,1,1.7-.9h.1l.3.7,1.5,3.3h0c.6,1.2,1.2,2.4,1.7,3.7s.3.5.4.8l.7,1.8.3.6.2.4a13,13,0,0,0,.8,1.7v.2l.9,2a13,13,0,0,0,.8,1.7l.7,1.8a24.4,24.4,0,0,1,1,2.4l.5,1.1c.6,1.7,1.2,3.8,2.9,4.7l.5.2h.6a11.3,11.3,0,0,0,1.8.3l1.2.2a2.6,2.6,0,0,1,1.4,1.1,2.5,2.5,0,0,1,.4.7h.1l.8.2H129l1.1.2a2.9,2.9,0,0,1,2.1,1.6h0a.8.8,0,0,0,.2.5,1.3,1.3,0,0,0,.9.2h.1a7.1,7.1,0,0,1,2.9.5h.3l.6.5a3.3,3.3,0,0,1,1.1,1.5h0l.3.8c0,.1.1.1.1.2s.2.1.2.2h.9a2,2,0,0,1,.4.8,60.5,60.5,0,0,1,3.3,16.4c.1,1.6.1,3.1.2,4.3s.1.7.1,1,.1.7.1,1,.1.4.1.6.1.4.1.6a1.3,1.3,0,0,1,.1.6,24.4,24.4,0,0,0,1,2.4c.2.3-.3-.5-.1-.2S126.2,150.5,126.2,150.5Z"/></g><path class="cls-115" d="M105.2,84.7h-.3a4.1,4.1,0,0,0,.3.8l.3.5c.2.3.2.6.5.9l.2.2a.2.2,0,0,0,.2.2c.1.2.2.3.2.5V88h.1v.3a.4.4,0,0,1,.1.3V89a30.4,30.4,0,0,0,1.2,5.4v.2h0c.2.6.5,1.1.7,1.6l.2.3v.2a4.3,4.3,0,0,1,.4.7c.1.1.2.2.2.3l.3.4h0a6181264102433,6181264102433,0,0,0,.2.6h0a1.3,1.3,0,0,0,.1.6v1.3a41.7,41.7,0,0,0,.9,5.1c.1.5.3,1,.4,1.5s.1.3.2.4l.6,2.7c.3,1.2.5,2.3.7,3.4a5.9,5.9,0,0,0,.2,1.4c0,.5.1.9.1,1.4a14.9,14.9,0,0,1,.2,2.1v.5a.4.4,0,0,1,.1.3,2.5,2.5,0,0,0,.1.8v.4a12.1,12.1,0,0,1-.1,2l-.3.4h-.1a2,2,0,0,1-1.3-.1h-.3l-.6-.2h-.2l-1.1-.5h-.1c-1-2.3-4.1-3.7-4.1-3.7a11.3,11.3,0,0,0-1.1-4,11.7,11.7,0,0,0-3.5-3.5l-.3-.2-1.2-.5H97.3c-.2,0-.4.2-.6.3h-.1l-.4.6h0a1.1,1.1,0,0,0,0,.8c.1.3.1.7.2,1.1s.1.2.1.4l1.1,4.2h0v.2c.1.1.1.2.1.4a1.9,1.9,0,0,1,.2.7.1.1,0,0,1,.1.1.4.4,0,0,0,.1.3h0c0,.1.1.3.1.4h.1v.2h0c0,.1.1.2.1.3h.1c0,.1.1.2.1.3h0v.4l.7,1,.2.2h0l.3.4c0,.1.1.2.2.3l1,1.4c0,.1.1.2.2.3l1,1.4.3.4.4.6.2.4.3.4.3.4c0,.1,0,.2.1.2l.2.4.3.4.3.5c0,.1,0,.2.1.2l.2.4a4.9,4.9,0,0,1,.4,1.1c1.2,3,2.8,2.7,4.3,3.8l1.2.9.5.3.2.2,1.4,1.1.6.5.3.2.4.5,1.7,1.7c2.7,2.9,8.2,4.9,8.2,4.9l.6,1.4,1.3,2.7,5-1.7,5.9-2.7,5.6-3.2,3.7-2.6c-1.9-3.3-.6-1.2-.8-2s-.1-.4-.1-.6a6.4,6.4,0,0,1-.2-.7v-.6c-.1-.3-.1-.6-.2-1v-1.1q-.1-2-.3-4.5a62.6,62.6,0,0,0-3.5-17.2,2,2,0,0,0-.4-.8.1.1,0,0,0-.1-.1h-1c0-.1-.1-.2-.1-.3s-.2-.5-.3-.8h0a3.6,3.6,0,0,0-1.1-1.6l-.7-.4-.4-.2a5.8,5.8,0,0,0-2.9-.5h-.2a1.3,1.3,0,0,1-.9-.2l-.3-.6h0a2.7,2.7,0,0,0-2.1-1.6l-1.1-.2h-1.7l-.8-.3h0l-.5-.7a2.4,2.4,0,0,0-1.5-1.1,5.3,5.3,0,0,0-1.2-.3l-1.9-.2h-.6l-.6-.2c-1.8-.9-2.4-3.2-3-4.9l-.5-1.2c-.4-.8-.7-1.7-1.1-2.5a14.2,14.2,0,0,0-.8-1.8,10.8,10.8,0,0,0-.8-1.9l-.9-2.1h-.1a15.4,15.4,0,0,0-.8-1.9c0-.1-.1-.3-.1-.4l-.3-.6c-.3-.6.2.5-.1-.1a3.6,3.6,0,0,0-.4-.9c-.5-1.3-1.1-2.6-1.7-3.9h0c-.5-1.1-1.1-2.2-1.6-3.4l-.3-.7h-.1a7.3,7.3,0,0,0-1.8.9c0,.1-.1.1-.2.1h-.1l-.6.4h-.1l-.4.5-.2.3-.3.6c0,.2-.1.5-.1.7a1.9,1.9,0,0,0-.1.8h0a7.4,7.4,0,0,0,.1,2.1v.4c.1.6.1,1.2.2,1.7s.1.4.1.6h.3Z"/><path class="cls-19" d="M108.9,124.3c.3-.3,0-1.2-.1-1.5a2.4,2.4,0,0,0-.9-1.3,3.7,3.7,0,0,0-3.5-.7c.2-1.6.5-3.3-.2-4.8a5.4,5.4,0,0,0-1-1.6c-1.6-2-3.6-3-5.7-4.2h2l1.2.5.3.2a11.7,11.7,0,0,1,3.5,3.5,11.3,11.3,0,0,1,1.1,4s3.1,1.4,4.1,3.7h0A3.5,3.5,0,0,1,108.9,124.3Z"/><path class="cls-17" d="M99.6,116.5a1.7,1.7,0,0,1-1.1,1.4h-.9c-.6-2.1-1.1-4.4-1.4-5.7a1.7,1.7,0,0,1,1.1-2h0l.7-.2,1.5,5.5A2.8,2.8,0,0,1,99.6,116.5Z"/><path class="cls-17" d="M111.8,82.7c-.3.5,0,.2-.4.6a1.5,1.5,0,0,1-2.1-.1,7.8,7.8,0,0,1-1.2-2.2c-.5-1.5-1.1-3-1.7-4.5l.2-.2a5.5,5.5,0,0,1,1.9-.9Z"/><path class="cls-19" d="M108.5,75.4c1.2,2.7,2.5,5.3,3.6,8s1.6,3.5,2.7,6.1,2.2,4.9,3.2,7.4,1.2,4,3,4.9a8.5,8.5,0,0,0,3.1.6,3.3,3.3,0,0,1,2.7,1.4l.5.7h0l.8.3h.5a16,16,0,0,1,2.3.3,2.7,2.7,0,0,1,2.1,1.6h0l.3.6a1.3,1.3,0,0,0,.9.2h.2a5.8,5.8,0,0,1,2.9.5,4,4,0,0,1,2.2,2.2h0c.1.5.2,1,.6,1.2h.7a1.7,1.7,0,0,1,.6,1,62.6,62.6,0,0,1,3.5,17.2c.3,5,.2,8.1,1.8,11a38.9,38.9,0,0,1,2.5,5,27.8,27.8,0,0,0-2.6-3.2,14.5,14.5,0,0,1-1.8-3.5l-.9-2.3c-.7-1.5-1.7-3.4-1.4-5.1a19.5,19.5,0,0,0,.8-5.3c-.2-4.1-1.5-8.1-2-12.2a2.1,2.1,0,0,0-.4-1.1.8.8,0,0,0-1.1-.1,5.1,5.1,0,0,0-2.8-3.7,2.8,2.8,0,0,0-2-.3,1.7,1.7,0,0,0-1.4,1.5,7.8,7.8,0,0,0-2.3-3.8,2.7,2.7,0,0,0-3.9.4,5.1,5.1,0,0,0-3.3-2.6,4.6,4.6,0,0,0-2.6-.3,11.2,11.2,0,0,0,.9,4.4c-6.2-9.7-9-19-13.3-29.6-.5-1.2-1.2-2.6-2.4-2.7S108.4,75.2,108.5,75.4Z"/><path class="cls-116" d="M141,117.4c-.5-2-.9-4-1.3-6.1a3,3,0,0,1-.2-1c.1.5.2,1,.6,1.2h.2a19.4,19.4,0,0,0,.2,3.4A18.9,18.9,0,0,1,141,117.4Z"/><path class="cls-116" d="M134.9,117.1c-.6-3.4-1.2-6.9-1.9-10.3h0l.3.6a1.3,1.3,0,0,0,.9.2h.2a6.6,6.6,0,0,0-.1,2.8Z"/><path class="cls-116" d="M128.7,113.3c-.4-2.9-.9-5.8-1.4-8.8h0l.8.3h.5v.4C128.5,108,129.1,110.7,128.7,113.3Z"/><path class="cls-16" d="M116.3,126.4c0-1-1-1.8-1.9-2.2a8.9,8.9,0,0,1-3-1.1l-.5-.5c.9.3,1.9.7,2.4.5s.4-3.6.3-4.5a58.7,58.7,0,0,0-1.8-11l-.6-1.9a32,32,0,0,1-.9-6.2,3,3,0,0,0-.2-1,2.4,2.4,0,0,0-.6-1.1,20.2,20.2,0,0,1-2.6-8.4,2.7,2.7,0,0,0-.3-1.2,4.7,4.7,0,0,0-.6-.9,8.5,8.5,0,0,1-1.2-2.8,14.9,14.9,0,0,1-.3-4.2,3.9,3.9,0,0,1,1.1-2.9l1-.7v.2c-1.1,3-1.4,4.7-.4,7.7a13.6,13.6,0,0,0,1,2.1c.2.3.6.6.7.9s0,.5,0,1,.7,1.4.9,2.1l1.1,3c.5,1.4.6,3.7,2.3,4.1a1.6,1.6,0,0,0-.7,1.1,5.1,5.1,0,0,0,.8,3.6,3.3,3.3,0,0,0,1,1.4c.2.2,1,.9,1.3.8a2.6,2.6,0,0,0-1,2.5,13.3,13.3,0,0,0,1,2.8C116.6,115,116.4,120.7,116.3,126.4Z"/><path class="cls-16" d="M127.4,149.2h-1.7l-1.3-2.7s-5.5-2-8.2-4.9l-1.7-1.7-.4-.5-.3-.2-.6-.5-1.4-1.1-.2-.2-.5-.3-1.2-.9c-1.5-1.1-3.1-.8-4.3-3.8a4.9,4.9,0,0,0-.4-1.1l-.2-.4c-.1,0-.1-.1-.1-.2l-.3-.5-.3-.4-.2-.4c-.1,0-.1-.1-.1-.2l-.3-.4-.3-.4-.2-.4-.4-.6-.3-.4-1-1.4c-.1-.1-.2-.2-.2-.3l-1-1.4c-.1-.1-.2-.2-.2-.3h0l-.3-.4-.2-.2-.7-1c0-.1,0-.2-.1-.2v-.2h0c0-.1-.1-.2-.1-.3h-.1c0-.1-.1-.2-.1-.3h0v-.2h-.1c0-.1-.1-.3-.1-.4h0a.4.4,0,0,1-.1-.3.1.1,0,0,0-.1-.1,1.9,1.9,0,0,0-.2-.7c0-.2,0-.3-.1-.4V118h0l-1.1-4.2c0-.2,0-.3-.1-.4a5.2,5.2,0,0,1-.2-1.1,1.1,1.1,0,0,1,0-.8h0l.4-.6h.1c.2-.1.4-.3.6-.3h0l1.2,5.1a.6.6,0,0,0,.1.4h0a2.4,2.4,0,0,0,.2.8,3.1,3.1,0,0,0,.2.8h0a7.5,7.5,0,0,0,1,2l.3.3h.1a4.3,4.3,0,0,1,.9,1,3,3,0,0,1,.2,1.3,6.6,6.6,0,0,0,1.1,2.6c1,1.5,2,3,2.9,4.6a14.4,14.4,0,0,0,2.7,3.3,4.3,4.3,0,0,0,3.9,1.1,15.7,15.7,0,0,0,9.7,8.5c.3-1.1.5-2.3.8-3.4C123.8,141.7,125.5,145.3,127.4,149.2Z"/><image width="394" height="123" transform="translate(55.9 97.7) rotate(4.9) scale(0.12)" xlink:href="../../../../slic-website%20work/Group%20157.png"/></g></g></svg>