<?xml version="1.0" encoding="utf-8"?>
<!-- Generator: Adobe Illustrator 23.0.3, SVG Export Plug-In . SVG Version: 6.00 Build 0)  -->
<svg version="1.1" xmlns="http://www.w3.org/2000/svg" xmlns:xlink="http://www.w3.org/1999/xlink" x="0px" y="0px"
	 viewBox="0 0 180 180" style="enable-background:new 0 0 180 180;" xml:space="preserve">
<style type="text/css">
	.st0{display:none;}
	.st1{display:inline;fill:#FFE2B3;}
	.st2{fill:#FDB32C;}
	.st3{display:inline;fill:#DD8B07;}
	.st4{display:inline;fill:#FFFFFF;}
	.st5{display:inline;}
	.st6{fill:#FFE2B3;}
	.st7{fill-rule:evenodd;clip-rule:evenodd;fill:#B6B8C6;}
	.st8{fill-rule:evenodd;clip-rule:evenodd;fill:#494F71;}
	.st9{fill-rule:evenodd;clip-rule:evenodd;fill:#121B46;}
	.st10{fill-rule:evenodd;clip-rule:evenodd;fill:url(#SVGID_1_);}
	.st11{fill-rule:evenodd;clip-rule:evenodd;fill:url(#SVGID_2_);}
	.st12{fill-rule:evenodd;clip-rule:evenodd;fill:url(#SVGID_3_);}
	.st13{fill-rule:evenodd;clip-rule:evenodd;fill:url(#SVGID_4_);}
	.st14{fill:#F6BC8C;stroke:#B5573E;stroke-width:1.5;stroke-miterlimit:10;}
	.st15{fill:#F6BC8C;}
	.st16{fill:#B5573E;}
	.st17{fill:#121B46;}
	.st18{fill:none;stroke:#FFFFFF;stroke-width:1.7313;stroke-miterlimit:10;stroke-dasharray:4.0811,3.7717;}
	.st19{display:inline;fill:none;stroke:#FFFFFF;stroke-width:1.7313;stroke-miterlimit:10;stroke-dasharray:4.3119,3.985;}
	.st20{fill:#FFFFFF;stroke:#FFFFFF;stroke-width:0.4394;stroke-miterlimit:10;}
	.st21{fill:#587EF9;}
	.st22{fill:#EEF3F5;}
	.st23{display:inline;fill:#D73535;}
	.st24{display:inline;fill:#F3F4F4;}
</style>
<g id="BACKGROUND" class="st0">
	<rect x="-160" y="-160" class="st1" width="500" height="500"/>
</g>
<g id="OBJECTS">
	<g>
		<g>
			<circle class="st2" cx="50.28" cy="31.77" r="13.17"/>
			<path class="st2" d="M80.97,153.21c-34.54-6.33-69.15-37.31-68.58-74.65c0.09-6.05,1.13-12.21,4.09-17.48
				c2.96-5.27,8.04-9.56,14.01-10.55c10.21-1.7,19.61,5.65,29.87,1.57c5.9-2.35,9.04-7.41,12.85-12.11
				c10.59-13.04,37.82-32.85,54.51-18.51c9.2,7.91,6.77,18.95,2.65,28.7c-2.56,6.06-4.57,13.78,0.83,19
				c5.56,5.37,13.72,5.48,20.75,7.47c8.42,2.38,13.88,8.25,16.24,16.67c2.02,7.2,2.53,18.66-2.03,25.02
				c-4.7,6.54-9.22,13.09-15.33,18.47c-3.75,3.3-7.86,6.18-12.24,8.57C121.23,154.83,100.41,156.77,80.97,153.21z"/>
			<g class="st0">
				<path class="st3" d="M54.68,112.87c6.21-4.42,13.74-14.46,14.84-21.71c0.82-5.38,0.91-11.48-2.38-16.1
					c-2.57-3.62-6.79-5.64-9.83-1.32c-1.03,1.46-1.22,3.33-1.61,5.07c-0.82,3.58-4.76,6.62-7.25,2.33
					c-1.41-2.43-0.36-6.51,0.25-9.02c1.35-5.49,4.28-11.81-0.35-16.6c-1.37-1.42-3.66-2.26-5.33-1.21
					c-1.57,0.98-1.89,3.06-2.32,4.86c-1.49,6.2-6.88,3.6-8.06-1.18c-0.63-2.54-0.54-5.25-1.51-7.68c-1.4-3.54-6.13-5.96-10.07-4.11
					c-3.83,2.07-4.69,7.31-2.68,10.54c1.38,2.22,3.61,3.76,5.28,5.78c3.15,3.8,2.03,9.68-3.84,7.19c-1.7-0.72-3.57-1.7-5.29-1.02
					c-1.84,0.72-2.52,3.06-2.2,5.01c1.09,6.57,7.92,7.97,13.13,10.15c2.38,1,6.29,2.59,7.4,5.16c1.97,4.55-2.82,5.92-6.18,4.44
					c-1.64-0.72-3.25-1.67-5.03-1.72c-5.29-0.13-6.17,4.47-4.79,8.69c1.76,5.4,6.72,8.95,11.53,11.49
					C34.88,115.31,47.43,115.23,54.68,112.87z"/>
				<path class="st4" d="M90.16,126.74c8.4-0.22,21.45-4.77,26.91-10.71c4.05-4.41,7.89-9.92,7.73-16.17
					c-0.12-4.89-2.73-9.33-8.17-7.25c-1.84,0.7-3.16,2.29-4.59,3.64c-2.95,2.77-8.42,3.12-8.06-2.33c0.21-3.08,3.67-6.17,5.78-8.09
					c4.61-4.18,11.17-8.16,9.89-15.38c-0.38-2.14-1.95-4.32-4.13-4.39c-2.03-0.07-3.61,1.63-5.11,3.01
					c-5.17,4.75-8.5-0.94-6.64-6.04c0.99-2.7,2.73-5.13,3.35-7.94c0.89-4.09-1.94-9.21-6.67-9.95c-4.77-0.46-8.78,3.79-8.93,7.98
					c-0.1,2.88,0.99,5.66,1.27,8.52c0.54,5.4-4.1,10.09-7.93,4.2c-1.11-1.7-2.22-3.75-4.2-4.18c-2.12-0.47-4.19,1.25-5.09,3.23
					c-3.04,6.68,2.33,12.16,5.76,17.35c1.57,2.38,4.16,6.23,3.59,9.27c-1,5.37-6.22,3.67-8.38,0.26c-1.05-1.66-1.94-3.53-3.54-4.66
					c-4.75-3.37-8.38,0.29-9.72,4.99c-1.71,6.01,0.64,12.31,3.47,17.59C70.57,116.8,82.08,124.44,90.16,126.74z"/>
				<g class="st5">
					<g>
						<path class="st6" d="M97.07,65.68c-2.1,4.11-2.47,8.82-3.18,13.33c-0.86,5.51-1.7,11.03-2.47,16.56
							c-1.41,10.22-3.2,20.51-3.99,30.8c-0.14,1.84,2.9,2.28,3.25,0.44c1.91-10.14,2.85-20.54,4.15-30.78
							c0.66-5.21,1.25-10.43,1.82-15.66c0.52-4.84,1.52-9.88,0.5-14.69C97.14,65.65,97.09,65.65,97.07,65.68L97.07,65.68z"/>
					</g>
				</g>
				<g class="st5">
					<g>
						<path class="st6" d="M87.51,75.71c-0.21,1.77,0.99,3.8,1.79,5.34c1.09,2.12,2.34,4.17,3.53,6.23c0.9,1.56,3.36,0.13,2.42-1.41
							c-1.32-2.15-2.59-4.35-4.03-6.43c-0.96-1.38-2.02-3.16-3.62-3.79C87.55,75.63,87.51,75.67,87.51,75.71L87.51,75.71z"/>
					</g>
				</g>
				<g class="st5">
					<g>
						<path class="st6" d="M107.66,77.91c-5.76,3.35-10.28,9.59-14.77,14.46c-1.09,1.18,0.69,2.96,1.76,1.76
							c4.46-4.94,10.3-10.03,13.13-16.1C107.83,77.95,107.75,77.86,107.66,77.91L107.66,77.91z"/>
					</g>
				</g>
				<g class="st5">
					<g>
						<path class="st6" d="M76.59,104.01c1.64,2.74,3.12,4.78,5.68,6.83c2.1,1.69,4.45,3.43,6.94,4.49
							c1.59,0.68,2.96-1.43,1.39-2.38c-2.15-1.3-4.36-2.44-6.43-3.87c-2.44-1.68-5.13-3.35-7.44-5.19
							C76.66,103.84,76.53,103.91,76.59,104.01L76.59,104.01z"/>
					</g>
				</g>
				<g class="st5">
					<g>
						<path class="st6" d="M110.96,106.91c-3.83,0.89-7.3,3.19-10.72,5.05c-3.72,2.03-7.4,4.13-11.02,6.34
							c-1.64,1-0.14,3.58,1.51,2.58c3.63-2.19,7.3-4.3,10.93-6.48c3.35-2.02,7.07-3.93,9.61-6.95
							C111.48,107.21,111.29,106.84,110.96,106.91L110.96,106.91z"/>
					</g>
				</g>
			</g>
			<g class="st0">
				<path class="st3" d="M34.58,159.76c-5.66,2.57-15.81,3.76-21.37,1.58c-4.12-1.62-8.46-4.05-10.37-8.26
					c-1.5-3.29-1.2-7.09,3.09-7.47c1.45-0.13,2.84,0.5,4.23,0.94c2.86,0.89,6.61-0.65,4.61-4.16c-1.13-1.98-4.44-2.92-6.46-3.51
					c-4.42-1.29-10.07-1.81-11.55-7.04c-0.44-1.55-0.1-3.5,1.33-4.26c1.33-0.7,2.93-0.08,4.37,0.35c4.98,1.49,5.35-3.37,2.46-6.17
					c-1.53-1.48-3.48-2.53-4.79-4.2c-1.92-2.43-1.69-6.76,1.22-8.78c3.02-1.85,7.07-0.32,8.52,2.42c1,1.88,1.17,4.08,1.91,6.08
					c1.39,3.77,5.99,5.39,6.64,0.23c0.19-1.49,0.26-3.21,1.44-4.14c1.26-1,3.19-0.52,4.43,0.5c4.18,3.46,2.38,8.84,1.78,13.41
					c-0.27,2.09-0.75,5.49,0.61,7.33c2.4,3.25,5.32,0.43,5.66-2.54c0.16-1.45,0.15-2.97,0.85-4.25c2.07-3.78,5.67-2.52,8.08,0.18
					c3.08,3.45,3.56,8.4,3.38,12.82C44.4,146.81,39.21,155.62,34.58,159.76z"/>
				<path class="st4" d="M55.86,156.7c-6.29,3.06-17.67,4.71-23.99,2.41c-4.69-1.7-9.63-4.3-11.91-8.98
					c-1.78-3.66-1.56-7.94,3.25-8.49c1.63-0.19,3.21,0.48,4.78,0.93c3.24,0.91,7.42-0.93,5.06-4.81c-1.33-2.2-5.08-3.15-7.37-3.76
					c-5.01-1.32-11.38-1.74-13.2-7.57c-0.54-1.73-0.21-3.94,1.36-4.83c1.48-0.83,3.3-0.18,4.93,0.26c5.64,1.52,5.92-3.95,2.59-7.01
					c-1.77-1.62-3.99-2.74-5.52-4.58c-2.23-2.68-2.1-7.55,1.11-9.91c3.34-2.17,7.94-0.57,9.66,2.47c1.18,2.08,1.44,4.56,2.33,6.78
					c1.68,4.2,6.9,5.88,7.47,0.06c0.17-1.68,0.2-3.62,1.5-4.7c1.39-1.16,3.57-0.68,5,0.43c4.81,3.76,2.94,9.87,2.4,15.03
					c-0.24,2.36-0.68,6.2,0.9,8.22c2.8,3.58,6,0.33,6.29-3.03c0.14-1.63,0.08-3.35,0.83-4.8c2.22-4.31,6.3-3,9.09-0.04
					c3.57,3.79,4.25,9.34,4.18,14.32C66.51,141.84,60.94,151.9,55.86,156.7z"/>
				<g class="st5">
					<g>
						<path class="st6" d="M27.27,114.29c2.35,7.45,8.43,14.4,12.83,20.78c4.99,7.25,9.84,14.67,15.21,21.64
							c1.05,1.36,3.35,0.15,2.38-1.39c-4.7-7.43-10.02-14.53-15.11-21.7c-4.55-6.4-8.99-14.52-15.26-19.36
							C27.3,114.24,27.26,114.26,27.27,114.29L27.27,114.29z"/>
					</g>
				</g>
				<g class="st5">
					<g>
						<path class="st6" d="M38.14,118c-1.91,2.56-1.5,7.5-1.72,10.53c-0.11,1.49,2.26,1.5,2.33,0c0.13-3.04,1.11-7.77-0.52-10.53
							C38.21,117.96,38.16,117.96,38.14,118L38.14,118z"/>
					</g>
				</g>
				<g class="st5">
					<g>
						<path class="st6" d="M24.14,127.48c4.37,3.45,10.77,4.95,15.93,6.87c1.25,0.47,1.8-1.55,0.55-2c-5.09-1.84-10.96-4.82-16.42-5
							C24.13,127.35,24.08,127.44,24.14,127.48L24.14,127.48z"/>
					</g>
				</g>
				<g class="st5">
					<g>
						<path class="st6" d="M57.01,134.67c-1.89,4.17-4.37,8.17-6.8,12.06c-0.67,1.08,0.98,2.43,1.8,1.39
							c3.1-3.9,4.85-8.52,5.14-13.41C57.16,134.63,57.04,134.6,57.01,134.67L57.01,134.67z"/>
					</g>
				</g>
				<g class="st5">
					<g>
						<path class="st6" d="M32.87,150.56c6.04,2.39,13.97,1.62,20.38,2.03c1.6,0.1,1.59-2.38,0-2.49
							c-6.36-0.43-14.14-1.58-20.38-0.06C32.59,150.11,32.64,150.47,32.87,150.56L32.87,150.56z"/>
					</g>
				</g>
			</g>
			<g class="st0">
				<path class="st3" d="M139.39,160c5.69,2.92,16.07,4.64,21.89,2.66c4.32-1.47,8.89-3.75,11.07-7.98c1.7-3.31,1.58-7.23-2.81-7.83
					c-1.48-0.2-2.94,0.38-4.39,0.76c-2.98,0.77-6.77-0.99-4.53-4.5c1.26-1.98,4.71-2.78,6.81-3.29c4.6-1.11,10.44-1.37,12.22-6.67
					c0.53-1.57,0.27-3.6-1.15-4.44c-1.33-0.79-3.01-0.23-4.51,0.15c-5.19,1.28-5.34-3.73-2.23-6.46c1.65-1.45,3.7-2.43,5.13-4.08
					c2.09-2.41,2.07-6.86-0.83-9.08c-3.01-2.05-7.25-0.67-8.88,2.07c-1.12,1.88-1.41,4.14-2.26,6.16c-1.61,3.81-6.42,5.25-6.83-0.09
					c-0.12-1.54-0.11-3.31-1.28-4.33c-1.25-1.09-3.25-0.69-4.58,0.3c-4.47,3.35-2.88,8.97-2.49,13.69c0.18,2.16,0.5,5.68-0.98,7.5
					c-2.63,3.22-5.49,0.18-5.69-2.89c-0.1-1.49-0.01-3.06-0.66-4.41c-1.95-3.98-5.7-2.86-8.31-0.21c-3.33,3.4-4.06,8.46-4.1,13.02
					C129.94,146.21,134.84,155.51,139.39,160z"/>
				<path class="st4" d="M123.34,157.54c6.29,3.06,17.67,4.71,23.99,2.41c4.69-1.7,9.63-4.3,11.91-8.98
					c1.78-3.66,1.56-7.94-3.25-8.49c-1.63-0.19-3.21,0.48-4.78,0.93c-3.24,0.91-7.42-0.93-5.06-4.81c1.33-2.2,5.08-3.15,7.37-3.76
					c5.01-1.32,11.38-1.74,13.2-7.57c0.54-1.73,0.21-3.94-1.36-4.83c-1.48-0.83-3.3-0.18-4.93,0.26c-5.64,1.52-5.92-3.95-2.59-7.01
					c1.77-1.62,3.99-2.74,5.52-4.58c2.23-2.68,2.1-7.55-1.11-9.91c-3.34-2.17-7.94-0.57-9.66,2.47c-1.18,2.08-1.44,4.56-2.33,6.78
					c-1.68,4.2-6.9,5.88-7.47,0.06c-0.17-1.68-0.2-3.62-1.5-4.7c-1.39-1.16-3.57-0.68-5,0.43c-4.81,3.76-2.94,9.87-2.4,15.03
					c0.24,2.36,0.68,6.2-0.9,8.22c-2.8,3.58-6,0.33-6.29-3.03c-0.14-1.63-0.08-3.35-0.83-4.8c-2.22-4.31-6.3-3-9.09-0.04
					c-3.57,3.79-4.25,9.34-4.18,14.32C112.68,142.68,118.26,152.74,123.34,157.54z"/>
				<g class="st5">
					<g>
						<path class="st6" d="M151.87,115.1c-6.25,4.83-10.73,12.99-15.26,19.36c-5.1,7.17-10.41,14.27-15.11,21.7
							c-0.98,1.54,1.33,2.75,2.38,1.39c5.37-6.97,10.22-14.4,15.21-21.64c4.41-6.41,10.47-13.3,12.83-20.78
							C151.93,115.1,151.89,115.08,151.87,115.1L151.87,115.1z"/>
					</g>
				</g>
				<g class="st5">
					<g>
						<path class="st6" d="M140.96,118.83c-1.62,2.76-0.65,7.49-0.52,10.53c0.07,1.5,2.43,1.49,2.33,0
							c-0.21-3.03,0.19-7.97-1.72-10.53C141.03,118.8,140.98,118.79,140.96,118.83L140.96,118.83z"/>
					</g>
				</g>
				<g class="st5">
					<g>
						<path class="st6" d="M155,128.19c-5.46,0.18-11.34,3.16-16.42,5c-1.25,0.45-0.7,2.47,0.55,2c5.16-1.92,11.56-3.42,15.93-6.87
							C155.11,128.28,155.07,128.19,155,128.19L155,128.19z"/>
					</g>
				</g>
				<g class="st5">
					<g>
						<path class="st6" d="M122.04,135.55c0.29,4.89,2.04,9.51,5.14,13.41c0.82,1.03,2.49-0.3,1.8-1.39
							c-2.43-3.89-4.9-7.89-6.8-12.06C122.15,135.44,122.03,135.47,122.04,135.55L122.04,135.55z"/>
					</g>
				</g>
				<g class="st5">
					<g>
						<path class="st6" d="M146.32,150.88c-6.24-1.52-14.02-0.36-20.38,0.06c-1.59,0.11-1.6,2.59,0,2.49
							c6.4-0.42,14.34,0.36,20.38-2.03C146.55,151.31,146.6,150.95,146.32,150.88L146.32,150.88z"/>
					</g>
				</g>
			</g>
		</g>
		<g>
			<g>
				<path class="st7" d="M162.33,83.78c0.68-1.95,0.44-3.86-0.66-4.93c-1.53-1.5-2.44-1.78-2.44-1.78l-36.99-3.5
					c-2.67-0.52-5.58,1.15-6.5,3.74l-25.51,71.75c-0.19,0.38-0.28,0.99-0.23,1.71c0.19,2.69,2.26,4.87,4.91,5.38l33.95,6.5
					c2.67,0.52,5.58-1.16,6.5-3.74C135.35,158.9,159.18,92.83,162.33,83.78z"/>
				<path class="st8" d="M90.22,148.51l25.7-71.73c0.85-2.4,3.56-3.96,6.03-3.47l36.2,3.4c2.47,0.48,3.79,2.83,2.93,5.23
					l-26.76,75.22c-0.85,2.4-3.56,3.96-6.03,3.47l-35.13-6.88C90.68,153.25,89.37,150.91,90.22,148.51z"/>
				<path class="st9" d="M112.85,150.57c1.23,0.53,1.76,2.01,1.19,3.3c-0.57,1.29-2.02,1.9-3.25,1.37c-1.23-0.53-1.76-2.01-1.19-3.3
					C110.17,150.65,111.62,150.03,112.85,150.57z"/>
				<path class="st9" d="M155.37,78.29c0.5,0.2,0.66,0.75,0.37,1.23c-0.29,0.48-0.93,0.71-1.43,0.51c-0.5-0.2-0.66-0.75-0.37-1.23
					S154.87,78.09,155.37,78.29z"/>
				<path class="st9" d="M161.15,81.7c-0.02,0.08-0.04,0.16-0.07,0.24l-25.28,71.05l-44.11-8.56l24.21-67.58L161.15,81.7z"/>
				<linearGradient id="SVGID_1_" gradientUnits="userSpaceOnUse" x1="182.3376" y1="47.1626" x2="125.7648" y2="105.3753">
					<stop  offset="0" style="stop-color:#DBDDE3"/>
					<stop  offset="1" style="stop-color:#DBDDE3;stop-opacity:0"/>
				</linearGradient>
				<path class="st10" d="M124.61,112.19c10.36-10.36,20.72-20.72,31.08-31.08l-10.19-1.09c-1.77,1.77-3.54,3.54-5.31,5.31
					c-10.99,10.99-21.99,21.98-33.01,32.95c-3.18,3.17-6.36,6.33-9.53,9.49l-5.97,16.65l0.59,0.11
					C103.05,133.75,113.83,122.97,124.61,112.19z"/>
				<linearGradient id="SVGID_2_" gradientUnits="userSpaceOnUse" x1="190.1542" y1="54.759" x2="133.5814" y2="112.9717">
					<stop  offset="0" style="stop-color:#DBDDE3"/>
					<stop  offset="1" style="stop-color:#DBDDE3;stop-opacity:0"/>
				</linearGradient>
				<path class="st11" d="M125.91,123.03c3.25-3.25,6.51-6.51,9.76-9.76l22.14-22.14l2.4-6.74c-4.58,4.54-9.15,9.09-13.72,13.64
					c-10.8,10.77-21.59,21.57-32.38,32.35c-5.13,5.13-10.27,10.26-15.41,15.39l3.74,0.73C110.26,138.68,118.09,130.86,125.91,123.03
					z"/>
				<path class="st9" d="M111.69,158.96l-2.06-0.42c-0.27-0.06-0.4-0.37-0.24-0.6l0.21-0.3c0.09-0.12,0.24-0.19,0.39-0.16l1.62,0.29
					c0.12,0.02,0.22,0.09,0.27,0.2l0.23,0.42C112.27,158.68,112.02,159.02,111.69,158.96z"/>
			</g>
			<g>
				<path class="st7" d="M9.38,83.78c-0.68-1.95-0.44-3.86,0.66-4.93c1.53-1.5,2.44-1.78,2.44-1.78l36.99-3.5
					c2.67-0.52,5.58,1.15,6.5,3.74l25.51,71.75c0.19,0.38,0.28,0.99,0.23,1.71c-0.19,2.69-2.26,4.87-4.91,5.38l-33.95,6.5
					c-2.67,0.52-5.58-1.16-6.5-3.74C36.35,158.9,12.52,92.83,9.38,83.78z"/>
				<path class="st8" d="M81.48,148.51l-25.7-71.73c-0.85-2.4-3.56-3.96-6.03-3.47l-36.2,3.4c-2.47,0.48-3.79,2.83-2.93,5.23
					l26.76,75.22c0.85,2.4,3.56,3.96,6.03,3.47l35.13-6.88C81.02,153.25,82.33,150.91,81.48,148.51z"/>
				<path class="st9" d="M58.85,150.57c-1.23,0.53-1.76,2.01-1.19,3.3c0.57,1.29,2.02,1.9,3.25,1.37c1.23-0.53,1.76-2.01,1.19-3.3
					C61.53,150.65,60.08,150.03,58.85,150.57z"/>
				<path class="st9" d="M16.33,78.29c-0.5,0.2-0.66,0.75-0.37,1.23c0.29,0.48,0.93,0.71,1.43,0.51c0.5-0.2,0.66-0.75,0.37-1.23
					S16.83,78.09,16.33,78.29z"/>
				<path class="st9" d="M10.55,81.7c0.02,0.08,0.04,0.16,0.07,0.24l25.28,71.05l44.11-8.56L55.8,76.84L10.55,81.7z"/>
				<linearGradient id="SVGID_3_" gradientUnits="userSpaceOnUse" x1="20.3449" y1="57.2553" x2="70.6929" y2="103.0747">
					<stop  offset="0" style="stop-color:#DBDDE3"/>
					<stop  offset="1" style="stop-color:#DBDDE3;stop-opacity:0"/>
				</linearGradient>
				<path class="st12" d="M41,86.17c9.42,9.44,18.86,18.87,28.29,28.3L55.8,76.84l-21.77,2.33C36.35,81.51,38.67,83.84,41,86.17z"/>
				<linearGradient id="SVGID_4_" gradientUnits="userSpaceOnUse" x1="18.8998" y1="72.8667" x2="45.539" y2="105.8993">
					<stop  offset="0" style="stop-color:#DBDDE3"/>
					<stop  offset="1" style="stop-color:#DBDDE3;stop-opacity:0"/>
				</linearGradient>
				<path class="st13" d="M49.95,111.42c1.11-1.11,2.21-2.22,3.32-3.33L25.28,80.12l-5.97,0.64c3.72,3.72,7.44,7.44,11.17,11.17
					C36.97,98.42,43.46,104.92,49.95,111.42z"/>
				<path class="st9" d="M60.01,158.96l2.06-0.42c0.27-0.06,0.4-0.37,0.24-0.6l-0.21-0.3c-0.09-0.12-0.24-0.19-0.39-0.16l-1.62,0.29
					c-0.12,0.02-0.22,0.09-0.27,0.2l-0.23,0.42C59.43,158.68,59.68,159.02,60.01,158.96z"/>
			</g>
			<g>
				<path class="st14" d="M86.98,121.94c-0.66-0.04-8.25,0.56-8.25,0.56l-31.38-12.33c-1.58,0.08-3.9,3.47-4.97,8.28
					c-0.46,2.05-0.55,4.24,0.02,6.28c0.13,0.48,0.29,1.01,0.49,1.53l25.22,6.4l4.03,5.67l12.26,7.58c2.14,0.66,2.83-0.87,2.83-0.87
					l0.63,0.46c3.06,0.89,3.36-1.68,3.36-1.68l1.04,0.9c2.61,1.29,4.03-1.71,4.03-1.71l0.97,0.96c3.78,0.58,4.73-2.45,4.73-2.45
					S87.65,121.98,86.98,121.94z"/>
				<path class="st15" d="M68.9,130.38l-26.52-10.07c-0.11,1.51-0.05,3,0.36,4.5c0.1,0.37,0.22,0.77,0.36,1.17l25.21,6.4l3.26,4.58
					L68.9,130.38z"/>
				<path class="st14" d="M83.27,145.28l-1.5,0.3c0,0-1.56,0.06-1.86-1.03c-0.3-1.09,0.87-2.64,0.87-2.64s0.75-1.07,1.78-0.43
					c1.04,0.64,1.45,1.78,0.43,3.21L83.27,145.28z"/>
				<path class="st14" d="M79.58,143.58l1.43-2.52c0,0,1.03-1.92-0.97-2.72c-2-0.81-3.14,3.14-3.32,3.87c0,0-0.47,1.25,0.82,1.88
					C78.82,144.72,79.58,143.58,79.58,143.58z"/>
				<path class="st14" d="M76.38,141.33l2.09-3.81c0,0,1.03-1.92-0.97-2.72c-2-0.8-3.02,2.34-3.54,3.75c0,0-1.45,2.34,0.37,3.29
					C75.61,142.5,76.38,141.33,76.38,141.33z"/>
				<path class="st14" d="M73.12,139l1.43-2.52c0,0,1.03-1.92-0.97-2.72c-2-0.81-3.14,3.14-3.32,3.87c0,0-0.47,1.25,0.82,1.88
					C72.36,140.15,73.12,139,73.12,139z"/>
				<g>
					<g>
						<path class="st16" d="M85.9,128.12c-0.29,0.37-0.76,1.01-0.72,1.49c0.03,0.34,0.32,0.62,0.68,0.52
							c0.69-0.19,0.97-1.19,0.75-1.82C86.52,128.04,86.12,127.85,85.9,128.12L85.9,128.12z"/>
					</g>
				</g>
				<g>
					<g>
						<path class="st16" d="M91.67,127.12c-0.36,0.82-0.03,1.55,0.58,2.15c0.53,0.53,1.37-0.32,0.82-0.82
							c-0.42-0.37-0.76-0.89-1.1-1.33C91.89,127.03,91.73,126.98,91.67,127.12L91.67,127.12z"/>
					</g>
				</g>
				<g>
					<g>
						<path class="st16" d="M97.52,132.56c-0.34-0.07-0.67-0.02-1.02-0.02c-0.4-0.01-0.61-0.02-0.92,0.25
							c-0.23,0.2-0.18,0.55,0,0.76c0.49,0.56,1.66,0.26,2.15-0.18C98,133.14,97.87,132.63,97.52,132.56L97.52,132.56z"/>
					</g>
				</g>
				<g>
					<g>
						<path class="st16" d="M91.51,136.15c0.49,1.71,1.79,3.27,2.8,4.69c0.77,1.08,1.73,3.2,3.04,3.67
							c0.23,0.08,0.48-0.13,0.47-0.36c-0.03-1.47-1.89-3.2-2.72-4.34c-0.97-1.32-1.97-2.92-3.34-3.86
							C91.63,135.87,91.47,136.01,91.51,136.15L91.51,136.15z"/>
					</g>
				</g>
				<g>
					<g>
						<path class="st16" d="M87.65,137.92c0.18,1.26,0.98,2.39,1.6,3.48c0.64,1.11,1.21,2.38,2.1,3.3c0.38,0.39,1.08-0.01,0.92-0.54
							c-0.4-1.29-1.34-2.45-2.09-3.57c-0.67-1.01-1.29-2.14-2.27-2.87C87.78,137.61,87.63,137.78,87.65,137.92L87.65,137.92z"/>
					</g>
				</g>
				<g>
					<g>
						<path class="st16" d="M83.8,139.38c0.09,1.06,0.72,1.99,1.24,2.89c0.62,1.05,1.2,2.15,1.99,3.07
							c0.39,0.45,0.95-0.12,0.75-0.58c-0.5-1.14-1.27-2.17-1.96-3.21c-0.54-0.81-1.09-1.72-1.94-2.22
							C83.85,139.31,83.8,139.34,83.8,139.38L83.8,139.38z"/>
					</g>
				</g>
				<path class="st17" d="M92.87,121.71c-0.75-0.01-2.75,0.29-4.97,1.55l-4.62,3.28l-2.04,5.26c0,0-0.13,1.61,1.49,1.94
					c0.95,0.2,1.93-0.22,2.52-0.99l1.83-2.37l5.78-0.74V121.71z"/>
				<path class="st14" d="M130.88,126.35c0.07-0.9,0.07-1.99,0.08-2.2c0.1-2.33,0.02-4.7-0.52-6.98c-0.49-2.02-1.36-4.81-3.72-5.32
					l-27.96,10.75c0,0-6.04-2.17-6.7-2.21c-0.65-0.04-2.74,0.22-5.08,1.54l-4.62,3.28l-2.04,5.26c0,0-0.13,1.61,1.49,1.94
					c0.95,0.2,1.93-0.22,2.52-0.99l1.83-2.37l5.97-0.77l9.07,12.14l4.05-6.17c0,0,25.3-6.64,25.3-6.64
					C130.73,127.58,130.83,127.02,130.88,126.35z"/>
				<path class="st15" d="M130.74,126.34c0.21-1.94,0.46-3.9,0.31-5.85c-0.01-0.16-0.03-0.33-0.05-0.49l-26.05,9.78l-5.34,3.88
					l-7.33-5.68l8.92,11.93l3.87-5.89l0.12-0.03l25.43-6.67C130.67,126.98,130.71,126.66,130.74,126.34z"/>
			</g>
		</g>
		<g>
			<g>
				<path class="st6" d="M115.65,18.66c0.5,0,0.5-0.78,0-0.78C115.15,17.88,115.14,18.66,115.65,18.66L115.65,18.66z"/>
			</g>
		</g>
		<g>
			<g>
				
					<ellipse transform="matrix(0.9239 -0.3827 0.3827 0.9239 -11.3102 66.0054)" class="st18" cx="160.26" cy="61.43" rx="7.51" ry="7.51"/>
			</g>
			<g class="st0">
				
					<ellipse transform="matrix(0.9732 -0.2298 0.2298 0.9732 -4.8674 15.1365)" class="st19" cx="62.57" cy="28.47" rx="10.57" ry="10.57"/>
			</g>
			<g class="st0">
				
					<ellipse transform="matrix(0.3827 -0.9239 0.9239 0.3827 -0.1909 184.7686)" class="st19" cx="138.17" cy="92.53" rx="10.57" ry="10.57"/>
			</g>
			<g>
				<path class="st20" d="M130.6,40.43c-7.17,0-12.99,4.78-12.99,10.67c0,2.92,1.43,5.56,3.74,7.49V63l3.3-2.41
					c1.78,0.76,3.81,1.19,5.95,1.19c7.17,0,12.99-4.78,12.99-10.67C143.59,45.21,137.77,40.43,130.6,40.43z"/>
				<path class="st17" d="M125.84,50.92c0,0.77-0.63,1.4-1.4,1.4c-0.77,0-1.4-0.63-1.4-1.4c0-0.77,0.63-1.4,1.4-1.4
					C125.22,49.52,125.84,50.15,125.84,50.92z"/>
				<path class="st17" d="M132.43,50.92c0,0.77-0.63,1.4-1.4,1.4c-0.77,0-1.4-0.63-1.4-1.4c0-0.77,0.63-1.4,1.4-1.4
					C131.8,49.52,132.43,50.15,132.43,50.92z"/>
				<path class="st17" d="M139.01,50.92c0,0.77-0.63,1.4-1.4,1.4c-0.77,0-1.4-0.63-1.4-1.4c0-0.77,0.63-1.4,1.4-1.4
					C138.38,49.52,139.01,50.15,139.01,50.92z"/>
			</g>
			<g>
				<path class="st21" d="M70.46,70.47l-1.29-12.76c-0.26-2.61-2.59-4.5-5.2-4.24l-20.74,2.1c-2.61,0.26-4.5,2.59-4.24,5.2
					l1.29,12.76c0.19,1.91,1.5,3.44,3.22,4.02v4.24l4.25-4.25l18.47-1.87C68.83,75.4,70.72,73.08,70.46,70.47z"/>
				<path class="st22" d="M54.71,70.69l5.85-0.61c0.05,0,0.09-0.02,0.13-0.04c0.2-0.11,0.62-0.37,0.76-0.77
					c0.08-0.24,0.05-0.49-0.1-0.77l0,0c-0.08-0.15-0.05-0.34,0.09-0.45l0,0c0.07-0.06,0.69-0.63,0.24-1.36v0
					c-0.09-0.15-0.06-0.35,0.07-0.47l0,0c0.06-0.06,0.6-0.58,0.16-1.25l0,0c-0.1-0.16-0.07-0.37,0.08-0.48h0
					c0,0,0.52-0.44,0.38-0.94c-0.11-0.37-0.88-0.37-1.08-0.35l-3.9,0.37c-0.25,0.02-0.45-0.2-0.39-0.45v0
					c0.12-0.48,0.36-1.91,0.08-2.67c-0.28-0.76-0.68-1.43-0.85-1.7c-0.04-0.06-0.08-0.1-0.15-0.13c-0.06-0.03-0.14-0.06-0.23-0.07
					c-0.17-0.02-0.35,0.02-0.52,0.14c-0.11,0.07-0.16,0.21-0.15,0.34l0.18,1.72l-0.02,0.06c-0.02,0.07-0.46,1.76-1.76,3.82
					l-0.03,0.05l-0.67,0.52l-0.15,0.08l0.49,4.7c0.02,0.2,0.2,0.35,0.4,0.33l0,0c0.06-0.01,0.13,0,0.19,0.03l0.73,0.33
					C54.58,70.69,54.64,70.7,54.71,70.69z"/>
				<path class="st22" d="M48.91,71.69l3.7-0.38l-0.3-2.89l-0.36-3.45l-3.7,0.38L48.91,71.69z"/>
			</g>
			<g class="st0">
				<path class="st23" d="M115.96,83.32l-17.85-2.03c-2.24-0.26-4.27,1.36-4.52,3.6l-1.25,10.98c-0.26,2.24,1.36,4.27,3.6,4.52
					l11.75,1.34l5.26,5.35l0.59-4.69l0.26,0.03c2.24,0.26,4.27-1.36,4.52-3.6l1.25-10.98C119.82,85.61,118.2,83.58,115.96,83.32z"/>
				<path class="st24" d="M111.91,91.24c0.13-1.57-0.64-3.11-2.54-3.34c-1.18-0.14-2.28,0.42-2.88,1.35c-0.36-1.05-1.3-1.86-2.47-2
					c-2.6-0.32-3.84,2.37-3.09,4.51c0.8,2.26,2.54,4.04,4.6,5.21l0.04,0c2.15-0.6,4.43-1.85,5.67-3.77
					C111.62,92.61,111.85,91.92,111.91,91.24z"/>
			</g>
		</g>
	</g>
</g>
</svg>
