<?xml version="1.0" encoding="utf-8"?>
<!-- Generator: Adobe Illustrator 23.0.3, SVG Export Plug-In . SVG Version: 6.00 Build 0)  -->
<svg version="1.1" id="Layer_3" xmlns="http://www.w3.org/2000/svg" xmlns:xlink="http://www.w3.org/1999/xlink" x="0px" y="0px"
	 viewBox="0 0 774 558" style="enable-background:new 0 0 774 558;" xml:space="preserve">
<style type="text/css">
	.st0{fill:url(#SVGID_1_);}
	.st1{fill:url(#SVGID_2_);}
	.st2{display:none;}
	.st3{display:inline;fill:url(#SVGID_3_);}
	.st4{display:inline;opacity:0.45;}
	.st5{fill:#FFFFFF;}
	.st6{display:inline;}
	.st7{fill:url(#SVGID_4_);}
	.st8{fill:url(#SVGID_5_);}
	.st9{display:inline;fill:url(#SVGID_6_);}
	.st10{display:inline;opacity:0.5;}
	.st11{fill:url(#SVGID_7_);}
	.st12{fill:url(#SVGID_8_);}
	.st13{display:inline;fill:url(#SVGID_9_);}
	.st14{display:inline;fill:url(#SVGID_10_);}
	.st15{fill:url(#SVGID_11_);}
	.st16{fill:url(#SVGID_12_);}
	.st17{fill:url(#SVGID_13_);}
	.st18{fill:url(#SVGID_14_);}
	.st19{fill:url(#SVGID_15_);}
	.st20{fill:url(#SVGID_16_);}
	.st21{fill:url(#SVGID_17_);}
	.st22{fill:url(#SVGID_18_);}
	.st23{fill:url(#SVGID_19_);}
	.st24{fill:url(#SVGID_20_);}
	.st25{fill:url(#SVGID_21_);}
	.st26{fill:url(#SVGID_22_);}
	.st27{fill:url(#SVGID_23_);}
	.st28{fill:url(#SVGID_24_);}
	.st29{fill:url(#SVGID_25_);}
	.st30{fill:url(#SVGID_26_);}
	.st31{fill:url(#SVGID_27_);}
	.st32{fill:url(#SVGID_28_);}
	.st33{fill:url(#SVGID_29_);}
	.st34{fill:url(#SVGID_30_);}
	.st35{fill:url(#SVGID_31_);}
	.st36{fill:url(#SVGID_32_);}
	.st37{fill:url(#SVGID_33_);}
	.st38{fill:url(#SVGID_34_);}
	.st39{opacity:0.5;fill:url(#SVGID_35_);enable-background:new    ;}
	.st40{display:none;fill:#FFFFFF;}
	.st41{fill:#E992EC;}
	.st42{fill:url(#SVGID_36_);}
	.st43{fill:url(#SVGID_37_);}
	.st44{fill:#2B528A;}
	.st45{fill:#F7C263;}
	.st46{fill:url(#SVGID_38_);}
	.st47{fill:url(#SVGID_39_);}
	.st48{fill:url(#SVGID_40_);}
	.st49{fill:url(#SVGID_41_);}
	.st50{fill:url(#SVGID_42_);}
	.st51{fill:url(#SVGID_43_);}
	.st52{fill:url(#SVGID_44_);}
	.st53{fill:url(#SVGID_45_);}
	.st54{fill:url(#SVGID_46_);}
	.st55{fill:url(#SVGID_47_);}
	.st56{fill:url(#SVGID_48_);}
	.st57{fill:url(#SVGID_49_);}
	.st58{fill:url(#SVGID_50_);}
	.st59{fill:url(#SVGID_51_);}
	.st60{fill:url(#SVGID_52_);}
	.st61{fill:url(#SVGID_53_);}
	.st62{fill:url(#SVGID_54_);}
	.st63{fill:url(#SVGID_55_);}
	.st64{fill:url(#SVGID_56_);}
	.st65{fill:url(#SVGID_57_);}
	.st66{fill:url(#SVGID_58_);}
	.st67{fill:url(#SVGID_59_);}
	.st68{fill:url(#SVGID_60_);}
	.st69{fill:url(#SVGID_61_);}
	.st70{fill:#FFAA00;}
	.st71{display:inline;fill:#FFFFFF;}
	.st72{fill-rule:evenodd;clip-rule:evenodd;fill:#FFFFFF;}
</style>
<g>
	<g>
		<g>
			
				<linearGradient id="SVGID_1_" gradientUnits="userSpaceOnUse" x1="54.0325" y1="268.5581" x2="732.56" y2="268.5581" gradientTransform="matrix(1 0 0 -1 0 557)">
				<stop  offset="0" style="stop-color:#E9EFFD"/>
				<stop  offset="1" style="stop-color:#DAE3FE"/>
			</linearGradient>
			<path class="st0" d="M717.2,328.6l-45.6-61c-10-13.4-15.7-29.6-16.2-46.4c-0.8-29.6-16.2-56.9-41-73.1l-28.8-18.7
				c-25.4-16.5-54.8-26-85-27.5l-168.5-8.3c-30.5-1.5-59.9,11.4-79.4,34.9L214,175.3c-9.6,11.5-21.6,20.7-35.3,26.9l-64,28.8
				c-37.9,17.1-61.8,55.3-60.6,96.9l0.8,27.5l6,41.8C66,432.1,92.4,460,127,467l51.3,10.3c27,5.5,54.7,7.3,82.2,5.5L661,456.3
				c40.1-2.7,71.6-36,71.6-76.2v-5.8C732.6,357.8,727,341.8,717.2,328.6z"/>
			
				<linearGradient id="SVGID_2_" gradientUnits="userSpaceOnUse" x1="109.3516" y1="323.5193" x2="704.9234" y2="193.5744" gradientTransform="matrix(1 0 0 -1 0 557)">
				<stop  offset="0" style="stop-color:#DAE3FE"/>
				<stop  offset="1" style="stop-color:#E9EFFD"/>
			</linearGradient>
			<path class="st1" d="M88.3,331.1c4.8-31.5,22.2-59.7,48.1-78.3l99.8-71.7c4.7-3.4,8.3-8.1,10.3-13.5l8.5-22.6
				c4.3-11.6,15.5-19.2,27.9-18.9l203.1,4c41.7,0.8,81.3,18.9,109.2,49.8l0.1,0.1c14.2,15.7,24.9,34.2,31.4,54.2l19.2,58.8
				c2.3,6.9,6.4,13.1,11.9,17.9c19.5,16.8,39.9,30.2,42.9,58c4.6,43.5-34.7,59-70.2,62.8c-94.5,10.1-188.6,15.7-283.6,17.9
				c-20.3,0.5-40.5,0.9-60.8,1.1c-31.3,0.4-63.2-3.2-93.5-10.9l-52.7-13.3c-36.1-9.1-59.3-44.1-53.6-80.8L88.3,331.1z"/>
		</g>
		<g class="st2">
			
				<linearGradient id="SVGID_3_" gradientUnits="userSpaceOnUse" x1="77.2972" y1="155.226" x2="195.8913" y2="155.226" gradientTransform="matrix(1 0 0 -1 0 557)">
				<stop  offset="0" style="stop-color:#B37CFF"/>
				<stop  offset="1" style="stop-color:#F895E7"/>
			</linearGradient>
			<path class="st3" d="M192.8,310.1c0-1.3-0.6-2.6-1.5-3.5s-2.2-1.4-3.5-1.4L82,308.7c-2.7,0.1-4.8,2.4-4.7,5.1l5.2,179.6
				c0.1,2.7,2.3,4.9,4.9,4.9l104.3-0.3c1.3,0,1.8-1.3,2.8-2.2s1.4-2.3,1.4-3.6L192.8,310.1z"/>
			<g class="st4">
				<polygon class="st5" points="95.4,326 95.2,321.5 129.6,319.9 129.8,324.4 				"/>
				<polygon class="st5" points="95.9,338.6 95.7,334.1 130.1,332.5 130.2,337 				"/>
				<polygon class="st5" points="96.3,351.1 96.2,346.6 130.5,345.1 130.6,349.6 				"/>
				<polygon class="st5" points="96.8,363.7 96.6,359.2 130.9,357.7 131.1,362.2 				"/>
				<polygon class="st5" points="97.3,376.2 97.1,371.7 131.4,370.3 131.5,374.7 				"/>
				<polygon class="st5" points="98.2,401.1 98,396.7 132.2,395.3 132.4,399.8 				"/>
				<polygon class="st5" points="99.5,438.4 99.4,434 133.5,432.7 133.6,437.1 				"/>
				<polygon class="st5" points="97.7,388.7 97.6,384.2 131.8,382.8 131.9,387.3 				"/>
				<polygon class="st5" points="98.6,413.6 98.5,409.2 132.6,407.8 132.8,412.2 				"/>
				<polygon class="st5" points="99.1,426 98.9,421.6 133.1,420.3 133.2,424.7 				"/>
				<polygon class="st5" points="100,450.8 99.8,446.4 133.9,445.1 134.1,449.5 				"/>
				<polygon class="st5" points="100.4,463.2 100.3,458.8 134.3,457.5 134.5,461.9 				"/>
				<polygon class="st5" points="100.9,475.5 100.7,471.1 134.8,469.9 134.9,474.3 				"/>
				<polygon class="st5" points="101.3,487.8 101.2,483.4 135.2,482.2 135.3,486.6 				"/>
				<polygon class="st5" points="140.3,323.9 140.1,319.4 174.7,317.8 174.8,322.4 				"/>
				<polygon class="st5" points="140.7,336.5 140.5,332 175.1,330.5 175.2,335 				"/>
				<polygon class="st5" points="141.1,349.1 141,344.7 175.5,343.1 175.6,347.6 				"/>
				<polygon class="st5" points="141.5,361.7 141.4,357.3 175.9,355.8 176,360.2 				"/>
				<polygon class="st5" points="141.9,374.3 141.8,369.8 176.3,368.3 176.4,372.8 				"/>
				<polygon class="st5" points="142.8,399.3 142.6,394.9 177,393.5 177.2,397.9 				"/>
				<polygon class="st5" points="144,436.7 143.9,432.3 178.2,431 178.3,435.4 				"/>
				<polygon class="st5" points="142.4,386.8 142.2,382.4 176.6,380.9 176.8,385.4 				"/>
				<polygon class="st5" points="143.2,411.8 143.1,407.4 177.4,406 177.6,410.4 				"/>
				<polygon class="st5" points="143.6,424.3 143.5,419.8 177.8,418.5 177.9,422.9 				"/>
				<polygon class="st5" points="144.4,449.1 144.3,444.7 178.6,443.4 178.7,447.8 				"/>
				<polygon class="st5" points="144.9,461.5 144.7,457.1 179,455.8 179.1,460.3 				"/>
				<polygon class="st5" points="145.3,473.9 145.1,469.5 179.3,468.2 179.5,472.7 				"/>
				<polygon class="st5" points="145.7,486.2 145.5,481.8 179.7,480.6 179.9,485 				"/>
			</g>
		</g>
		<g class="st2">
			<g class="st6">
				
					<linearGradient id="SVGID_4_" gradientUnits="userSpaceOnUse" x1="-5087.8511" y1="4015.9954" x2="-5177.0396" y2="3751.4221" gradientTransform="matrix(-0.457 -0.8895 0.8895 -0.457 -5149.5498 -2305.9397)">
					<stop  offset="0" style="stop-color:#8D55D1"/>
					<stop  offset="0.9964" style="stop-color:#1C2873"/>
				</linearGradient>
				<path class="st7" d="M709.9,398c8.5-4.4,19-1,23.4,7.5s1,19-7.5,23.4l0,0c-4.7,2.4-8.2,6.8-9.5,12c-1.5,5.9-5.5,11.2-11.3,14.2
					l0,0c-5.7,3-9.8,8.4-10.9,14.7c-1.3,7.4-6,14.1-13.3,17.9c-12.3,6.4-27.5,1.5-33.8-10.9c-6.3-12.4-1.5-27.5,10.9-33.9
					c0.7-0.3,1.3-0.6,2-0.9c6.6-2.7,11.8-8,14.4-14.7c1.9-4.9,5.5-9.1,10.5-11.7c2.2-1.1,4.5-1.9,6.8-2.2c4.7-0.7,8.7-3.6,10.8-7.8
					C703.9,402.4,706.5,399.7,709.9,398z"/>
				<path class="st5" d="M717.4,413.2c-5.7,4.7-11,9.8-16.2,15.1c-1.3,1.3-2.6,2.6-3.8,4c-1.3,1.4-2.6,2.7-3.8,4l-3.7,4.1l-3.6,4.2
					c-4.8,5.6-9.4,11.4-13.8,17.3c-2.2,2.9-4.3,6-6.5,9c-1.1,1.5-2.1,3.1-3.1,4.6l-3,4.6l0,0c-0.3,0.4-0.8,0.5-1.3,0.3
					s-0.5-0.8-0.3-1.3v0l3.1-4.6c1-1.5,2-3.1,3.2-4.6c2.2-3,4.3-6.1,6.6-9c4.4-6,9.2-11.7,14-17.3l3.7-4.2l3.8-4.1
					c1.2-1.4,2.6-2.7,3.8-4s2.6-2.6,3.9-4c5.3-5.2,10.7-10.3,16.4-15c0.2-0.2,0.5-0.1,0.7,0.1S717.6,413,717.4,413.2L717.4,413.2z"
					/>
				<path class="st5" d="M719.4,424.5c-3.4,0.6-10.7,1.5-14.4-0.3c-0.3-0.1-0.3-0.4-0.2-0.7c0.1-0.3,0.4-0.4,0.7-0.2
					c4.5,2.2,15.3-0.1,15.5-0.1c0.3-0.1,0.5,0.1,0.6,0.4c0.1,0.3-0.1,0.5-0.4,0.6C721,424.2,720.4,424.3,719.4,424.5z"/>
				<path class="st5" d="M705.2,423.9C705.2,423.9,705.2,423.9,705.2,423.9c-0.3,0-0.6-0.2-0.6-0.4c0-0.3-1-7.7,1.1-13.6
					c0.1-0.3,0.4-0.4,0.7-0.3s0.4,0.4,0.3,0.6c-1.9,5.6-1,13-1,13.1C705.6,423.6,705.4,423.8,705.2,423.9z"/>
				<path class="st5" d="M699.9,443.5c-3.7,0.6-8.5,1-12.9-0.4c-0.3-0.1-0.4-0.4-0.3-0.6c0.1-0.3,0.4-0.4,0.6-0.3
					c7.8,2.4,17.9-1,18-1c0.3-0.1,0.6,0,0.7,0.3c0.1,0.3,0,0.6-0.3,0.6C705.5,442.2,703.2,443,699.9,443.5z"/>
				<path class="st5" d="M687,443.1c-0.2,0-0.4-0.1-0.5-0.3c-0.1-0.3-3.5-7.4-0.3-17.9c0.1-0.3,0.4-0.4,0.6-0.3
					c0.3,0.1,0.4,0.4,0.3,0.6c-3,10.2,0.3,17.1,0.3,17.2c0.1,0.3,0,0.6-0.2,0.7C687.1,443.1,687.1,443.1,687,443.1z"/>
				<path class="st5" d="M666.8,468.1c-0.2,0-0.4-0.1-0.5-0.3c-0.2-0.3-4.3-8.5-2.2-18.1c0.1-0.3,0.3-0.5,0.6-0.4
					c0.3,0.1,0.5,0.3,0.4,0.6c-2,9.2,2.1,17.3,2.1,17.4c0.1,0.3,0,0.6-0.2,0.7C667,468,666.9,468.1,666.8,468.1z"/>
				<path class="st5" d="M678.6,469c-7,1.2-11.6-0.6-11.8-0.7c-0.3-0.1-0.4-0.4-0.3-0.7c0.1-0.3,0.4-0.4,0.7-0.3
					c0.1,0,7.3,2.8,17.2-1c0.3-0.1,0.6,0,0.7,0.3s0,0.6-0.3,0.7C682.6,468.1,680.5,468.6,678.6,469z"/>
			</g>
			<g class="st6">
				
					<linearGradient id="SVGID_5_" gradientUnits="userSpaceOnUse" x1="323.1981" y1="1572.1349" x2="208.916" y2="1233.1244" gradientTransform="matrix(1 -2.900000e-03 -2.900000e-03 -1 380.6771 1885.8403)">
					<stop  offset="0" style="stop-color:#2B3582"/>
					<stop  offset="1" style="stop-color:#150E42"/>
				</linearGradient>
				<path class="st8" d="M706.2,363.9c0-12.3-10-22.2-22.3-22.2c-12.3,0-22.2,10-22.2,22.3l0,0c0,6.8-2.9,13.3-8,17.9
					c-5.9,5.2-9.5,12.8-9.5,21.3c0,8.3-3.8,16.1-10.3,21.1c-7.7,5.9-12.6,15.2-12.5,25.6c0,17.8,14.5,32.2,32.3,32.1
					c17.8,0,32.2-14.5,32.1-32.3c0-1,0-1.9-0.1-2.8c-0.8-9.1,2.2-18.1,8.2-25c4.5-5,7.1-11.6,7.1-18.9c0-3.2-0.5-6.2-1.5-9.1
					c-2-5.7-1-12,2.5-16.9C704.7,373.3,706.2,368.8,706.2,363.9z"/>
				<path class="st5" d="M685.6,364.6c-1,4.7-2.2,9.3-3.4,13.9c-0.6,2.3-1.3,4.6-2,6.9c-0.7,2.3-1.3,4.6-2.1,6.8
					c-2.9,9-6,18-9.5,26.9c-3.5,8.8-7.2,17.6-11.3,26.2c-1,2.1-2,4.3-3.1,6.4l-3.2,6.4c-1,2.1-2.2,4.2-3.3,6.3l-3.4,6.3
					c-0.3,0.6-1,0.8-1.6,0.5s-0.8-1-0.5-1.6c0,0,0,0,0,0l0,0l3.5-6.2c1.2-2.1,2.4-4.1,3.5-6.2c2.2-4.2,4.5-8.4,6.5-12.6
					c4.2-8.5,8-17.1,11.7-25.9l2.7-6.6l2.5-6.6l0.6-1.7l0.6-1.7l1.2-3.4c0.8-2.2,1.5-4.5,2.3-6.7c2.9-9,5.6-18.1,7.6-27.4v0
					c0-0.3,0.3-0.4,0.5-0.4C685.5,364.1,685.6,364.3,685.6,364.6z"/>
				<path class="st5" d="M679.8,384.9c-0.1,0-0.3,0-0.4-0.1c-5.5-4-9.3-17.7-9.5-18.3c-0.1-0.3,0.1-0.5,0.4-0.6
					c0.3-0.1,0.5,0.1,0.6,0.4c0,0.1,3.9,13.9,9.1,17.7c0.2,0.2,0.3,0.5,0.1,0.7C680,384.8,679.9,384.9,679.8,384.9z"/>
				<path class="st5" d="M680.2,384.9c-0.2,0-0.5-0.1-0.6-0.3c-0.1-0.3,0-0.6,0.3-0.6c0.1,0,9.1-3.4,14.4-8.9c0.2-0.2,0.5-0.2,0.7,0
					c0.2,0.2,0.2,0.5,0,0.7C689.6,381.4,680.7,384.7,680.2,384.9C680.3,384.9,680.3,384.9,680.2,384.9z"/>
				<path class="st5" d="M668.8,416.6c-0.2,0-0.3,0-0.5-0.1c-7.6-7.8-9.7-21.2-9.8-21.7c0-0.3,0.2-0.5,0.4-0.6
					c0.3,0,0.5,0.1,0.6,0.4c0,0.1,2.2,13.6,9.5,21.2c0.2,0.2,0.2,0.5,0,0.7C669,416.5,668.9,416.6,668.8,416.6z"/>
				<path class="st5" d="M671,416.6c-1.2,0.2-2,0.2-2.1,0.2c-0.3,0-0.5-0.2-0.5-0.5c0-0.3,0.2-0.5,0.5-0.5c0.1,0,10-0.4,19.8-9.8
					c0.2-0.2,0.5-0.2,0.7,0c0.2,0.2,0.2,0.5,0,0.7C682,413.9,674.5,416,671,416.6z"/>
				<path class="st5" d="M656.8,454c-2.6,0.4-4.4,0.5-4.4,0.5c-0.3,0-0.5-0.2-0.5-0.5s0.2-0.5,0.5-0.5c0.1,0,11.8-0.1,21.1-7.9
					c0.2-0.2,0.5-0.1,0.7,0.1s0.2,0.5-0.1,0.7C668.2,451.4,661.2,453.3,656.8,454z"/>
				<path class="st5" d="M652.1,454.4c-0.1,0-0.3,0-0.4-0.1c-0.3-0.3-7.8-7-9.4-20.9c0-0.3,0.2-0.5,0.5-0.6s0.5,0.2,0.6,0.5
					c1.5,13.5,9,20.2,9,20.2c0.2,0.2,0.2,0.5,0,0.7C652.3,454.3,652.2,454.4,652.1,454.4z"/>
			</g>
		</g>
		<g class="st2">
			
				<linearGradient id="SVGID_6_" gradientUnits="userSpaceOnUse" x1="550.29" y1="173.825" x2="656.1307" y2="173.825" gradientTransform="matrix(1 0 0 -1 0 557)">
				<stop  offset="0" style="stop-color:#B37CFF"/>
				<stop  offset="1" style="stop-color:#F895E7"/>
			</linearGradient>
			<path class="st9" d="M652,272.5c0-2.4-2-4.5-4.5-4.5h-92.3c-2.5,0-4.9,2.1-4.9,4.6v221.2c0,1.2,0.7,2.3,1.5,3.2
				c0.8,0.8,2.1,1.3,3.3,1.3l96.5-0.3c1.2,0,2.4-0.5,3.2-1.4c0.8-0.9,1.3-2,1.3-3.3L652,272.5z"/>
			<g class="st10">
				<g>
					<polygon class="st5" points="584,294.1 557.7,294.1 557.5,280.6 583.8,280.6 					"/>
					<polygon class="st5" points="613.5,294.1 587.2,294 587,280.6 613.3,280.6 					"/>
					<polygon class="st5" points="642.9,294.1 616.7,294 616.5,280.6 642.8,280.6 					"/>
				</g>
				<g>
					<polygon class="st5" points="584.3,318.3 558.1,318.3 557.9,304.9 584.2,304.9 					"/>
					<polygon class="st5" points="613.8,318.3 587.5,318.3 587.4,304.9 613.6,304.9 					"/>
					<polygon class="st5" points="643.2,318.3 617,318.3 616.8,304.9 643,304.9 					"/>
				</g>
				<g>
					<polygon class="st5" points="584.7,342.3 558.5,342.4 558.3,329 584.5,329 					"/>
					<polygon class="st5" points="614,342.3 587.9,342.3 587.7,329 613.9,329 					"/>
					<polygon class="st5" points="643.4,342.3 617.2,342.3 617.1,329 643.3,328.9 					"/>
				</g>
				<g>
					<polygon class="st5" points="585,366.3 558.8,366.3 558.6,353 584.8,353 					"/>
					<polygon class="st5" points="614.3,366.2 588.2,366.3 588,353 614.2,352.9 					"/>
					<polygon class="st5" points="643.6,366.2 617.5,366.2 617.4,352.9 643.5,352.9 					"/>
				</g>
				<g>
					<polygon class="st5" points="585.3,390.1 559.2,390.2 559,376.9 585.2,376.9 					"/>
					<polygon class="st5" points="614.6,390.1 588.5,390.1 588.3,376.9 614.5,376.8 					"/>
					<polygon class="st5" points="643.8,390 617.8,390.1 617.6,376.8 643.7,376.8 					"/>
				</g>
				<g>
					<polygon class="st5" points="585.7,413.9 559.6,414 559.4,400.8 585.5,400.7 					"/>
					<polygon class="st5" points="614.9,413.8 588.8,413.9 588.7,400.7 614.7,400.6 					"/>
					<polygon class="st5" points="644.1,413.8 618,413.8 617.9,400.6 643.9,400.6 					"/>
				</g>
				<g>
					<polygon class="st5" points="586,437.6 560,437.7 559.7,424.5 585.8,424.5 					"/>
					<polygon class="st5" points="615.2,437.5 589.2,437.6 589,424.4 615,424.4 					"/>
					<polygon class="st5" points="644.3,437.5 618.3,437.5 618.2,424.4 644.2,424.3 					"/>
				</g>
				<g>
					<polygon class="st5" points="586.3,461.2 560.3,461.3 560.1,448.2 586.1,448.1 					"/>
					<polygon class="st5" points="615.4,461.1 589.5,461.2 589.3,448.1 615.3,448 					"/>
					<polygon class="st5" points="644.5,461 618.6,461.1 618.4,448 644.4,448 					"/>
				</g>
				<g>
					<polygon class="st5" points="586.6,484.8 560.7,484.9 560.5,471.8 586.4,471.7 					"/>
					<polygon class="st5" points="615.7,484.7 589.8,484.8 589.6,471.7 615.5,471.6 					"/>
					<polygon class="st5" points="644.7,484.6 618.8,484.6 618.7,471.6 644.6,471.5 					"/>
				</g>
			</g>
		</g>
		<g class="st2">
			<g class="st6">
				
					<linearGradient id="SVGID_7_" gradientUnits="userSpaceOnUse" x1="-3725.0378" y1="1552.2758" x2="-3837.3757" y2="1219.032" gradientTransform="matrix(0.4923 -0.8705 -0.8705 -0.4923 3278.9202 -2118.7744)">
					<stop  offset="0" style="stop-color:#8D55D1"/>
					<stop  offset="0.9964" style="stop-color:#1C2873"/>
				</linearGradient>
				<path class="st11" d="M140.9,378.6c-10.5-5.9-23.8-2.2-29.8,8.3c-5.9,10.5-2.2,23.9,8.3,29.8l0,0c5.8,3.3,10,9,11.4,15.5
					c1.6,7.5,6.3,14.4,13.6,18.5l0,0c7.1,4,11.9,11.1,13,19.1c1.3,9.4,6.9,18.1,15.8,23.2c15.2,8.6,34.5,3.3,43.1-12
					c8.6-15.2,3.3-34.5-12-43.1c-0.8-0.5-1.6-0.9-2.5-1.3c-8.2-3.7-14.5-10.7-17.4-19.2c-2.1-6.2-6.5-11.8-12.7-15.3
					c-2.7-1.5-5.6-2.6-8.5-3.1c-5.8-1.1-10.8-5-13.2-10.4C148.2,384.5,145.1,381,140.9,378.6z"/>
				<path class="st5" d="M131.6,396.5c7,6.2,13.6,12.9,19.9,19.7c1.6,1.7,3.2,3.4,4.7,5.2c1.5,1.8,3.1,3.5,4.6,5.3l4.5,5.3l4.4,5.4
					c5.8,7.3,11.5,14.8,16.8,22.5c2.7,3.8,5.2,7.7,7.8,11.6c1.3,1.9,2.5,4,3.7,5.9l3.7,6c0.3,0.5,0.2,1.3-0.4,1.6
					c-0.5,0.3-1.3,0.2-1.6-0.4l0,0l0,0l-3.6-6c-1.2-2-2.4-4-3.6-5.9c-2.5-3.9-5-7.9-7.7-11.7c-5.2-7.7-10.8-15.2-16.5-22.5l-4.4-5.5
					l-4.5-5.4c-1.5-1.8-3-3.5-4.6-5.3c-1.5-1.8-3.1-3.5-4.6-5.2c-6.3-6.9-12.8-13.6-19.6-19.8l0,0c-0.3-0.2-0.3-0.6-0.1-0.9
					C130.9,396.3,131.3,396.2,131.6,396.5z"/>
				<path class="st5" d="M139.1,412.9c-6.2,0-13.3-1.8-13.7-1.9c-0.3-0.1-0.6-0.4-0.5-0.8c0.1-0.3,0.4-0.5,0.8-0.5
					c0.1,0,13.7,3.4,19.5,0.9c0.3-0.1,0.7,0,0.9,0.3c0.1,0.3,0,0.7-0.3,0.9C144,412.6,141.6,412.9,139.1,412.9z"/>
				<path class="st5" d="M145.7,411.5c0,0-0.1,0-0.1,0c-0.4-0.1-0.6-0.4-0.5-0.7c0-0.1,1.5-9.4-0.6-16.6c-0.1-0.3,0.1-0.7,0.4-0.8
					c0.3-0.1,0.7,0.1,0.8,0.4c2.3,7.5,0.7,16.8,0.7,17.1C146.3,411.3,146,411.5,145.7,411.5z"/>
				<path class="st5" d="M160.3,437.5c-8.3,0-15.9-2.9-16.3-3c-0.3-0.1-0.5-0.5-0.4-0.8s0.5-0.5,0.8-0.4c0.1,0,12.6,4.8,22.6,2.2
					c0.3-0.1,0.7,0.1,0.8,0.5s-0.1,0.7-0.5,0.8C165.1,437.3,162.7,437.5,160.3,437.5z"/>
				<path class="st5" d="M167.5,436.6c-0.1,0-0.2,0-0.3-0.1c-0.3-0.2-0.4-0.6-0.3-0.9c0.1-0.1,4.5-8.7,1.2-21.6
					c-0.1-0.3,0.1-0.7,0.5-0.8c0.3-0.1,0.7,0.1,0.8,0.5c3.4,13.4-1.1,22.2-1.3,22.5C168,436.5,167.8,436.6,167.5,436.6z"/>
				<path class="st5" d="M191.7,469.1c-0.1,0-0.2,0-0.3-0.1c-0.3-0.2-0.4-0.6-0.2-0.9c0.1-0.1,5.6-10.1,3.5-21.8
					c-0.1-0.4,0.2-0.7,0.5-0.7s0.7,0.2,0.7,0.5c2.1,12.1-3.4,22.2-3.7,22.6C192.1,469,191.9,469.1,191.7,469.1z"/>
				<path class="st5" d="M183.9,470.4c-3.9,0-9-0.7-14.8-3.2c-0.3-0.1-0.5-0.5-0.3-0.8c0.1-0.3,0.5-0.5,0.8-0.3
					c12.3,5.3,21.5,2.1,21.6,2.1c0.3-0.1,0.7,0.1,0.8,0.4c0.1,0.3-0.1,0.7-0.4,0.8C191.4,469.4,188.5,470.4,183.9,470.4z"/>
			</g>
			<g class="st6">
				
					<linearGradient id="SVGID_8_" gradientUnits="userSpaceOnUse" x1="-2499.5017" y1="1674.5391" x2="-2643.448" y2="1247.5306" gradientTransform="matrix(-0.9991 -4.300000e-02 4.300000e-02 -0.9991 -2415.5061 1848.225)">
					<stop  offset="0" style="stop-color:#2B3582"/>
					<stop  offset="1" style="stop-color:#150E42"/>
				</linearGradient>
				<path class="st12" d="M142.5,346.7c0.7-15.5,13.7-27.5,29.2-26.8c15.5,0.7,27.4,13.7,26.8,29.2l0,0c-0.4,8.6,3,16.9,9.2,22.9
					c7.1,6.9,11.4,16.6,10.9,27.3l0,0c-0.4,10.4,4,20.4,11.9,27.1c9.3,7.8,15.1,19.7,14.5,32.9c-1,22.4-19.9,39.8-42.3,38.8
					c-22.4-1-39.8-19.9-38.8-42.3c0.1-1.2,0.1-2.4,0.3-3.5c1.5-11.4-1.8-23-9.1-31.9c-5.3-6.5-8.4-15-8-24.1c0.2-4,1-7.8,2.4-11.4
					c2.8-7.1,1.9-15.1-2.4-21.5C143.9,358.6,142.2,352.9,142.5,346.7z"/>
				<path class="st5" d="M169.6,348.4c2,11.7,4.9,23.3,8.2,34.8c0.8,2.9,1.6,5.7,2.5,8.6l1.3,4.3l0.6,2.1l0.7,2.1l2.8,8.5l3,8.4
					c4.1,11.2,8.5,22.3,13.4,33.1c2.4,5.5,5,10.8,7.5,16.2c1.3,2.7,2.7,5.3,4,8l4.1,7.9l0,0c0.4,0.8,0.1,1.7-0.6,2
					c-0.8,0.4-1.7,0.1-2.1-0.6c0,0,0,0,0,0l-4-8.1c-1.3-2.7-2.7-5.4-3.9-8.1l-3.7-8.2c-1.3-2.7-2.4-5.5-3.6-8.2
					c-4.8-11-9-22.2-12.9-33.5c-3.9-11.3-7.5-22.7-10.6-34.3c-0.8-2.9-1.5-5.8-2.3-8.7c-0.8-2.9-1.4-5.8-2.1-8.7
					c-1.3-5.8-2.6-11.7-3.6-17.6c-0.1-0.3,0.2-0.6,0.5-0.7C169.2,347.9,169.5,348.1,169.6,348.4L169.6,348.4z"/>
				<path class="st5" d="M174.8,374.4c-0.2,0-0.4-0.1-0.5-0.3c-0.2-0.3-0.1-0.7,0.2-0.9c6.7-4.5,12.3-21.7,12.3-21.9
					c0.1-0.3,0.5-0.5,0.8-0.4c0.3,0.1,0.5,0.5,0.4,0.8c-0.2,0.7-5.7,17.8-12.8,22.5C175.1,374.4,174.9,374.4,174.8,374.4z"/>
				<path class="st5" d="M174.3,374.4c-0.1,0-0.2,0-0.2,0c-0.5-0.2-11.6-4.8-18.1-12.3c-0.2-0.3-0.2-0.7,0.1-0.9
					c0.3-0.2,0.7-0.2,0.9,0.1c6.4,7.3,17.5,11.9,17.6,12c0.3,0.1,0.5,0.5,0.4,0.8C174.8,374.3,174.5,374.4,174.3,374.4z"/>
				<path class="st5" d="M187,414.9c-0.2,0-0.3-0.1-0.5-0.2c-0.2-0.3-0.2-0.7,0-0.9c9.6-9.2,13-26,13-26.2c0.1-0.4,0.4-0.6,0.8-0.5
					c0.4,0.1,0.6,0.4,0.5,0.8c-0.1,0.7-3.5,17.4-13.4,26.9C187.3,414.8,187.2,414.9,187,414.9z"/>
				<path class="st5" d="M186.8,415.2C186.8,415.2,186.7,415.2,186.8,415.2c-0.6,0-13.1-1-25.3-13.8c-0.2-0.3-0.2-0.7,0-0.9
					c0.3-0.2,0.7-0.2,0.9,0c11.9,12.4,24.3,13.4,24.4,13.4c0.4,0,0.6,0.3,0.6,0.7C187.4,414.9,187.1,415.2,186.8,415.2z"/>
				<path class="st5" d="M205.6,463.4C205.6,463.4,205.6,463.4,205.6,463.4c-0.2,0-15.3-0.8-27-11.3c-0.3-0.2-0.3-0.6-0.1-0.9
					c0.2-0.3,0.6-0.3,0.9,0c11.4,10.2,26.1,11,26.2,11c0.4,0,0.6,0.3,0.6,0.7C206.3,463.2,206,463.4,205.6,463.4z"/>
				<path class="st5" d="M206.1,463.3c-0.2,0-0.4-0.1-0.5-0.2c-0.2-0.3-0.2-0.7,0.1-0.9c0.1-0.1,9.8-8.1,12.4-25
					c0.1-0.4,0.4-0.6,0.7-0.5c0.4,0,0.6,0.4,0.5,0.7c-2.7,17.4-12.5,25.5-12.9,25.8C206.4,463.2,206.3,463.3,206.1,463.3z"/>
			</g>
		</g>
		<g class="st2">
			
				<linearGradient id="SVGID_9_" gradientUnits="userSpaceOnUse" x1="448.31" y1="184.085" x2="563.6105" y2="184.085" gradientTransform="matrix(1 0 0 -1 0 557)">
				<stop  offset="0" style="stop-color:#A737D5"/>
				<stop  offset="1" style="stop-color:#EF497A"/>
			</linearGradient>
			<path class="st13" d="M559.1,250.6c0-1.7-1.4-3.1-3.2-3.1h-104c-1.7,0-3.6,1.4-3.6,3.2v242.8c0,1.3,0.7,2.5,1.6,3.5
				c0.9,0.9,2.3,1.4,3.6,1.4l105.2-0.3c1.3,0,2.6-0.5,3.5-1.5c0.9-0.9,1.4-2.2,1.4-3.5L559.1,250.6z"/>
			<g class="st6">
				<polygon class="st5" points="499.3,264.7 465.3,264.6 465.3,260.3 499.3,260.4 				"/>
				<polygon class="st5" points="499.4,280.4 465.3,280.2 465.3,275.9 499.4,276.1 				"/>
				<polygon class="st5" points="499.5,296.2 465.2,296 465.2,291.7 499.5,291.9 				"/>
				<polygon class="st5" points="499.6,312.1 465.1,311.9 465.2,307.5 499.6,307.8 				"/>
				<polygon class="st5" points="499.7,328.2 465.1,327.9 465.1,323.5 499.7,323.8 				"/>
				<polygon class="st5" points="499.9,360.8 465,360.4 465,355.9 499.9,356.3 				"/>
				<polygon class="st5" points="500.2,410.6 464.9,410.2 464.9,405.6 500.2,406 				"/>
				<polygon class="st5" points="499.8,344.4 465,344.1 465.1,339.7 499.8,340 				"/>
				<polygon class="st5" points="500,377.3 465,376.9 465,372.4 500,372.7 				"/>
				<polygon class="st5" points="500.1,393.9 464.9,393.4 464.9,388.9 500.1,389.3 				"/>
				<polygon class="st5" points="500.3,427.6 464.8,427 464.8,422.4 500.3,422.9 				"/>
				<polygon class="st5" points="500.4,444.6 464.8,444 464.8,439.4 500.4,439.9 				"/>
				<polygon class="st5" points="500.5,461.8 464.7,461.2 464.7,456.5 500.5,457.1 				"/>
				<polygon class="st5" points="500.6,479.2 464.6,478.5 464.7,473.8 500.6,474.4 				"/>
				<polygon class="st5" points="543.9,264.9 509.7,264.7 509.7,260.5 543.9,260.6 				"/>
				<polygon class="st5" points="544.2,280.6 509.8,280.4 509.8,276.1 544.1,276.3 				"/>
				<polygon class="st5" points="544.5,296.5 510,296.3 509.9,291.9 544.4,292.1 				"/>
				<polygon class="st5" points="544.8,312.5 510.1,312.2 510.1,307.8 544.7,308.1 				"/>
				<polygon class="st5" points="545.1,328.6 510.2,328.3 510.2,323.9 545,324.1 				"/>
				<polygon class="st5" points="545.6,361.2 510.5,360.9 510.5,356.4 545.6,356.7 				"/>
				<polygon class="st5" points="546.5,411.3 511,410.8 510.9,406.2 546.4,406.7 				"/>
				<polygon class="st5" points="545.3,344.8 510.4,344.5 510.4,340.1 545.3,340.4 				"/>
				<polygon class="st5" points="545.9,377.8 510.7,377.4 510.6,372.9 545.8,373.2 				"/>
				<polygon class="st5" points="546.2,394.5 510.8,394 510.8,389.5 546.1,389.9 				"/>
				<polygon class="st5" points="546.8,428.3 511.1,427.7 511.1,423.1 546.7,423.6 				"/>
				<polygon class="st5" points="547.1,445.4 511.3,444.8 511.2,440.1 547,440.7 				"/>
				<polygon class="st5" points="547.4,462.6 511.4,462 511.4,457.3 547.3,457.9 				"/>
				<polygon class="st5" points="547.7,480 511.5,479.4 511.5,474.6 547.7,475.3 				"/>
			</g>
		</g>
		<g class="st2">
			
				<linearGradient id="SVGID_10_" gradientUnits="userSpaceOnUse" x1="211.5944" y1="85.6667" x2="296.751" y2="305.1817" gradientTransform="matrix(1 0 0 -1 0 557)">
				<stop  offset="0" style="stop-color:#A737D5"/>
				<stop  offset="1" style="stop-color:#EF497A"/>
			</linearGradient>
			<path class="st14" d="M296.3,282.1c0-1.3-0.6-2.6-1.5-3.5c-1-0.9-2.2-1.4-3.5-1.3l-100,4c-1.7,0.1-3.1,1.5-3,3.2l5.1,213.8
				l101.1-1.2c1.3,0,2.5-0.5,3.4-1.5c0.9-0.9,1.4-2.2,1.4-3.5L296.3,282.1z"/>
			<g class="st6">
				<g>
					
						<linearGradient id="SVGID_11_" gradientUnits="userSpaceOnUse" x1="218.7579" y1="252.3066" x2="180.8246" y2="252.1635" gradientTransform="matrix(1 0 0 -1 0 557)">
						<stop  offset="0" style="stop-color:#B37CFF"/>
						<stop  offset="1" style="stop-color:#F895E7"/>
					</linearGradient>
					<polygon class="st15" points="215.5,315.4 200.7,315.4 200,294 214.9,294 					"/>
					
						<linearGradient id="SVGID_12_" gradientUnits="userSpaceOnUse" x1="241.6008" y1="252.3343" x2="205.8092" y2="252.1992" gradientTransform="matrix(1 0 0 -1 0 557)">
						<stop  offset="0" style="stop-color:#B37CFF"/>
						<stop  offset="1" style="stop-color:#F895E7"/>
					</linearGradient>
					<polygon class="st16" points="238.5,315.4 224.5,315.4 223.9,294 238,294 					"/>
					
						<linearGradient id="SVGID_13_" gradientUnits="userSpaceOnUse" x1="265.2306" y1="252.3654" x2="228.4231" y2="252.2265" gradientTransform="matrix(1 0 0 -1 0 557)">
						<stop  offset="0" style="stop-color:#B37CFF"/>
						<stop  offset="1" style="stop-color:#F895E7"/>
					</linearGradient>
					<polygon class="st17" points="262.1,315.3 247.4,315.3 247,294 261.7,294 					"/>
					
						<linearGradient id="SVGID_14_" gradientUnits="userSpaceOnUse" x1="288.5939" y1="252.3947" x2="252.3488" y2="252.258" gradientTransform="matrix(1 0 0 -1 0 557)">
						<stop  offset="0" style="stop-color:#B37CFF"/>
						<stop  offset="1" style="stop-color:#F895E7"/>
					</linearGradient>
					<polygon class="st18" points="285.5,315.2 270.9,315.2 270.6,294 285.3,294 					"/>
				</g>
				<g>
					
						<linearGradient id="SVGID_15_" gradientUnits="userSpaceOnUse" x1="219.7665" y1="217.251" x2="182.2448" y2="217.1094" gradientTransform="matrix(1 0 0 -1 0 557)">
						<stop  offset="0" style="stop-color:#B37CFF"/>
						<stop  offset="1" style="stop-color:#F895E7"/>
					</linearGradient>
					<polygon class="st19" points="216.5,350.2 201.9,350.3 201.2,329.4 215.9,329.3 					"/>
					
						<linearGradient id="SVGID_16_" gradientUnits="userSpaceOnUse" x1="242.3722" y1="217.3701" x2="206.9639" y2="217.2365" gradientTransform="matrix(1 0 0 -1 0 557)">
						<stop  offset="0" style="stop-color:#B37CFF"/>
						<stop  offset="1" style="stop-color:#F895E7"/>
					</linearGradient>
					<polygon class="st20" points="239.3,350 225.4,350.1 224.8,329.3 238.8,329.2 					"/>
					
						<linearGradient id="SVGID_17_" gradientUnits="userSpaceOnUse" x1="265.7578" y1="217.4948" x2="229.3387" y2="217.3573" gradientTransform="matrix(1 0 0 -1 0 557)">
						<stop  offset="0" style="stop-color:#B37CFF"/>
						<stop  offset="1" style="stop-color:#F895E7"/>
					</linearGradient>
					<polygon class="st21" points="262.6,349.9 248.2,350 247.7,329.2 262.3,329.1 					"/>
					
						<linearGradient id="SVGID_18_" gradientUnits="userSpaceOnUse" x1="288.8811" y1="217.6142" x2="253.0127" y2="217.4788" gradientTransform="matrix(1 0 0 -1 0 557)">
						<stop  offset="0" style="stop-color:#B37CFF"/>
						<stop  offset="1" style="stop-color:#F895E7"/>
					</linearGradient>
					<polygon class="st22" points="285.8,349.7 271.4,349.8 271.1,329.1 285.6,329 					"/>
				</g>
				<g>
					
						<linearGradient id="SVGID_19_" gradientUnits="userSpaceOnUse" x1="220.7543" y1="183.0455" x2="183.6359" y2="182.9055" gradientTransform="matrix(1 0 0 -1 0 557)">
						<stop  offset="0" style="stop-color:#B37CFF"/>
						<stop  offset="1" style="stop-color:#F895E7"/>
					</linearGradient>
					<polygon class="st23" points="217.6,384.1 203.1,384.3 202.4,363.8 216.9,363.7 					"/>
					
						<linearGradient id="SVGID_20_" gradientUnits="userSpaceOnUse" x1="243.1276" y1="183.2583" x2="208.0954" y2="183.1261" gradientTransform="matrix(1 0 0 -1 0 557)">
						<stop  offset="0" style="stop-color:#B37CFF"/>
						<stop  offset="1" style="stop-color:#F895E7"/>
					</linearGradient>
					<polygon class="st24" points="240.1,383.9 226.3,384 225.8,363.6 239.6,363.5 					"/>
					
						<linearGradient id="SVGID_21_" gradientUnits="userSpaceOnUse" x1="266.2741" y1="183.4694" x2="230.2358" y2="183.3334" gradientTransform="matrix(1 0 0 -1 0 557)">
						<stop  offset="0" style="stop-color:#B37CFF"/>
						<stop  offset="1" style="stop-color:#F895E7"/>
					</linearGradient>
					<polygon class="st25" points="263.2,383.6 248.9,383.8 248.4,363.5 262.8,363.3 					"/>
					
						<linearGradient id="SVGID_22_" gradientUnits="userSpaceOnUse" x1="289.1622" y1="183.6838" x2="253.6635" y2="183.5498" gradientTransform="matrix(1 0 0 -1 0 557)">
						<stop  offset="0" style="stop-color:#B37CFF"/>
						<stop  offset="1" style="stop-color:#F895E7"/>
					</linearGradient>
					<polygon class="st26" points="286.1,383.4 271.9,383.6 271.6,363.3 285.9,363.1 					"/>
				</g>
				<g>
					
						<linearGradient id="SVGID_23_" gradientUnits="userSpaceOnUse" x1="221.7221" y1="149.5401" x2="184.9986" y2="149.4015" gradientTransform="matrix(1 0 0 -1 0 557)">
						<stop  offset="0" style="stop-color:#B37CFF"/>
						<stop  offset="1" style="stop-color:#F895E7"/>
					</linearGradient>
					<polygon class="st27" points="218.6,417.4 204.2,417.6 203.5,397.6 218,397.4 					"/>
					
						<linearGradient id="SVGID_24_" gradientUnits="userSpaceOnUse" x1="243.8679" y1="149.8378" x2="209.2036" y2="149.707" gradientTransform="matrix(1 0 0 -1 0 557)">
						<stop  offset="0" style="stop-color:#B37CFF"/>
						<stop  offset="1" style="stop-color:#F895E7"/>
					</linearGradient>
					<polygon class="st28" points="240.9,417.1 227.3,417.3 226.7,397.3 240.4,397.1 					"/>
					
						<linearGradient id="SVGID_25_" gradientUnits="userSpaceOnUse" x1="266.7801" y1="150.1339" x2="231.1147" y2="149.9994" gradientTransform="matrix(1 0 0 -1 0 557)">
						<stop  offset="0" style="stop-color:#B37CFF"/>
						<stop  offset="1" style="stop-color:#F895E7"/>
					</linearGradient>
					<polygon class="st29" points="263.7,416.8 249.5,417 249.1,397 263.4,396.9 					"/>
					
						<linearGradient id="SVGID_26_" gradientUnits="userSpaceOnUse" x1="289.4377" y1="150.4384" x2="254.3011" y2="150.3058" gradientTransform="matrix(1 0 0 -1 0 557)">
						<stop  offset="0" style="stop-color:#B37CFF"/>
						<stop  offset="1" style="stop-color:#F895E7"/>
					</linearGradient>
					<polygon class="st30" points="286.4,416.4 272.3,416.6 272,396.7 286.2,396.6 					"/>
				</g>
				<g>
					
						<linearGradient id="SVGID_27_" gradientUnits="userSpaceOnUse" x1="222.6706" y1="116.7047" x2="186.3337" y2="116.5675" gradientTransform="matrix(1 0 0 -1 0 557)">
						<stop  offset="0" style="stop-color:#B37CFF"/>
						<stop  offset="1" style="stop-color:#F895E7"/>
					</linearGradient>
					<polygon class="st31" points="219.5,450 205.4,450.3 204.7,430.6 218.9,430.4 					"/>
					
						<linearGradient id="SVGID_28_" gradientUnits="userSpaceOnUse" x1="244.5933" y1="117.0875" x2="210.2895" y2="116.958" gradientTransform="matrix(1 0 0 -1 0 557)">
						<stop  offset="0" style="stop-color:#B37CFF"/>
						<stop  offset="1" style="stop-color:#F895E7"/>
					</linearGradient>
					<polygon class="st32" points="241.6,449.6 228.1,449.9 227.6,430.3 241.2,430 					"/>
					
						<linearGradient id="SVGID_29_" gradientUnits="userSpaceOnUse" x1="267.2759" y1="117.4685" x2="231.976" y2="117.3354" gradientTransform="matrix(1 0 0 -1 0 557)">
						<stop  offset="0" style="stop-color:#B37CFF"/>
						<stop  offset="1" style="stop-color:#F895E7"/>
					</linearGradient>
					<polygon class="st33" points="264.2,449.2 250.2,449.5 249.8,429.9 263.9,429.7 					"/>
					
						<linearGradient id="SVGID_30_" gradientUnits="userSpaceOnUse" x1="289.7078" y1="117.848" x2="254.9259" y2="117.7168" gradientTransform="matrix(1 0 0 -1 0 557)">
						<stop  offset="0" style="stop-color:#B37CFF"/>
						<stop  offset="1" style="stop-color:#F895E7"/>
					</linearGradient>
					<polygon class="st34" points="286.7,448.8 272.8,449 272.5,429.5 286.5,429.3 					"/>
				</g>
				<g>
					
						<linearGradient id="SVGID_31_" gradientUnits="userSpaceOnUse" x1="223.6003" y1="84.5242" x2="187.642" y2="84.3886" gradientTransform="matrix(1 0 0 -1 0 557)">
						<stop  offset="0" style="stop-color:#B37CFF"/>
						<stop  offset="1" style="stop-color:#F895E7"/>
					</linearGradient>
					<polygon class="st35" points="220.5,482 206.5,482.3 205.8,463 219.9,462.8 					"/>
					
						<linearGradient id="SVGID_32_" gradientUnits="userSpaceOnUse" x1="245.3045" y1="84.9821" x2="211.3538" y2="84.854" gradientTransform="matrix(1 0 0 -1 0 557)">
						<stop  offset="0" style="stop-color:#B37CFF"/>
						<stop  offset="1" style="stop-color:#F895E7"/>
					</linearGradient>
					<polygon class="st36" points="242.4,481.5 229,481.8 228.5,462.6 241.9,462.3 					"/>
					
						<linearGradient id="SVGID_33_" gradientUnits="userSpaceOnUse" x1="267.7621" y1="85.4431" x2="232.8201" y2="85.3113" gradientTransform="matrix(1 0 0 -1 0 557)">
						<stop  offset="0" style="stop-color:#B37CFF"/>
						<stop  offset="1" style="stop-color:#F895E7"/>
					</linearGradient>
					<polygon class="st37" points="264.8,481 250.9,481.3 250.5,462.1 264.4,461.9 					"/>
					
						<linearGradient id="SVGID_34_" gradientUnits="userSpaceOnUse" x1="289.9725" y1="85.9076" x2="255.5385" y2="85.7777" gradientTransform="matrix(1 0 0 -1 0 557)">
						<stop  offset="0" style="stop-color:#B37CFF"/>
						<stop  offset="1" style="stop-color:#F895E7"/>
					</linearGradient>
					<polygon class="st38" points="287,480.5 273.2,480.8 272.9,461.7 286.8,461.4 					"/>
				</g>
			</g>
		</g>
		
			<linearGradient id="SVGID_35_" gradientUnits="userSpaceOnUse" x1="115.2656" y1="344.4382" x2="328.8263" y2="300.8765" gradientTransform="matrix(0.9999 1.360000e-02 1.360000e-02 -0.9999 -8.4972 521.5513)">
			<stop  offset="0" style="stop-color:#B37CFF"/>
			<stop  offset="1" style="stop-color:#F895E7"/>
		</linearGradient>
		<path class="st39" d="M133.6,193.7c-2.1-20.7,18.3-50.1,55.1-24.3c1-9.8,47.3-40.5,68.6,23.7c3.7-15.6,37.2-7.9,43.2,18.5
			c12.6-6.5,42.9,26.1,2.8,31.8c-51.2,7.3-168.6,5.5-189.6-30.1S133.6,193.7,133.6,193.7z"/>
		<path class="st40" d="M529,195.8c-1.4-14.1,12.4-34,37.4-16.5c0.7-6.7,32.1-27.5,46.5,16.1c2.5-10.6,25.2-5.3,29.3,12.5
			c8.6-4.4,29.1,17.7,1.9,21.6c-34.8,5-114.4,3.8-128.6-20.4C501.2,184.9,529,195.8,529,195.8z"/>
	</g>
	<g>
		<path class="st41" d="M535.5,381.2l-1.2,1.8c-0.2,0.4-0.7,0.4-1.1,0.2c-0.3-0.2-0.4-0.7-0.2-1l0,0l1.1-1.7l0,0
			c0.2-0.4,0.7-0.5,1.1-0.2S535.8,380.8,535.5,381.2C535.6,381.2,535.5,381.2,535.5,381.2z"/>
		<path class="st41" d="M531.2,386.9l-1.4,1.6c-0.2,0.3-0.7,0.3-1,0.1c-0.3-0.2-0.3-0.7-0.1-0.9l0,0l1.3-1.6l0,0
			c0.3-0.3,0.7-0.3,1-0.1S531.5,386.6,531.2,386.9C531.3,386.9,531.3,386.9,531.2,386.9z"/>
		<path class="st41" d="M526.4,392.1l-1.6,1.5c-0.2,0.2-0.6,0.2-0.8,0c-0.2-0.2-0.2-0.6,0-0.8l0,0l1.5-1.5l0,0
			c0.2-0.2,0.6-0.2,0.9,0C526.6,391.5,526.6,391.8,526.4,392.1C526.4,392.1,526.4,392.1,526.4,392.1z"/>
		<path class="st41" d="M521,396.7l-1.7,1.3c-0.2,0.2-0.6,0.1-0.8-0.1c-0.2-0.2-0.1-0.6,0.1-0.7l0,0l1.7-1.3l0,0
			c0.2-0.2,0.6-0.1,0.8,0.1C521.3,396.2,521.3,396.5,521,396.7C521,396.7,521,396.7,521,396.7z"/>
		<path class="st41" d="M515.1,400.6l-1.9,1c-0.2,0.1-0.5,0-0.7-0.2c-0.1-0.2,0-0.5,0.2-0.6l0,0l1.8-1l0,0c0.2-0.1,0.5,0,0.7,0.2
			C515.4,400.2,515.3,400.5,515.1,400.6C515.1,400.6,515.1,400.6,515.1,400.6z"/>
		<path class="st41" d="M508.6,403.6l-2,0.6c-0.2,0.1-0.5-0.1-0.6-0.3c-0.1-0.2,0.1-0.5,0.3-0.6l0,0l2-0.6l0,0
			c0.2-0.1,0.5,0.1,0.6,0.3C508.9,403.2,508.8,403.5,508.6,403.6L508.6,403.6z"/>
		<path class="st41" d="M501.6,405.2l-2.1,0.2c-0.2,0-0.5-0.2-0.5-0.4c0-0.2,0.2-0.5,0.4-0.5h0l2.1-0.2h0c0.3,0,0.5,0.2,0.5,0.4
			C502.1,405,501.9,405.2,501.6,405.2L501.6,405.2z"/>
		<path class="st41" d="M494.5,405.3l-2.1-0.3c-0.2,0-0.4-0.3-0.4-0.5s0.3-0.4,0.5-0.4h0l2.1,0.3h0c0.2,0,0.4,0.3,0.4,0.5
			C495,405.1,494.7,405.3,494.5,405.3L494.5,405.3z"/>
		<path class="st41" d="M487.5,403.7l-2-0.7c-0.2-0.1-0.3-0.3-0.3-0.5c0.1-0.2,0.3-0.3,0.5-0.3l0,0l2,0.7l0,0
			c0.2,0.1,0.3,0.3,0.3,0.5C488,403.7,487.8,403.8,487.5,403.7L487.5,403.7z"/>
		<path class="st41" d="M481,401l-1.9-0.9c-0.2-0.1-0.3-0.4-0.2-0.6c0.1-0.2,0.4-0.3,0.6-0.2l0,0l1.9,0.9c0.2,0.1,0.3,0.4,0.2,0.6
			C481.5,401,481.2,401.1,481,401z"/>
		<path class="st41" d="M474.6,398.1l-1.9-0.9c-0.2-0.1-0.4-0.4-0.2-0.6c0.1-0.2,0.4-0.4,0.6-0.2l0,0l1.9,0.9
			c0.2,0.1,0.3,0.4,0.2,0.6C475.1,398.1,474.8,398.2,474.6,398.1z"/>
		<path class="st41" d="M468.1,395.3l-1.9-0.8c-0.3-0.1-0.4-0.4-0.3-0.7c0.1-0.3,0.4-0.4,0.7-0.3h0l1.9,0.9c0.3,0.1,0.4,0.4,0.3,0.6
			C468.7,395.3,468.4,395.4,468.1,395.3z"/>
		<path class="st41" d="M461.6,392.5l-2-0.8l0,0c-0.3-0.1-0.4-0.4-0.3-0.7s0.4-0.4,0.7-0.3l0,0l2,0.8c0.3,0.1,0.4,0.4,0.3,0.7
			C462.2,392.5,461.9,392.6,461.6,392.5L461.6,392.5z"/>
		<path class="st41" d="M455.1,390l-2-0.7h0c-0.3-0.1-0.5-0.5-0.4-0.8c0.1-0.3,0.5-0.5,0.8-0.4h0l2,0.8c0.3,0.1,0.5,0.5,0.3,0.8
			C455.7,389.9,455.4,390.1,455.1,390L455.1,390z"/>
		<path class="st41" d="M448.4,387.8l-2-0.5l0,0c-0.4-0.1-0.6-0.5-0.5-0.8c0.1-0.4,0.5-0.6,0.8-0.5h0l2,0.6c0.3,0.1,0.5,0.5,0.4,0.8
			S448.8,387.8,448.4,387.8L448.4,387.8z"/>
		<path class="st41" d="M441.7,386.2l-2.1-0.3h0c-0.4,0-0.7-0.4-0.6-0.8c0-0.4,0.4-0.7,0.8-0.6c0,0,0,0,0,0l2.1,0.4
			c0.4,0.1,0.6,0.4,0.6,0.8C442.4,386,442.1,386.2,441.7,386.2L441.7,386.2z"/>
		<path class="st41" d="M434.8,385.7l-2.1,0.1h0c-0.5,0-0.9-0.3-0.9-0.8c0-0.5,0.3-0.9,0.8-0.9c0,0,0,0,0,0l2.2,0
			c0.5,0,0.8,0.4,0.9,0.8C435.6,385.3,435.3,385.7,434.8,385.7L434.8,385.7z"/>
		<path class="st41" d="M428,386.6l-1.4,0.4l0,0c-0.5,0.1-1-0.2-1.2-0.7c-0.1-0.5,0.2-1,0.7-1.2c0,0,0,0,0,0l1.5-0.3
			c0.5-0.1,1,0.2,1.1,0.7C428.8,386,428.5,386.4,428,386.6L428,386.6z"/>
	</g>
	<g>
		<g>
			
				<linearGradient id="SVGID_36_" gradientUnits="userSpaceOnUse" x1="340.9993" y1="31.9332" x2="335.1388" y2="147.97" gradientTransform="matrix(1 0 0 -1 0 557)">
				<stop  offset="0" style="stop-color:#2B3582"/>
				<stop  offset="1" style="stop-color:#150E42"/>
			</linearGradient>
			<polygon class="st42" points="292,393.3 282.3,480.6 395.2,480.6 380.5,393.3 			"/>
			
				<linearGradient id="SVGID_37_" gradientUnits="userSpaceOnUse" x1="341.366" y1="75.7176" x2="287.4498" y2="-42.6636" gradientTransform="matrix(1 0 0 -1 0 557)">
				<stop  offset="0" style="stop-color:#2B3582"/>
				<stop  offset="1" style="stop-color:#150E42"/>
			</linearGradient>
			<path class="st43" d="M419.5,498.5H254.3c-4.5,0-7.9-3.2-7-6.6l2.1-8.4c0.6-2.5,3.4-4.4,6.7-4.5l159.3-5c3.4-0.1,6.5,1.7,7.2,4.3
				l3.8,13.4C427.5,495.2,424.1,498.5,419.5,498.5z"/>
			<g>
				<path class="st44" d="M448.4,80.2H264.1c-15.1,0-27.6,12.1-27.9,27.2c-1.7,67.3-5.9,240.6-5,304.6c0.2,11,9,19.9,20,20.2
					c42.8,1.2,145.7,3.2,193.5-4.2c10.1-1.6,17.6-10.1,17.9-20.2c1.8-56.4,7.5-243.8,6.1-307.8C468.4,89.1,459.4,80.2,448.4,80.2z"
					/>
				<path class="st45" d="M449.3,91.8h-175c-8.9,0-16.1,7.1-16.2,15.9l-4.4,295.1c-0.1,8.8,6.9,16,15.7,16l173.5,0.6
					c6.3,0,11.4-5,11.6-11.2l7.4-303.6C461.9,97.6,456.3,91.8,449.3,91.8z"/>
			</g>
			<path class="st5" d="M343.2,481c-0.2,0-0.3-0.1-0.3-0.3c0-0.2,0.1-0.3,0.3-0.3l6.8-0.1l0,0c0.2,0,0.3,0.1,0.3,0.3
				c0,0.2-0.1,0.3-0.3,0.3L343.2,481L343.2,481z"/>
			<path class="st5" d="M253.4,493.6C253.4,493.6,253.4,493.6,253.4,493.6c-0.2,0-0.3-0.2-0.3-0.4l1-6.1c0.5-3.2,3.2-5.5,6.4-5.5
				l72.4-1.1c0.2,0,0.3,0.1,0.3,0.3c0,0.2-0.1,0.3-0.3,0.3l-72.4,1.1c-2.9,0-5.3,2.1-5.8,5l-1,6.1
				C253.7,493.5,253.5,493.6,253.4,493.6z"/>
		</g>
		<g>
			
				<linearGradient id="SVGID_38_" gradientUnits="userSpaceOnUse" x1="382.5599" y1="267.3885" x2="269.923" y2="192.7054" gradientTransform="matrix(1 0 0 -1 0 557)">
				<stop  offset="0" style="stop-color:#53D8FF"/>
				<stop  offset="1" style="stop-color:#3840F7"/>
			</linearGradient>
			<path class="st46" d="M301.7,233c-56.4,85.1-31,185.2-31,185.2c0.4,0.3,0.9,0.6,1.3,0.9l81.2,0.3c7.5-94.3,57.5-137.7,57.5-137.7
				C352.3,230.9,301.7,233,301.7,233z"/>
			
				<linearGradient id="SVGID_39_" gradientUnits="userSpaceOnUse" x1="345.7522" y1="302.753" x2="405.0533" y2="347.3513" gradientTransform="matrix(1 0 0 -1 0 557)">
				<stop  offset="0" style="stop-color:#F9B776"/>
				<stop  offset="1" style="stop-color:#F47960"/>
			</linearGradient>
			<path class="st47" d="M371.8,209.1L345,240.8c-2.5,3-2.5,7.4,0.1,10.3c4.5,5.1,12.4,11.6,22.7,10.4c3.4-0.4,6.4-2.5,8-5.4
				l16.2-29.3L371.8,209.1z"/>
			
				<linearGradient id="SVGID_40_" gradientUnits="userSpaceOnUse" x1="360.0355" y1="301.2225" x2="247.0907" y2="226.3353" gradientTransform="matrix(1 0 0 -1 0 557)">
				<stop  offset="0" style="stop-color:#53D8FF"/>
				<stop  offset="1" style="stop-color:#3840F7"/>
			</linearGradient>
			<path class="st48" d="M249,392.6c0,0-7.5-89.2,52.5-116.4l0.2-43.2c0,0-99.1,40.9-62.6,154.6L249,392.6z"/>
			
				<linearGradient id="SVGID_41_" gradientUnits="userSpaceOnUse" x1="238.9777" y1="155.4831" x2="275.5469" y2="155.4831" gradientTransform="matrix(1 0 0 -1 0 557)">
				<stop  offset="0" style="stop-color:#F9B776"/>
				<stop  offset="1" style="stop-color:#F47960"/>
			</linearGradient>
			<path class="st49" d="M239.1,387.5c0,0-2,13.6,11,15.2c13.7,1.6,11.6,18.6,24,14.9c0.9-0.3,1.5-1.1,1.5-2.1
				c-0.5-5.8-3.9-26.6-27.9-30.7L239.1,387.5z"/>
			
				<linearGradient id="SVGID_42_" gradientUnits="userSpaceOnUse" x1="441.6335" y1="237.4686" x2="328.6901" y2="162.5824" gradientTransform="matrix(0.9969 -7.890000e-02 -7.890000e-02 -0.9969 6.4726 619.4329)">
				<stop  offset="0" style="stop-color:#53D8FF"/>
				<stop  offset="1" style="stop-color:#3840F7"/>
			</linearGradient>
			<path class="st50" d="M410.5,280.4c0,0,34,70.7,94.3,76.9l3.1,9.1c0,0-83.4,15.3-125.2-53.7L410.5,280.4z"/>
			
				<linearGradient id="SVGID_43_" gradientUnits="userSpaceOnUse" x1="509.4355" y1="64.8218" x2="559.2993" y2="64.8218" gradientTransform="matrix(0.9969 -7.890000e-02 -7.890000e-02 -0.9969 0.5083 468.4899)">
				<stop  offset="0" style="stop-color:#F9B776"/>
				<stop  offset="1" style="stop-color:#F47960"/>
			</linearGradient>
			<path class="st51" d="M503.6,362.5c-1.8-3.8,0.9-8.4,5.1-8.4c0.2,0,0.4,0,0.6,0c7.1,0.3,14.3-0.7,17-2.5c0.9-0.6,2.1-0.4,2.7,0.5
				c0.7,1.2,0.1,3.2-6.7,6.1c0,0,14.8,6,26.9,0.4c11.8-5.4-5.5,23.8-40.9,9.3c-1.8-0.7-3.2-2.1-4-3.9L503.6,362.5z"/>
			
				<linearGradient id="SVGID_44_" gradientUnits="userSpaceOnUse" x1="389.987" y1="315.7662" x2="388.0267" y2="415.2546" gradientTransform="matrix(1 0 0 -1 0 557)">
				<stop  offset="0" style="stop-color:#F9B776"/>
				<stop  offset="1" style="stop-color:#F47960"/>
			</linearGradient>
			<path class="st52" d="M410.6,184c0,0,5.4,47.1-14.7,53c-20.1,5.9-28.9-39.7-28.9-39.7S379.7,152.9,410.6,184z"/>
			
				<linearGradient id="SVGID_45_" gradientUnits="userSpaceOnUse" x1="376.2061" y1="392.4965" x2="443.8387" y2="285.1662" gradientTransform="matrix(1 0 0 -1 0 557)">
				<stop  offset="0" style="stop-color:#2B3582"/>
				<stop  offset="1" style="stop-color:#150E42"/>
			</linearGradient>
			<path class="st53" d="M371.8,209.1c-0.7,0.9-11.3,7-17.1-3.6s-0.1-17.4,9.4-17.9c0,0-5.7-3.8-1.5-8.6c4.2-4.8,8.7-0.9,8.7-0.9
				s3.3-35.5,32.6-26.1c29.3,9.4,22.7,26.1,20,31.1c-2.6,5-17.6,11.2-33.5,1.8c0,0,3.7,5.1-1.2,10c-5,5-17.5,6.3-17.5,6.3
				L371.8,209.1z"/>
			
				<linearGradient id="SVGID_46_" gradientUnits="userSpaceOnUse" x1="372.5299" y1="315.4221" x2="370.5696" y2="414.9107" gradientTransform="matrix(1 0 0 -1 0 557)">
				<stop  offset="0" style="stop-color:#F9B776"/>
				<stop  offset="1" style="stop-color:#F47960"/>
			</linearGradient>
			<path class="st54" d="M378.3,210.2c0,0-1.7-14.6-9.5-10.4c-10,5.4,5.3,14.6,5.3,14.6L378.3,210.2z"/>
			<g>
				<g>
					
						<linearGradient id="SVGID_47_" gradientUnits="userSpaceOnUse" x1="155.927" y1="1101.2826" x2="186.11" y2="1105.4553" gradientTransform="matrix(0.9962 -8.710000e-02 -8.710000e-02 -0.9962 448.5493 1434.4625)">
						<stop  offset="0" style="stop-color:#2C50FF"/>
						<stop  offset="0.9964" style="stop-color:#1A1B80"/>
					</linearGradient>
					<polygon class="st55" points="533.9,319.3 515.5,317.1 517.6,319.4 514.4,322.6 534.6,322.7 					"/>
					
						<linearGradient id="SVGID_48_" gradientUnits="userSpaceOnUse" x1="12985.8242" y1="1103.3661" x2="13016.0068" y2="1107.5389" gradientTransform="matrix(-0.9962 8.710000e-02 -8.710000e-02 -0.9962 13595.3662 287.097)">
						<stop  offset="0" style="stop-color:#2C50FF"/>
						<stop  offset="0.9964" style="stop-color:#1A1B80"/>
					</linearGradient>
					<polygon class="st56" points="536.4,319.1 554.2,313.7 552.5,316.4 556.2,318.9 536.4,322.5 					"/>
				</g>
				<g>
					<path class="st44" d="M520.4,310.5c0.4-0.3,0.8-0.4,1.3-0.4l3.3,0.4c0.4,0.1,0.8,0.3,1.1,0.6l7.6,9.6l1.1-1.2l-8-11.6
						c-0.6-0.9-1.7-1.4-2.8-1.4l-2.9,0.1c-2,0.1-3.8,1.4-4.5,3.4l-0.9,2.6c-0.4,1.3,0.2,2.6,1.5,3.1l15.1,5.5l0.5-0.5l-11.9-6.9
						c-0.8-0.5-1.2-1.3-1.1-2.2C519.8,311.2,520,310.8,520.4,310.5z"/>
					<path class="st44" d="M552.4,309.5c0.6,1.2,0.2,2.6-0.9,3.3l-13.9,8.1l-0.6-0.4l10.5-8.8c0.7-0.6,1-1.5,0.7-2.4
						c-0.1-0.5-0.4-0.9-0.9-1.1c-0.4-0.2-0.9-0.3-1.4-0.1l-3.1,1c-0.4,0.1-0.8,0.4-1,0.8l-5.8,10.8l-1.3-1l5.9-12.8
						c0.5-1,1.4-1.7,2.5-1.8l2.9-0.4"/>
				</g>
				
					<linearGradient id="SVGID_49_" gradientUnits="userSpaceOnUse" x1="182.95" y1="1104.8611" x2="183.2293" y2="1042.0291" gradientTransform="matrix(0.9962 -8.710000e-02 -8.710000e-02 -0.9962 448.5493 1434.4625)">
					<stop  offset="0" style="stop-color:#2B3582"/>
					<stop  offset="1" style="stop-color:#150E42"/>
				</linearGradient>
				<path class="st57" d="M515,325.7l4.9,36c0.1,0.9,0.9,1.6,1.8,1.5l33.5-2.9c0.9-0.1,1.6-0.9,1.5-1.8l-1.4-36.3L515,325.7z"/>
				
					<rect x="532.7" y="322.9" transform="matrix(0.9962 -8.700071e-02 8.700071e-02 0.9962 -27.7554 47.9922)" class="st5" width="8.1" height="38.9"/>
				
					<linearGradient id="SVGID_50_" gradientUnits="userSpaceOnUse" x1="182.4977" y1="1091.7148" x2="183.1014" y2="1102.8333" gradientTransform="matrix(0.9962 -8.710000e-02 -8.710000e-02 -0.9962 448.5493 1434.4625)">
					<stop  offset="0" style="stop-color:#2B3582"/>
					<stop  offset="1" style="stop-color:#150E42"/>
				</linearGradient>
				<path class="st58" d="M557.3,318.8c0-0.4-0.4-0.7-0.8-0.7l-43.4,3.8c-0.4,0-0.7,0.4-0.7,0.8l0.3,3.9c0,0.4,0.4,0.7,0.8,0.7
					l43.4-3.8c0.4,0,0.7-0.4,0.7-0.8L557.3,318.8z"/>
				
					<linearGradient id="SVGID_51_" gradientUnits="userSpaceOnUse" x1="182.5826" y1="1093.4988" x2="183.0743" y2="1102.5551" gradientTransform="matrix(0.9962 -8.710000e-02 -8.710000e-02 -0.9962 448.5493 1434.4625)">
					<stop  offset="0" style="stop-color:#2C50FF"/>
					<stop  offset="0.9964" style="stop-color:#1A1B80"/>
				</linearGradient>
				<polygon class="st59" points="539.3,325 531.2,325.7 530.7,319.8 538.7,319.1 				"/>
			</g>
		</g>
		<g>
			<path class="st5" d="M286.9,186.7v-62.1c0-6.3,7.2-10,12.3-6.3l39.6,28.7c5.9,4.3,5.9,13,0,17.3L299.2,193
				C294.1,196.7,286.9,193.1,286.9,186.7z"/>
		</g>
	</g>
	<g>
		
			<linearGradient id="SVGID_52_" gradientUnits="userSpaceOnUse" x1="-873.741" y1="74.7701" x2="-845.4623" y2="74.7701" gradientTransform="matrix(1 0 0 -1 1470.101 557)">
			<stop  offset="0" style="stop-color:#F9B776"/>
			<stop  offset="1" style="stop-color:#F47960"/>
		</linearGradient>
		<path class="st60" d="M596.4,456.1c0,0,15.1,33,23.1,46.6c0,0,1.6,8.6,0,11.3l-1.3,0.6l6.3-0.2c0,0,0.6-11.5,0.1-12.2
			c-0.4-0.6-1.3-0.6-1.3-0.6s-2.7-21.3-10.5-25.8l-7.5-26L596.4,456.1z"/>
		
			<linearGradient id="SVGID_53_" gradientUnits="userSpaceOnUse" x1="-834.8828" y1="137.9941" x2="-848.882" y2="46.9997" gradientTransform="matrix(1 0 0 -1 1470.101 557)">
			<stop  offset="0" style="stop-color:#53D8FF"/>
			<stop  offset="1" style="stop-color:#3840F7"/>
		</linearGradient>
		<path class="st61" d="M615.4,516.2c0,0.2,4.9,0.1,7.6,0c1,0,1.8-0.7,2-1.7l2-10.6c0.2-1-0.5-2-1.4-2.2l-1.1-0.3
			c0,0-1.6,2.2-1.1,4.3c0.5,2.1,1,7.4-0.3,8s-4.9,0.7-4.9,0.7S615.5,514.9,615.4,516.2z"/>
		
			<linearGradient id="SVGID_54_" gradientUnits="userSpaceOnUse" x1="-864.5054" y1="142.5516" x2="-878.5048" y2="51.5566" gradientTransform="matrix(1 0 0 -1 1470.101 557)">
			<stop  offset="0" style="stop-color:#53D8FF"/>
			<stop  offset="1" style="stop-color:#3840F7"/>
		</linearGradient>
		<path class="st62" d="M582,516.4c-0.5,0.3-0.3,1,0.3,1c4.5,0,14.5-0.2,15.3-0.5c1.2-0.5-0.4-4.6-2.1-6l-9.1,3L582,516.4z"/>
		
			<linearGradient id="SVGID_55_" gradientUnits="userSpaceOnUse" x1="-890.8909" y1="72.685" x2="-874.5109" y2="72.685" gradientTransform="matrix(1 0 0 -1 1470.101 557)">
			<stop  offset="0" style="stop-color:#F9B776"/>
			<stop  offset="1" style="stop-color:#F47960"/>
		</linearGradient>
		<path class="st63" d="M579.2,454c0,0,9.8,47.3,12.5,56.5l-6.5,4.1c0,0,3.3-0.6,5.7-0.7c2.4-0.2,4.7-3,4.7-3l-0.8-1.3
			c0,0-2.5-47-1.8-52.4L579.2,454z"/>
		
			<linearGradient id="SVGID_56_" gradientUnits="userSpaceOnUse" x1="580.657" y1="175.7024" x2="602.0815" y2="129.6398" gradientTransform="matrix(1 0 0 -1 0 557)">
			<stop  offset="0" style="stop-color:#53D8FF"/>
			<stop  offset="1" style="stop-color:#3840F7"/>
		</linearGradient>
		<path class="st64" d="M575.2,379.1c3.8,1,16.4,4.4,24.4,4.2l-4.9,27.5l0.4,4.5l-15.9-0.1c0,0-4.5-10.4-8-15.5
			c-1-1.5-0.3-3.3,0.3-5l-0.8-0.5c-0.8-0.5-1.2-1.5-0.8-2.5l3.9-11.8C574,379.2,574.6,378.9,575.2,379.1z"/>
		
			<linearGradient id="SVGID_57_" gradientUnits="userSpaceOnUse" x1="603.2216" y1="100.2676" x2="547.8965" y2="173.2968" gradientTransform="matrix(1 0 0 -1 0 557)">
			<stop  offset="0" style="stop-color:#CB236D"/>
			<stop  offset="1" style="stop-color:#4C246D"/>
		</linearGradient>
		<path class="st65" d="M578,412.8l0.3,2.7c0,0-4.5,13.4,2.2,44.8c0,0,14.6,4.1,26.5-5.7c0,0-3.4-29.6-4.3-31
			c-4.6-6.9-7.7-8.4-7.7-8.4l-0.1-3C595,412.3,582.2,414.6,578,412.8z"/>
		
			<linearGradient id="SVGID_58_" gradientUnits="userSpaceOnUse" x1="-885.9318" y1="179.7512" x2="-875.921" y2="179.7512" gradientTransform="matrix(1 0 0 -1 1470.101 557)">
			<stop  offset="0" style="stop-color:#F9B776"/>
			<stop  offset="1" style="stop-color:#F47960"/>
		</linearGradient>
		<path class="st66" d="M584.2,381.3c-0.1-0.1,3.3-10.2,3.3-10.2l4.8,0.4l1.9,11.5C594.2,383,586.6,384.5,584.2,381.3z"/>
		
			<linearGradient id="SVGID_59_" gradientUnits="userSpaceOnUse" x1="-870.0081" y1="192.6989" x2="-797.096" y2="187.7409" gradientTransform="matrix(1 0 0 -1 1470.101 557)">
			<stop  offset="0" style="stop-color:#F9B776"/>
			<stop  offset="1" style="stop-color:#F47960"/>
		</linearGradient>
		<path class="st67" d="M591.2,355.2c-0.3,0.2-10.3,4.3-8.2,14.7c0.1,0.6,0.5,1.1,1.1,1.4c1.5,0.6,4.6,1.8,8.4,1.4
			c5.2-0.5,8.7-9.7,8.5-12.3C600.8,357.7,594.3,353.2,591.2,355.2z"/>
		
			<linearGradient id="SVGID_60_" gradientUnits="userSpaceOnUse" x1="557.4431" y1="183.3348" x2="609.3257" y2="105.511" gradientTransform="matrix(1 0 0 -1 0 557)">
			<stop  offset="0" style="stop-color:#F9B776"/>
			<stop  offset="1" style="stop-color:#F47960"/>
		</linearGradient>
		<path class="st68" d="M574.4,384.8c0.5-1.4-0.4-2.8-1.9-2.9c-3.7-0.2-10.1-1.3-15.5-6.7c-3.5-3.5-4.4-16.3-4.4-16.3
			s-0.7-5.9-2.2-5.9s0,3.7,0,3.7s-3.7,2.2-7.4-0.7s0.7,4.4,4.4,5.9c0,0-1.4,29.2,22.9,29.6c0.9,0,1.7-0.5,2-1.4L574.4,384.8z"/>
		
			<linearGradient id="SVGID_61_" gradientUnits="userSpaceOnUse" x1="-189.1106" y1="199.5936" x2="-223.7494" y2="132.3463" gradientTransform="matrix(-1 0 0 -1 399.1713 557)">
			<stop  offset="0" style="stop-color:#2B3582"/>
			<stop  offset="1" style="stop-color:#150E42"/>
		</linearGradient>
		<path class="st69" d="M587.8,376.1c0-2,0.4-3.8,1.1-5.5c0.8-1.9,0.7-4.1-0.7-5.7c-2.2-2.6-3-5.9-1.8-8.8c1.9-4.5,7.8-6.3,13.4-4
			c3.9,1.6,6.5,4.9,7.1,8.2c0.3,1.9,1.3,3.6,2.9,4.8c2.2,1.7,3.9,4,4.7,6.7c0.6,1.8,1.8,3.4,3.4,4.3c3.7,2.1,6.9,5.4,8.8,9.7
			c4.7,10.6,0,23.1-10.7,27.8c-10.7,4.8-23.1,0-27.9-10.6c-2.6-5.9-2.3-12.4,0.3-17.8c0.7-1.4,0.8-2.9,0.3-4.3
			C588.1,379.5,587.8,377.9,587.8,376.1z"/>
	</g>
	<g>
		<g>
			<g>
				<path class="st70" d="M662.7,120.7c0,9.4,2.9,46.4,5.3,55.2s13.1,8,21.4,7.2c8.3-0.8,34.2-1.6,43.6-2.9s7.2-14.2,4.5-32.1
					s-4.2-25.3-6.3-36.5s-23.8-9.4-31.6-8.6C691.9,103.7,662.7,104.6,662.7,120.7z"/>
				<path class="st5" d="M736.1,160.2c-0.3,0-0.6-0.2-0.6-0.6c-0.4-3.3-0.9-7-1.5-10.9l-0.2-1.1c-0.2-1.5-0.4-2.9-0.6-4.2
					c0-0.3,0.2-0.6,0.5-0.7c0.3-0.1,0.7,0.2,0.7,0.5c0.2,1.3,0.4,2.8,0.6,4.2l0.2,1.1c0.6,3.9,1.1,7.6,1.5,10.9
					C736.7,159.9,736.5,160.2,736.1,160.2C736.1,160.2,736.1,160.2,736.1,160.2z"/>
				<path class="st5" d="M717.4,178.6c-0.3,0-0.6-0.3-0.6-0.6c0-0.3,0.2-0.6,0.6-0.7c6.1-0.4,10.3-0.7,12.8-1.1
					c5.1-0.7,6.5-5.2,5.3-16.6c0-0.3,0.2-0.6,0.5-0.7c0.3,0,0.6,0.2,0.7,0.6c1.1,10.1,0.4,17-6.3,18
					C727.7,177.9,723.6,178.2,717.4,178.6C717.4,178.6,717.4,178.6,717.4,178.6z"/>
				<path class="st5" d="M683.5,180.6c-5.8,0-11.6-1.3-13.2-7.5c-0.5-1.8-1-4.9-1.6-9.2c0-0.3,0.2-0.6,0.5-0.7
					c0.3,0,0.7,0.2,0.7,0.5c0.6,4.3,1.1,7.3,1.5,9c2,7.2,10.4,7,18.9,6.1c0.7-0.1,1.4-0.1,2.3-0.2c0.3,0,0.6,0.2,0.7,0.6
					c0,0.3-0.2,0.6-0.6,0.7c-0.9,0.1-1.6,0.1-2.3,0.2C688.4,180.4,686,180.6,683.5,180.6z"/>
				<path class="st5" d="M667.8,150.9c-0.3,0-0.6-0.2-0.6-0.6c-1-11.1-1.8-23-1.8-27.7c0-7.9,7.3-13.1,21.8-15.4
					c0.3-0.1,0.7,0.2,0.7,0.5c0,0.3-0.2,0.7-0.5,0.7c-13.8,2.2-20.8,7-20.8,14.2c0,4.7,0.8,16.5,1.8,27.6
					C668.5,150.6,668.2,150.9,667.8,150.9C667.9,150.9,667.9,150.9,667.8,150.9z"/>
			</g>
			<g class="st2">
				<path class="st71" d="M687.4,163.8c-2,0-4.2-1.9-4.4-3.8l-0.3-2.5l-1.2,0.1c-0.7,0.1-1.4-0.2-2-0.7c-0.6-0.5-1-1.2-1.1-1.8
					L678,150c-0.2-2.4-0.3-3.7-0.3-4.4c-0.7,0-1.4-0.3-2.1-0.9c-0.8-0.6-1.3-1.4-1.3-2.1l0-0.1c-0.1-0.8,0.3-1.4,1.1-1.9
					c0.7-0.4,1.5-0.5,2-0.6l4.1-0.4c0-0.5,0.1-1,0.1-1.6c0.1-0.6,0.1-1.3,0.2-1.9c0.1-1.1,0.2-2.1,0.3-3.1c0.1-1.2,0.3-2.3,0.4-3.5
					c0.2-1.9,1.7-3.2,3.8-3.4l25.5-2.7c2.1-0.2,3.9,0.8,4.5,2.6c0.4,1.1,0.7,2.2,1.1,3.3c0.3,1,0.7,2,1,3c0.2,0.6,0.4,1.2,0.6,1.8
					c0.2,0.5,0.3,1.1,0.5,1.5l4.1-0.4l0,0c1.5-0.2,2.2,0.4,2.3,1.9l0,0.1c0.1,0.8-0.1,1.5-0.5,2c-0.4,0.5-0.9,0.8-1.6,1l1,9.8
					c0.2,2-0.4,3.2-1.6,3.3l-2.4,0.3l0.3,2.5c0.2,2.1-0.6,4.4-2.6,4.6l-3.2,0.3c-1,0.1-2.1-0.3-3-1.1c-1-0.8-1.6-1.8-1.7-2.7
					l-0.3-2.5l-17.2,1.8l0.3,2.5c0.1,1,0,2-0.4,2.8c-0.4,1-1.2,1.6-2.2,1.8l-3.2,0.3C687.6,163.8,687.5,163.8,687.4,163.8z
					 M683.3,156.2c0.3,0,0.6,0.2,0.6,0.6l0.3,3.1c0.1,1.3,2,2.8,3.3,2.7l3.2-0.3c0.5-0.1,0.9-0.4,1.2-1c0.3-0.6,0.4-1.4,0.3-2.2
					l-0.3-3.1c0-0.3,0.2-0.6,0.5-0.7l18.4-1.9c0.2,0,0.3,0,0.5,0.1c0.1,0.1,0.2,0.3,0.2,0.4l0.3,3.1c0.1,0.6,0.5,1.3,1.2,1.9
					c0.7,0.6,1.5,0.9,2.1,0.8l3.2-0.3c1.3-0.1,1.6-2,1.5-3.2l-0.3-3.1c0-0.2,0-0.3,0.1-0.4c0.1-0.1,0.3-0.2,0.4-0.2l3-0.3
					c0.5-0.1,0.6-1.1,0.5-2l-1.1-10.4c0-0.2,0-0.3,0.1-0.5c0.1-0.1,0.3-0.2,0.5-0.2c0.6-0.1,1.1-0.3,1.4-0.6
					c0.2-0.3,0.3-0.6,0.3-1.1l0-0.1c-0.1-0.8-0.1-0.9-1-0.8l-4.4,0.5c-0.4,0-0.6-0.2-0.7-0.4c-0.1-0.1-0.2-0.2-0.2-0.3
					c-0.2-0.6-0.4-1.2-0.6-1.8c-0.2-0.6-0.4-1.2-0.6-1.8c-0.3-1-0.7-2-1-3c-0.4-1.1-0.7-2.2-1.1-3.3c-0.4-1.2-1.6-1.9-3.2-1.8
					l-25.5,2.7c-1.6,0.2-2.6,1-2.7,2.3c-0.1,1.2-0.3,2.4-0.4,3.6c-0.1,1-0.2,2.1-0.3,3.1c-0.1,0.6-0.1,1.2-0.2,1.9
					c-0.1,0.6-0.1,1.3-0.2,1.9c0,0.2-0.1,0.3-0.2,0.4c-0.1,0.1-0.3,0.3-0.5,0.4l-4.4,0.5c-0.6,0.1-1.2,0.2-1.5,0.4
					c-0.5,0.3-0.5,0.6-0.5,0.7l0,0.1c0,0.4,0.4,0.9,0.9,1.3s1.1,0.6,1.4,0.6l0.4,0c0.3,0,0.5,0.1,0.6,0.3c0,0.1,0.1,0.2,0.1,0.2
					c0,0.3,0.8,10.1,0.8,10.1c0,0.3,0.3,0.7,0.6,1s0.8,0.4,1.1,0.4L683.3,156.2C683.2,156.2,683.3,156.2,683.3,156.2z M719.1,136.6
					L719.1,136.6L719.1,136.6z M719.1,136.6C719.1,136.6,719.1,136.6,719.1,136.6C719.1,136.6,719.1,136.6,719.1,136.6z
					 M719.1,136.6L719.1,136.6L719.1,136.6z M685.7,142.3c-0.2,0-0.3-0.1-0.4-0.2c-0.1-0.1-0.2-0.3-0.2-0.5c0.1-1.7,0.3-3.2,0.4-4.6
					l0-0.4l0,0c0.1-1.2,0.3-2.4,0.4-3.7c0.1-1.1,0.2-2.1,0.3-3.2c0-0.3,0.3-0.5,0.5-0.6l25.4-2.8c0.3,0,0.6,0.2,0.7,0.4
					c0.3,1,0.7,2.1,1,3.2c0.4,1.2,0.7,2.4,1.1,3.5l0.2,0.6c0.4,1.2,0.8,2.5,1.3,4.1c0,0.2,0,0.4-0.1,0.5c-0.1,0.1-0.3,0.3-0.5,0.3
					L685.7,142.3C685.7,142.3,685.7,142.3,685.7,142.3z M686.8,136.8l0,0.4c-0.1,1.2-0.3,2.4-0.4,3.8l28.7-3c-0.4-1.2-0.7-2.3-1-3.3
					l-0.2-0.6c-0.4-1.1-0.7-2.3-1.1-3.5c-0.3-0.9-0.6-1.8-0.9-2.7l-24.4,2.7c-0.1,0.9-0.2,1.8-0.3,2.7
					C687,134.4,686.9,135.6,686.8,136.8L686.8,136.8z"/>
				<g class="st6">
					<path class="st5" d="M687.8,154.4c-2.7,0-4.9-2-5.2-4.7c-0.2-1.4,0.3-2.8,1.1-3.9c0.9-1.1,2.1-1.8,3.5-1.9
						c2.9-0.3,5.5,1.8,5.8,4.7l0,0c0.3,2.9-1.8,5.5-4.7,5.8C688.2,154.4,688,154.4,687.8,154.4z M687.8,145.2c-0.1,0-0.3,0-0.4,0
						c-1.1,0.1-2,0.6-2.7,1.5c-0.7,0.8-1,1.9-0.9,2.9c0.2,2.2,2.2,3.8,4.4,3.6s3.8-2.2,3.6-4.4l0,0
						C691.6,146.7,689.8,145.2,687.8,145.2z"/>
					<path class="st5" d="M714.8,151.6c-1.2,0-2.3-0.4-3.3-1.2c-1.1-0.9-1.8-2.1-1.9-3.5c-0.3-2.9,1.8-5.5,4.7-5.8
						c1.4-0.1,2.8,0.3,3.9,1.1c1.1,0.9,1.8,2.1,1.9,3.5l0,0c0.3,2.9-1.8,5.5-4.7,5.8C715.2,151.6,715,151.6,714.8,151.6z
						 M714.9,142.3c-0.1,0-0.3,0-0.4,0c-2.2,0.2-3.8,2.2-3.6,4.4c0.1,1.1,0.6,2,1.5,2.7c0.8,0.7,1.9,1,3,0.9
						c2.2-0.2,3.8-2.2,3.6-4.4l0,0c-0.1-1.1-0.6-2-1.5-2.7C716.7,142.6,715.8,142.3,714.9,142.3z"/>
				</g>
			</g>
		</g>
		<g>
			<path class="st44" d="M640.4,142.3l-33.3,1.9c-2.8,0.2-5.2-1.9-5.4-4.7l-2.8-38.6c-0.2-3,2.1-5.5,5.1-5.5h36.1
				c2.8,0,5.1,2.3,5.1,5.1v36.7C645.2,139.9,643.1,142.1,640.4,142.3z"/>
			<g>
				<path class="st5" d="M622,139.3c-1.6,0-3-0.8-3.8-2.1c-4.9-8.1-10.7-18.7-10.7-23.5c0-7.4,6.5-13.4,14.5-13.4s14.5,6,14.5,13.4
					c0,4.8-5.8,15.4-10.7,23.5C625,138.4,623.6,139.3,622,139.3z M622,101.5c-7.3,0-13.3,5.4-13.3,12.1c0,3.5,3.7,11.6,10.5,22.8
					c0.6,1,1.6,1.5,2.7,1.5s2.1-0.6,2.7-1.5c6.8-11.2,10.5-19.3,10.5-22.8C635.3,107,629.3,101.5,622,101.5z"/>
				<path class="st5" d="M620.9,122.9c-4.9,0-8.9-4-8.9-8.9c0-0.3,0.3-0.6,0.6-0.6s0.6,0.3,0.6,0.6c0,4.2,3.4,7.6,7.6,7.6
					s7.6-3.4,7.6-7.6s-3.4-7.6-7.6-7.6c-2.4,0-4.7,1.1-6.1,3.1c-0.2,0.3-0.6,0.3-0.9,0.1s-0.3-0.6-0.1-0.9c1.7-2.2,4.3-3.6,7.1-3.6
					c4.9,0,8.9,4,8.9,8.9S625.8,122.9,620.9,122.9z"/>
			</g>
		</g>
	</g>
	<g>
		<g>
			<g>
				<path class="st70" d="M176.9,171.2c-11.3,0-56.1,3.9-66.7,7.1s-9.7,17.3-8.7,28.2c1,10.9,1.9,45.2,3.6,57.5
					c1.6,12.4,17.1,9.5,38.8,6s30.6-5.5,44.1-8.4c13.6-2.8,11.4-31.4,10.4-41.6C197.3,209.8,196.3,171.2,176.9,171.2z"/>
				<path class="st5" d="M129.8,268.6c-0.3,0-0.6-0.2-0.6-0.5c0-0.3,0.2-0.6,0.5-0.7c4-0.5,8.4-1.2,13.2-2l1.3-0.2
					c1.8-0.3,3.5-0.6,5.1-0.8c0.3,0,0.6,0.2,0.7,0.5c0.1,0.3-0.2,0.6-0.5,0.7c-1.6,0.3-3.3,0.5-5.1,0.9l-1.3,0.2
					C138.3,267.4,133.8,268.1,129.8,268.6C129.8,268.6,129.8,268.6,129.8,268.6z"/>
				<path class="st5" d="M121.7,269.1c-7.6,0-12.6-2.1-13.5-8.8c-0.4-3.4-0.9-8.8-1.3-17c0-0.3,0.2-0.6,0.6-0.6
					c0.3,0,0.6,0.2,0.6,0.6c0.5,8,0.9,13.6,1.3,16.9c1,7.8,8.5,8.5,20.3,7.1c0.3,0,0.6,0.2,0.7,0.5c0,0.3-0.2,0.6-0.5,0.7
					C126.9,268.9,124.2,269.1,121.7,269.1z"/>
				<path class="st5" d="M105.8,211.4c-0.3,0-0.6-0.2-0.6-0.6c-0.1-1.1-0.2-2.2-0.2-3c-0.8-9.3-2.1-23.3,8.4-26.4
					c2.2-0.6,5.9-1.3,11.1-2.1c0.3-0.1,0.6,0.2,0.7,0.5s-0.2,0.6-0.5,0.7c-5.2,0.7-8.8,1.4-10.9,2.1c-9.5,2.8-8.3,16.3-7.6,25.1
					c0.1,0.9,0.2,1.9,0.2,3C106.5,211.1,106.2,211.4,105.8,211.4C105.8,211.4,105.8,211.4,105.8,211.4z"/>
				<path class="st5" d="M192.4,204.3c-0.3,0-0.6-0.2-0.6-0.5c-2.7-18.3-8.5-27.6-17.4-27.6c-5.6,0-20,1-33.4,2.4
					c-0.3,0-0.6-0.2-0.6-0.5c0-0.3,0.2-0.6,0.5-0.6c13.4-1.4,27.8-2.4,33.5-2.4c9.5,0,15.7,9.6,18.5,28.6
					C193.1,204,192.9,204.3,192.4,204.3C192.5,204.3,192.5,204.3,192.4,204.3z"/>
			</g>
			<g class="st2">
				<path class="st71" d="M133.5,253c-0.9,0-1.7-0.3-2.3-0.9c-0.8-0.7-1.2-1.6-1.1-2.7l1.2-40.5c0-0.8,0.6-1.4,1.4-1.5l30.3-4
					c0.8-0.1,1.5,0.4,1.7,1.1l11.6,38.9l0,0c0.3,1,0.1,2-0.4,2.9s-1.4,1.4-2.4,1.5l-39.4,5.1C133.8,252.9,133.7,253,133.5,253z
					 M163.2,204.6C163.2,204.6,163.2,204.6,163.2,204.6l-30.4,4c-0.2,0-0.3,0.2-0.4,0.4l-1.2,40.5c0,0.7,0.3,1.3,0.7,1.7
					s1.1,0.6,1.8,0.6l39.4-5.1c0.7-0.1,1.2-0.4,1.6-1c0.4-0.6,0.5-1.2,0.3-1.9l-11.6-38.9C163.5,204.7,163.4,204.6,163.2,204.6z"/>
				<path class="st71" d="M138.6,213.8c-0.3,0-0.6-0.2-0.6-0.5l-1.9-14.9c-0.5-3.8,2.2-7.4,6.1-7.9l7.4-1c3.8-0.5,7.4,2.2,7.9,6.1
					l1.9,14.9c0,0.3-0.2,0.6-0.5,0.7c-0.3,0-0.6-0.2-0.7-0.5l-1.9-14.9c-0.4-3.2-3.3-5.4-6.5-5l-7.4,1c-3.2,0.4-5.4,3.3-5,6.5
					l1.9,14.9C139.3,213.5,139,213.8,138.6,213.8C138.7,213.8,138.6,213.8,138.6,213.8z"/>
				<path class="st71" d="M130.9,246.7c-0.3,0-0.6-0.2-0.6-0.5c0-0.3,0.2-0.6,0.5-0.7l43.8-5.7c0.3,0,0.6,0.2,0.7,0.5
					c0,0.3-0.2,0.6-0.5,0.7L130.9,246.7C130.9,246.7,130.9,246.7,130.9,246.7z"/>
				<path class="st71" d="M140.2,212.4c0.1,0.8-0.5,1.6-1.3,1.7s-1.6-0.5-1.7-1.3s0.5-1.6,1.3-1.7
					C139.4,211.1,140.1,211.6,140.2,212.4z"/>
				<path class="st71" d="M160.4,209.8c0.1,0.8-0.5,1.6-1.3,1.7s-1.6-0.5-1.7-1.3s0.5-1.6,1.3-1.7
					C159.5,208.4,160.2,209,160.4,209.8z"/>
			</g>
		</g>
		<g>
			<g>
				<path class="st44" d="M193.2,107.2c-6.2-0.8-31-1.9-37-1s-6.4,8-6.6,13.6c-0.1,5.6-1.8,22.8-1.6,29.1c0.1,6.3,8.8,5.9,20.9,5.6
					s17.1-0.7,24.7-1.2c7.6-0.5,8.2-15,8.3-20.2C202,127.9,203.8,108.5,193.2,107.2z"/>
				<path class="st5" d="M162.6,153.1c-0.4,0-0.9,0-1.3,0c-0.2,0-0.4-0.2-0.4-0.4s0.2-0.4,0.4-0.4c0,0,0,0,0,0c2.2,0,4.7,0,7.3-0.1
					l0.8,0c1,0,1.9-0.1,2.9-0.1c0.2,0,0.4,0.2,0.4,0.4c0,0.2-0.2,0.4-0.4,0.4c-0.9,0-1.9,0.1-2.9,0.1l-0.8,0
					C166.5,153,164.5,153.1,162.6,153.1z"/>
				<path class="st5" d="M161.3,153L161.3,153c-6.8-0.1-11.3-1.1-11.4-5.7c0-1.8,0.1-4.5,0.3-8.6c0-0.2,0.2-0.4,0.4-0.4
					c0.2,0,0.4,0.2,0.4,0.4c-0.3,4.1-0.4,6.9-0.3,8.6c0.1,3.4,2.9,4.8,10.6,4.9c0.2,0,0.4,0.2,0.4,0.4
					C161.7,152.9,161.6,153,161.3,153z"/>
				<path class="st5" d="M151.8,122.7C151.8,122.7,151.8,122.7,151.8,122.7c-0.3,0-0.4-0.2-0.4-0.4c0-0.6,0.1-1.1,0.1-1.5
					c0.1-4.8,0.3-11.9,6.3-12.8c1.2-0.2,3.3-0.3,6.2-0.3l0,0c0.2,0,0.4,0.2,0.4,0.4s-0.2,0.4-0.4,0.4c-2.9,0-4.9,0.1-6.1,0.3
					c-4.9,0.7-5.5,6.3-5.6,12c0,0.4,0,1-0.1,1.6C152.2,122.5,152,122.7,151.8,122.7z"/>
				<path class="st5" d="M199.7,125c-0.2,0-0.4-0.2-0.4-0.4c-0.3-9.3-2.9-14.4-7.7-14.9c-3.1-0.4-11-0.8-18.4-1.1
					c-0.2,0-0.4-0.2-0.4-0.4c0-0.2,0.2-0.4,0.4-0.4c7.4,0.2,15.4,0.7,18.5,1.1c5.3,0.7,8.1,5.9,8.4,15.7
					C200.1,124.8,200,125,199.7,125C199.7,125,199.7,125,199.7,125z"/>
			</g>
			<g class="st2">
				<path class="st71" d="M175.6,123c-2,0-3.6-1.6-3.6-3.6s1.6-3.6,3.6-3.6s3.6,1.6,3.6,3.6S177.6,123,175.6,123z M175.6,116.6
					c-1.5,0-2.8,1.3-2.8,2.8s1.3,2.8,2.8,2.8s2.8-1.3,2.8-2.8S177.2,116.6,175.6,116.6z"/>
				<path class="st71" d="M175,145.6c-0.7,0-1.3-0.1-1.7-0.4c-2-1.4-0.9-7.1,0.8-10.6c1.2-2.6,1.5-4.5,0.9-5.7
					c-0.4-0.8-1.3-1.2-2.7-1.2l0,0c-0.2,0-0.4-0.2-0.4-0.3c-0.1-0.3,0.3-0.5,0.6-0.7c0.4-0.2,4.1-2.1,6.4,0.3c2,2.1,0,6-1.4,8.9
					c-0.4,0.8-0.7,1.4-0.9,1.9c-0.7,1.7-0.7,3.7-0.1,4.8c0.3,0.5,0.8,0.8,1.4,0.9c0.2,0,0.9,0.1,1,0.5c0.1,0.2,0,0.5-0.4,0.8
					C177.9,145.1,176.4,145.6,175,145.6z M173.6,127c0.9,0.3,1.6,0.7,2.1,1.5c0.8,1.4,0.6,3.6-0.8,6.4c-1.8,3.8-2.4,8.7-1.1,9.6
					c0.9,0.6,3,0.1,3.9-0.3c-0.8-0.1-1.5-0.6-1.9-1.3c-0.9-1.5-0.6-3.9,0-5.5c0.2-0.6,0.6-1.2,0.9-2c1.3-2.6,3.2-6.3,1.6-7.9
					C176.9,126.1,174.8,126.5,173.6,127z"/>
			</g>
		</g>
		<g>
			<path class="st70" d="M115.4,158.9H79.1c-2.8,0-5-2.3-5-5v-36.4c0-2.6,2-4.8,4.6-5l38.7-3.1c3.1-0.3,5.6,2.3,5.4,5.3l-2.4,39.6
				C120.2,156.8,118,158.9,115.4,158.9z"/>
			<path class="st5" d="M84.2,151.3c-0.8,0-1.6-0.3-2.3-0.9c-0.7-0.6-1-1.5-1-2.4v-23.3c0-0.3,0.3-0.6,0.6-0.6s0.6,0.3,0.6,0.6V148
				c0,0.6,0.2,1.1,0.6,1.5c0.4,0.4,0.9,0.6,1.5,0.6l27.7-1.6c1.1-0.1,1.9-0.9,1.9-2v-22.9c0-0.6-0.2-1.1-0.7-1.5
				c-0.4-0.4-1-0.6-1.6-0.5l-23,2.3c-0.7,0.1-1.3,0.5-1.6,1.2s-0.2,1.4,0.2,2L96,139c0.4,0.5,1,0.8,1.6,0.8c0.7,0,1.2-0.3,1.6-0.8
				l9.7-12.9c0.2-0.3,0.6-0.3,0.9-0.1s0.3,0.6,0.1,0.9l-9.7,12.9c-0.6,0.8-1.6,1.3-2.6,1.3c0,0,0,0,0,0c-1.1,0-2-0.5-2.6-1.4
				l-8.8-12.1c-0.7-1-0.8-2.2-0.3-3.3c0.5-1.1,1.5-1.8,2.7-1.9l23-2.3c0.9-0.1,1.8,0.2,2.5,0.8c0.7,0.6,1.1,1.5,1.1,2.4v22.9
				c0,1.7-1.4,3.2-3.1,3.3l-27.7,1.6C84.4,151.3,84.3,151.3,84.2,151.3z"/>
		</g>
	</g>
	<g>
		<g>
			<path class="st70" d="M617.8,184.7c-30.8-5.1-68.5,4-81.3,35.3c-11,26.6,13.6,49.9,29.5,62.3c4.4,3.4,7.5,8.4,8.5,13.9
				c2.5,13.2,10.3,37.2,33.5,37c1.7,0,2.2-2.3,0.7-3.1c-4.8-2.4-11.1-6.8-13.2-13.8c-2.8-9.5,5.2-18.7,15-17.5
				c18.6,2.3,56.5,1.4,73.9-38.6C708.1,206.1,617.8,184.7,617.8,184.7z"/>
			<path class="st5" d="M559,203.2c-0.2,0-0.4-0.1-0.5-0.2c-0.2-0.3-0.2-0.7,0.1-0.9c7.6-5.9,16.5-9.8,26.5-11.7
				c12.6-2.3,26.9-1.4,42.7,2.8c0.3,0.1,0.5,0.4,0.5,0.8c-0.1,0.3-0.4,0.5-0.8,0.4c-15.5-4.1-29.7-5.1-42.1-2.8
				c-9.8,1.8-18.6,5.7-26,11.4C559.3,203.2,559.2,203.2,559,203.2z"/>
			<path class="st5" d="M542.5,224c-0.1,0-0.2,0-0.2,0c-0.3-0.1-0.5-0.5-0.4-0.8c0-0.1,1.3-3.5,4.5-8.1c0.2-0.3,0.6-0.4,0.9-0.2
				c0.3,0.2,0.4,0.6,0.2,0.9c-3,4.5-4.3,7.8-4.3,7.8C543,223.9,542.8,224,542.5,224z"/>
		</g>
		<g>
			<path class="st44" d="M428.1,201.9c9.1-2.9,24.1-9.4,31.2-22.9c1.6-2.9-0.1-6.6-3.4-7.4c-16-4-59.1-19.1-55.1-64.4
				C405.7,51.7,468,48,507.7,59.1s59.9,38.3,50.7,80.1c-8.7,39.4-84.4,68.9-130,65.7C426.8,204.7,426.5,202.4,428.1,201.9z"/>
			<path class="st5" d="M483,172.9c-1.5,0-2.4-0.1-2.4-0.1c-0.4,0-0.6-0.3-0.6-0.7c0-0.4,0.3-0.6,0.7-0.6c0,0,3.9,0.2,9.6-0.3
				c0.4,0,0.6,0.2,0.7,0.6s-0.2,0.6-0.6,0.7C487.3,172.9,484.7,172.9,483,172.9z"/>
			<path class="st5" d="M508.8,169.2c-0.3,0-0.5-0.2-0.6-0.4c-0.1-0.3,0.1-0.7,0.4-0.8c7.8-2.4,14.4-5.8,19.8-10.2
				c6.6-5.4,11.4-12.3,14-20.5c6.3-19.2,2.7-33-1.5-41.2c-4.5-8.8-10.5-13.1-10.5-13.2c-0.3-0.2-0.3-0.6-0.2-0.9
				c0.2-0.3,0.6-0.3,0.9-0.2c0.3,0.2,6.3,4.5,10.9,13.6c4.3,8.4,8,22.5,1.6,42.1c-2.8,8.4-7.6,15.5-14.5,21.1
				c-5.5,4.5-12.3,8-20.3,10.4C508.9,169.1,508.8,169.2,508.8,169.2z"/>
		</g>
		<path class="st5" d="M525.3,104.3c-0.1,0-0.3,0-0.4-0.1c-6.5-1.6-14.6-2.9-23.8-4.1c-1-0.1-1.6-1-1.5-1.9c0.1-0.9,1-1.6,2-1.5
			c9.4,1.2,17.5,2.6,24.2,4.2c0.9,0.2,1.5,1.2,1.3,2.1C526.8,103.8,526.1,104.3,525.3,104.3z"/>
		<path class="st5" d="M491.8,99.1c-0.1,0-0.1,0-0.2,0c-27.5-2.8-55.2-3.1-55.5-3.1c-1,0-1.7-0.8-1.7-1.8c0-1,0.8-1.7,1.7-1.7
			c0,0,0,0,0,0c0.3,0,28.1,0.3,55.8,3.1c1,0.1,1.6,0.9,1.5,1.9C493.4,98.4,492.7,99.1,491.8,99.1z"/>
		<path class="st5" d="M524.4,121.8c-0.1,0-0.3,0-0.4-0.1c-12.1-2.9-28.7-5.1-49.4-6.6c-1-0.1-1.7-0.9-1.6-1.9s0.9-1.7,1.9-1.6
			c20.9,1.5,37.7,3.8,50,6.7c0.9,0.2,1.5,1.2,1.3,2.1C525.9,121.2,525.2,121.8,524.4,121.8z"/>
		<path class="st5" d="M465.4,114.5c0,0-0.1,0-0.1,0c-16.9-1-30-1.1-30.1-1.1c-1,0-1.7-0.8-1.7-1.8c0-1,0.8-1.7,1.7-1.7c0,0,0,0,0,0
			c0.1,0,13.3,0.1,30.3,1.1c1,0.1,1.7,0.9,1.6,1.8C467,113.8,466.3,114.5,465.4,114.5z"/>
		<path class="st5" d="M522.4,140.9c-0.1,0-0.3,0-0.4-0.1c-5.9-1.4-13.1-2.7-21.3-3.8c-1-0.1-1.6-1-1.5-2c0.1-0.9,1-1.6,2-1.5
			c8.3,1.1,15.6,2.4,21.6,3.9c0.9,0.2,1.5,1.2,1.3,2.1C523.9,140.3,523.2,140.9,522.4,140.9z"/>
		<path class="st5" d="M492.1,136c-0.1,0-0.1,0-0.2,0c-28.5-3.1-58.4-3.4-58.7-3.4c-1,0-1.7-0.8-1.7-1.8c0-1,0.8-1.7,1.8-1.7
			c0.3,0,30.3,0.3,59,3.4c1,0.1,1.6,1,1.5,1.9C493.7,135.3,492.9,136,492.1,136z"/>
	</g>
</g>
<path class="st72" d="M179.9,124.3c1.4,0,2.5-1.1,2.5-2.4s-1.1-2.4-2.5-2.4c-1.3,0-2.4,1.1-2.4,2.4
	C177.5,123.2,178.6,124.3,179.9,124.3L179.9,124.3z M174,139.5c0-3.7-3-6.6-6.6-6.6c-3.6,0-6.6,3-6.6,6.6s3,6.6,6.6,6.6
	C171,146.1,174,143.1,174,139.5L174,139.5z M167.3,133c0.9,0,1.7,0.2,2.5,0.5c0.8,0.3,1.5,0.8,2.1,1.4c0.6,0.6,1.1,1.3,1.4,2.1
	c0.3,0.8,0.5,1.6,0.5,2.5c0,0.9-0.2,1.7-0.5,2.5c-0.3,0.8-0.8,1.5-1.4,2.1c-0.6,0.6-1.3,1.1-2.1,1.4c-0.8,0.3-1.6,0.5-2.5,0.5
	c-0.9,0-1.7-0.2-2.5-0.5c-0.8-0.3-1.5-0.8-2.1-1.4c-0.6-0.6-1.1-1.3-1.4-2.1c-0.3-0.8-0.5-1.6-0.5-2.5c0-0.9,0.2-1.7,0.5-2.5
	c0.3-0.8,0.8-1.5,1.4-2.1c0.6-0.6,1.3-1.1,2.1-1.4C165.6,133.2,166.4,133,167.3,133L167.3,133z M171,135.9c-0.5-0.5-1.1-0.9-1.7-1.1
	c-0.6-0.2-1.3-0.4-2-0.4s-1.4,0.1-1.9,0.4c-0.6,0.3-1.2,0.6-1.7,1.1c-0.5,0.5-0.9,1-1.1,1.6c-0.3,0.6-0.4,1.3-0.4,2s0.1,1.4,0.4,2
	c0.2,0.6,0.6,1.2,1.1,1.7c0.9,0.9,2.2,1.5,3.6,1.5c0.7,0,1.4-0.1,2-0.4c0.6-0.3,1.2-0.6,1.7-1.1c0.5-0.5,0.8-1.1,1.1-1.7
	c0.2-0.6,0.4-1.3,0.4-2s-0.1-1.4-0.4-2C171.8,136.9,171.4,136.3,171,135.9L171,135.9z M186.4,146.1c3.7,0,6.6-3,6.6-6.6
	s-3-6.6-6.6-6.6s-6.6,3-6.6,6.6C179.8,143.1,182.8,146.1,186.4,146.1L186.4,146.1z M186.4,133c0.9,0,1.7,0.2,2.5,0.5
	c0.8,0.3,1.5,0.8,2.1,1.4c0.6,0.6,1.1,1.3,1.4,2.1c0.3,0.8,0.5,1.6,0.5,2.5c0,0.9-0.2,1.7-0.5,2.5c-0.3,0.8-0.8,1.5-1.4,2.1
	c-0.6,0.6-1.3,1.1-2.1,1.4c-0.8,0.3-1.6,0.5-2.5,0.5c-0.9,0-1.7-0.2-2.5-0.5c-0.8-0.3-1.5-0.8-2.1-1.4c-0.6-0.6-1.1-1.3-1.4-2.1
	c-0.3-0.8-0.5-1.6-0.5-2.5c0-0.9,0.2-1.7,0.5-2.5c0.3-0.8,0.8-1.5,1.4-2.1c0.6-0.6,1.3-1.1,2.1-1.4C184.7,133.2,185.6,133,186.4,133
	L186.4,133z M190.1,135.9c-0.5-0.5-1-0.9-1.6-1.1c-0.6-0.2-1.3-0.4-2-0.4s-1.4,0.1-2,0.4c-0.6,0.3-1.2,0.6-1.7,1.1
	c-0.5,0.5-0.8,1-1.1,1.6c-0.2,0.6-0.4,1.3-0.4,2s0.1,1.4,0.4,2c0.3,0.6,0.6,1.2,1.1,1.7c0.9,0.9,2.2,1.5,3.6,1.5
	c0.7,0,1.4-0.1,2-0.4c0.6-0.3,1.2-0.6,1.6-1.1c0.5-0.5,0.9-1.1,1.1-1.7c0.2-0.6,0.4-1.3,0.4-2s-0.1-1.4-0.4-2
	C190.9,136.9,190.5,136.3,190.1,135.9L190.1,135.9z M179.1,129.6c0.3,0.5,0.6,0.6,1,0.6h4.7c1.5,0,1.5-1.9,0-1.9l-4.1,0l-2.7-4.2
	c0,0-0.6-0.9-1.6-0.9c0,0-0.9-0.1-1.5,0.6l-5.2,5.2c-0.3,0.4-0.5,0.8-0.5,1.4c0,0.8,0.4,1.4,1.1,1.8l5.2,2.9v0.6
	c0,0.8,0.6,1.4,1.4,1.4c0.8,0,1.4-0.6,1.4-1.4v-1.9c0,0,0.2-1.1-1.1-1.7l-3-1.6l3.3-3.2L179.1,129.6z"/>
<g>
	<path class="st5" d="M172.1,226.4l-4.2,0.7c-0.4,0.1-0.7-0.2-0.8-0.6c-0.1-0.4,0.2-0.7,0.6-0.8l4.2-0.7c1.2-0.2,2-1.3,1.8-2.5
		l-4.7-29.7c-0.2-1.2-1.3-2-2.5-1.8l-42.7,6.8c-1.2,0.2-2,1.3-1.8,2.5l4.7,29.7c0.2,1.2,1.3,2,2.5,1.8l4.2-0.7
		c0.4-0.1,0.7,0.2,0.8,0.6c0.1,0.4-0.2,0.7-0.6,0.8l-4.2,0.7c-1.9,0.3-3.7-1-4-2.9l-4.7-29.7c-0.3-1.9,1-3.7,2.9-4l42.7-6.8
		c1.9-0.3,3.7,1,4,2.9l4.7,29.7C175.3,224.3,174,226.1,172.1,226.4z"/>
	<path class="st5" d="M168.6,223.3l-1.2,0.2c-0.4,0.1-0.7-0.2-0.8-0.6c-0.1-0.4,0.2-0.7,0.6-0.8l1.2-0.2c0.4-0.1,0.6-0.4,0.6-0.9
		l-4-25.5c-0.1-0.4-0.4-0.7-0.8-0.7l-36.7,5.8c-0.4,0.1-0.6,0.4-0.6,0.9l4,25.5c0.1,0.4,0.4,0.7,0.8,0.7l1.2-0.2
		c0.4-0.1,0.7,0.2,0.8,0.6c0.1,0.4-0.2,0.7-0.6,0.8l-1.2,0.2c-1.1,0.2-2.1-0.6-2.3-1.8l-4-25.5c-0.2-1.1,0.6-2.2,1.7-2.4l36.7-5.8
		c1.1-0.2,2.1,0.6,2.3,1.8l4,25.5C170.4,222.1,169.6,223.1,168.6,223.3z"/>
	<path class="st5" d="M126.8,219.5c-0.4,0.1-0.7-0.2-0.8-0.6l-1.3-8c-0.1-0.4,0.2-0.7,0.6-0.8c0.4-0.1,0.7,0.2,0.8,0.6l1.3,8
		C127.4,219.1,127.1,219.5,126.8,219.5z"/>
	<path class="st5" d="M134.8,225.4c-0.4,0.1-0.7-0.2-0.8-0.6l-0.5-3.4c-0.6-3.8,2-7.3,5.7-7.9c1.5-0.2,3.1,0,4.4,0.8
		c0.3,0.2,0.4,0.6,0.3,0.9c-0.2,0.3-0.6,0.4-0.9,0.3c-1.1-0.6-2.3-0.8-3.6-0.6c-3,0.5-5.1,3.3-4.6,6.4l0.5,3.4
		C135.4,225.1,135.1,225.4,134.8,225.4z"/>
	<path class="st5" d="M139,212.7c-2,0.3-3.8-1-4.1-3s1-3.8,3-4.1s3.8,1,4.1,3C142.4,210.5,141,212.4,139,212.7z M138.1,206.9
		c-1.3,0.2-2.1,1.4-1.9,2.6c0.2,1.3,1.4,2.1,2.6,1.9s2.1-1.4,1.9-2.6C140.5,207.5,139.4,206.7,138.1,206.9z"/>
	<path class="st5" d="M137.4,221.6c-0.4,0.1-0.7-0.2-0.8-0.6l-0.2-1.1c-0.1-0.4,0.2-0.7,0.6-0.8s0.7,0.2,0.8,0.6l0.2,1.1
		C138.1,221.2,137.8,221.6,137.4,221.6z"/>
	<path class="st5" d="M164.6,220.7c-0.4,0.1-0.7-0.2-0.8-0.6l-0.5-3.4c-0.5-3-3.3-5.1-6.4-4.6c-1.3,0.2-2.4,0.8-3.2,1.7
		c-0.3,0.3-0.7,0.3-0.9,0c-0.3-0.3-0.3-0.7,0-0.9c1.1-1.1,2.4-1.9,4-2.1c3.8-0.6,7.3,2,7.9,5.7l0.5,3.4
		C165.2,220.3,164.9,220.7,164.6,220.7z"/>
	<path class="st5" d="M156.6,209.9c-2,0.3-3.8-1-4.1-3s1-3.8,3-4.1s3.8,1,4.1,3S158.6,209.6,156.6,209.9z M155.6,204.1
		c-1.3,0.2-2.1,1.4-1.9,2.6c0.2,1.3,1.4,2.1,2.6,1.9c1.3-0.2,2.1-1.4,1.9-2.6C158.1,204.8,156.9,203.9,155.6,204.1z"/>
	<path class="st5" d="M160.8,217.9c-0.4,0.1-0.7-0.2-0.8-0.6l-0.2-1.1c-0.1-0.4,0.2-0.7,0.6-0.8s0.7,0.2,0.8,0.6l0.2,1.1
		C161.4,217.5,161.2,217.8,160.8,217.9z"/>
	<path class="st5" d="M143.3,212.6c-0.1,0-0.3,0-0.5-0.1c-0.3-0.2-0.4-0.6-0.2-0.9c1-1.6,2.7-2.7,4.7-3c1.8-0.3,3.7,0.2,5.3,1.4
		c0.3,0.2,0.3,0.6,0.1,0.9s-0.6,0.3-0.9,0.1c-1.3-1-2.8-1.4-4.3-1.2c-1.6,0.3-3,1.1-3.8,2.4C143.6,212.4,143.5,212.5,143.3,212.6z"
		/>
	<path class="st5" d="M147.2,207.7c-2,0.3-3.8-1-4.1-3s1-3.8,3-4.1s3.8,1,4.1,3C150.6,205.5,149.2,207.4,147.2,207.7z M146.3,201.8
		c-1.3,0.2-2.1,1.4-1.9,2.6c0.2,1.3,1.4,2.1,2.6,1.9s2.1-1.4,1.9-2.6C148.7,202.5,147.6,201.6,146.3,201.8z"/>
	<path class="st5" d="M153,244.1c-7.9,1.3-15.3-4.1-16.6-12s4.1-15.3,12-16.6s15.3,4.1,16.6,12C166.3,235.5,160.9,242.9,153,244.1z
		 M148.7,216.9c-7.2,1.1-12.1,7.9-10.9,15.1c1.1,7.2,7.9,12.1,15.1,10.9c7.2-1.1,12.1-7.9,10.9-15.1
		C162.6,220.6,155.9,215.7,148.7,216.9z"/>
	<path class="st5" d="M153,244.1c-4.5,0.7-9-5-10.2-13c-1.3-8,1.2-14.9,5.7-15.6c4.5-0.7,9,5,10.2,13
		C160,236.6,157.5,243.4,153,244.1z M148.7,216.9c-3.6,0.6-5.7,7-4.6,14.1c1.1,7,5.1,12.5,8.7,11.9c3.6-0.6,5.7-7,4.6-14.1
		C156.3,221.7,152.3,216.3,148.7,216.9z"/>
	<path class="st5" d="M152,237.8c-8,1.3-14.9-1.2-15.6-5.7c-0.7-4.5,5-9,13-10.2c8-1.3,14.9,1.2,15.6,5.7
		C165.7,232,160,236.5,152,237.8z M149.7,223.2c-7,1.1-12.5,5.1-11.9,8.7c0.6,3.6,7,5.7,14.1,4.6c7-1.1,12.5-5.1,11.9-8.7
		S156.7,222.1,149.7,223.2z"/>
	<path class="st5" d="M153,244.1c-0.4,0.1-0.7-0.2-0.8-0.6l-4.3-27.3c-0.1-0.4,0.2-0.7,0.6-0.8c0.4-0.1,0.7,0.2,0.8,0.6l4.3,27.3
		C153.6,243.7,153.4,244.1,153,244.1z"/>
	<path class="st5" d="M164.5,228.3l-27.3,4.3c-0.4,0.1-0.7-0.2-0.8-0.6c-0.1-0.4,0.2-0.7,0.6-0.8l27.3-4.3c0.4-0.1,0.7,0.2,0.8,0.6
		C165.1,227.9,164.9,228.3,164.5,228.3z"/>
	<path class="st5" d="M169.6,241.5l-33,5.2c-0.4,0.1-0.7-0.2-0.8-0.6s0.2-0.7,0.6-0.8l33-5.2c0.4-0.1,0.7,0.2,0.8,0.6
		C170.2,241.1,169.9,241.4,169.6,241.5z"/>
</g>
<g>
	<path class="st5" d="M716.2,157.6c-0.1,0-0.2,0-0.2,0c-0.2-0.1-0.4-0.3-0.4-0.5l-0.9-6.3c-0.2-1.3,0.7-2.5,2-2.7l6.3-0.9
		c0.2,0,0.5,0.1,0.6,0.3s0.1,0.4,0,0.6l-7,9.2C716.5,157.5,716.3,157.6,716.2,157.6z M716.8,149.3c-0.7,0.1-1.1,0.7-1,1.4l0.7,4.9
		l5.3-7L716.8,149.3z"/>
	<path class="st5" d="M720.8,131.3l-40.6,5.6c-0.3,0-0.6-0.2-0.7-0.5s0.2-0.6,0.5-0.6l40.6-5.6c0.3,0,0.6,0.2,0.7,0.5
		S721.1,131.2,720.8,131.3z"/>
	<path class="st5" d="M721.2,134l-40.6,5.6c-0.3,0-0.6-0.2-0.7-0.5c0-0.3,0.2-0.6,0.5-0.6l40.6-5.6c0.3,0,0.6,0.2,0.7,0.5
		C721.7,133.7,721.5,134,721.2,134z"/>
	<path class="st5" d="M700.1,130.8c-1.1,0.1-2.1-0.6-2.3-1.7l-0.5-3.9c-0.2-1.1,0.6-2.1,1.7-2.3c1.1-0.2,2.1,0.6,2.3,1.7l0.5,3.9
		C702,129.6,701.2,130.6,700.1,130.8z M699.1,123.9c-0.5,0.1-0.8,0.5-0.8,1l0.5,4c0.1,0.5,0.5,0.8,1,0.8s0.8-0.5,0.8-1l-0.5-3.9
		C700,124.2,699.6,123.9,699.1,123.9z"/>
	<path class="st5" d="M706.8,129.9c-1.1,0.1-2.1-0.6-2.3-1.7l-0.5-3.9c-0.2-1.1,0.6-2.1,1.7-2.3c1.1-0.2,2.1,0.6,2.3,1.7l0.5,3.9
		C708.7,128.7,708,129.7,706.8,129.9z M705.9,123c-0.5,0.1-0.8,0.5-0.8,1l0.5,3.9c0.1,0.5,0.5,0.8,1,0.8s0.8-0.5,0.8-1l-0.5-3.9
		C706.8,123.3,706.4,122.9,705.9,123z"/>
	<path class="st5" d="M693.3,131.7c-1.1,0.1-2.1-0.6-2.3-1.7l-0.5-3.9c-0.2-1.1,0.6-2.1,1.7-2.3s2.1,0.6,2.3,1.7l0.5,3.9
		C695.2,130.5,694.4,131.6,693.3,131.7z M692.3,124.9c-0.5,0.1-0.8,0.5-0.8,1l0.5,4c0.1,0.5,0.5,0.8,1,0.8s0.8-0.5,0.8-1l-0.5-3.9
		C693.3,125.2,692.8,124.8,692.3,124.9z"/>
	<path class="st5" d="M716.2,157.6l-30.1,4.2c-1.6,0.2-3.1-0.9-3.4-2.5l-3.6-26.1c-0.2-1.6,0.9-3.1,2.5-3.4l9.7-1.3
		c0.3,0,0.6,0.2,0.7,0.5l0.1,0.9c0.1,0.5,0.5,0.8,1,0.8s0.8-0.5,0.8-1l-0.1-0.9c0-0.3,0.2-0.6,0.5-0.6l3.9-0.5
		c0.3,0,0.6,0.2,0.7,0.5l0.1,0.9c0.1,0.5,0.5,0.8,1,0.8s0.8-0.5,0.8-1l-0.1-0.9c0-0.3,0.2-0.6,0.5-0.7l3.9-0.5
		c0.3,0,0.6,0.2,0.7,0.5l0.1,0.9c0.1,0.5,0.5,0.8,1,0.7s0.8-0.5,0.8-1l-0.1-0.9c0-0.3,0.2-0.6,0.5-0.7l9.7-1.3
		c1.6-0.2,3.1,0.9,3.4,2.5l2.8,20.3c0,0.1,0,0.3-0.1,0.4l-7,9.2C716.5,157.5,716.3,157.6,716.2,157.6z M681.8,130.9
		c-1,0.1-1.7,1.1-1.6,2.1l3.6,26.1c0.1,1,1.1,1.7,2.1,1.6l29.8-4.1l6.7-8.8l-2.8-20.1c-0.1-1-1.1-1.7-2.1-1.6l-9.1,1.3l0,0.3
		c0.2,1.1-0.6,2.1-1.7,2.3c-1.1,0.1-2.1-0.6-2.3-1.7l0-0.3l-2.7,0.4l0,0.3c0.2,1.1-0.6,2.1-1.7,2.3c-1.1,0.1-2.1-0.6-2.3-1.7l0-0.3
		l-2.7,0.4l0,0.3c0.2,1.1-0.6,2.1-1.7,2.3s-2.1-0.6-2.3-1.7l0-0.3L681.8,130.9z"/>
	<path class="st5" d="M690.3,147.9l-3.8,0.5c-1,0.1-1.9-0.6-2-1.5l-0.5-3.8c-0.1-1,0.5-1.9,1.5-2l3.8-0.5c1-0.1,1.9,0.6,2,1.5
		l0.5,3.8C692,146.9,691.3,147.8,690.3,147.9z M685.7,142.3c-0.3,0.1-0.6,0.4-0.5,0.7l0.5,3.8c0,0.3,0.4,0.6,0.7,0.5l3.8-0.5
		c0.3-0.1,0.6-0.4,0.5-0.7l-0.5-3.8c0-0.3-0.4-0.6-0.7-0.5L685.7,142.3z"/>
	<path class="st5" d="M699.5,146.6l-3.8,0.5c-1,0.1-1.9-0.6-2-1.5l-0.5-3.8c-0.1-1,0.5-1.9,1.5-2l3.8-0.5c1-0.1,1.9,0.6,2,1.5
		l0.5,3.8C701.2,145.6,700.5,146.5,699.5,146.6z M694.9,141c-0.3,0.1-0.6,0.4-0.5,0.7l0.5,3.8c0,0.3,0.4,0.6,0.7,0.5l3.8-0.5
		c0.3-0.1,0.6-0.4,0.5-0.7l-0.5-3.8c0-0.3-0.4-0.6-0.7-0.5L694.9,141z"/>
	<path class="st5" d="M708.7,145.4l-3.8,0.5c-1,0.1-1.9-0.6-2-1.5l-0.5-3.8c-0.1-1,0.5-1.9,1.5-2l3.8-0.5c1-0.1,1.9,0.6,2,1.5
		l0.5,3.8C710.3,144.3,709.7,145.2,708.7,145.4z M704.1,139.7c-0.3,0.1-0.6,0.4-0.5,0.7l0.5,3.8c0,0.3,0.4,0.6,0.7,0.5l3.8-0.5
		c0.3-0.1,0.6-0.4,0.5-0.7l-0.5-3.8c0-0.3-0.4-0.6-0.7-0.5L704.1,139.7z"/>
	<path class="st5" d="M717.9,144.1l-3.8,0.5c-1,0.1-1.9-0.6-2-1.5l-0.5-3.8c-0.1-1,0.5-1.9,1.5-2l3.8-0.5c1-0.1,1.9,0.6,2,1.5
		l0.5,3.8C719.6,143.1,718.9,144,717.9,144.1z M713.3,138.4c-0.3,0.1-0.6,0.4-0.5,0.7l0.5,3.8c0,0.3,0.4,0.6,0.7,0.5l3.8-0.5
		c0.3-0.1,0.6-0.4,0.5-0.7l-0.5-3.8c0-0.3-0.4-0.6-0.7-0.5L713.3,138.4z"/>
	<path class="st5" d="M691.5,156.9l-3.8,0.5c-1,0.1-1.9-0.6-2-1.5l-0.5-3.8c-0.1-1,0.5-1.9,1.5-2l3.8-0.5c1-0.1,1.9,0.6,2,1.5
		l0.5,3.8C693.2,155.9,692.5,156.8,691.5,156.9z M686.9,151.2c-0.3,0.1-0.6,0.4-0.5,0.7l0.5,3.8c0,0.3,0.4,0.6,0.7,0.5l3.8-0.5
		c0.3-0.1,0.6-0.4,0.5-0.7l-0.5-3.8c0-0.3-0.4-0.6-0.7-0.5L686.9,151.2z"/>
	<path class="st5" d="M700.7,155.6l-3.8,0.5c-1,0.1-1.9-0.6-2-1.5l-0.5-3.8c-0.1-1,0.5-1.9,1.5-2l3.8-0.5c1-0.1,1.9,0.6,2,1.5
		l0.5,3.8C702.4,154.6,701.7,155.5,700.7,155.6z M696.1,150c-0.3,0.1-0.6,0.4-0.5,0.7l0.5,3.8c0,0.3,0.4,0.6,0.7,0.5l3.8-0.5
		c0.3-0.1,0.6-0.4,0.5-0.7l-0.5-3.8c0-0.3-0.4-0.6-0.7-0.5L696.1,150z"/>
	<path class="st5" d="M709.9,154.3l-3.8,0.5c-1,0.1-1.9-0.6-2-1.5l-0.5-3.8c-0.1-1,0.5-1.9,1.5-2l3.8-0.5c1-0.1,1.9,0.6,2,1.5
		l0.5,3.8C711.6,153.3,710.9,154.2,709.9,154.3z M705.3,148.7c-0.3,0.1-0.6,0.4-0.5,0.7l0.5,3.8c0,0.3,0.4,0.6,0.7,0.5l3.8-0.5
		c0.3-0.1,0.6-0.4,0.5-0.7l-0.5-3.8c0-0.3-0.4-0.6-0.7-0.5L705.3,148.7z"/>
</g>
<g>
	<g>
		<path class="st5" d="M596.1,245.9c-1.7-1.7-4.5-1.6-6.1,0.3c-1.4,1.7-1.1,4.2,0.5,5.7l4.5,4.5c0.9,0.9,0.9,2.3,0,3.2
			c-0.9,0.9-2.3,0.9-3.2,0l-4.4-4.4c-1.7-1.7-2.6-3.9-2.7-6.3l0-10.7c0-2.6-2.3-4.7-4.9-4.4c-2.3,0.2-4,2.4-4,4.7v11
			c0,2.5,0.9,5,2.5,6.9l10,11.9c0.2,0.2,0.4,0.3,0.7,0.3l18.3,0c0.5,0,0.9-0.4,0.9-0.9v-5.4c0-2.8-1.1-5.6-3.1-7.6L596.1,245.9z
			 M642.7,233.9c-2.7-0.3-4.9,1.8-4.9,4.4l0,10.7c-0.1,2.4-1.1,4.6-2.7,6.3l-4.4,4.4c-0.9,0.9-2.3,0.9-3.2,0c-0.9-0.9-0.9-2.3,0-3.2
			l4.5-4.5c1.5-1.5,1.8-4,0.5-5.7c-1.6-1.9-4.4-2-6.1-0.3l-8.9,8.9c-2,2-3.1,4.7-3.1,7.6v5.4c0,0.5,0.4,0.9,0.9,0.9l18.3,0
			c0.3,0,0.5-0.1,0.7-0.3l10-11.9c1.6-1.9,2.5-4.4,2.5-6.9v-11C646.7,236.2,645,234.1,642.7,233.9z"/>
		<path class="st5" d="M606.9,224.6h8.7c0.5,0,0.9-0.4,0.9-0.9c-0.6-8.7-3.5-13.9-5.2-13.9c-1.7,0-4.7,5.2-5.2,13.9
			C605.9,224.2,606.4,224.6,606.9,224.6z M594.5,224.5h6.1c0.5,0,0.9-0.4,0.9-0.8c0.2-4.1,0.9-8.1,2.1-11.4c0.3-0.8-0.6-1.5-1.3-1.1
			c-4.5,2.6-7.8,7-8.7,12.3C593.5,224,593.9,224.5,594.5,224.5z M620.9,223.6c0,0.5,0.4,0.8,0.9,0.8h6.1c0.6,0,1-0.5,0.9-1
			c-1-5.3-4.2-9.7-8.7-12.3c-0.7-0.4-1.5,0.3-1.3,1.1C620,215.5,620.7,219.5,620.9,223.6z M620.1,242.3c4.5-2.6,7.8-7,8.7-12.3
			c0.1-0.5-0.3-1-0.9-1h-6.1c-0.5,0-0.9,0.4-0.9,0.8c-0.2,4.1-0.9,8.1-2.1,11.4C618.6,242,619.4,242.7,620.1,242.3z M615.5,228.8
			h-8.7c-0.5,0-0.9,0.4-0.9,0.9c0.6,8.7,3.5,13.9,5.2,13.9c1.7,0,4.7-5.2,5.2-13.9C616.5,229.3,616.1,228.8,615.5,228.8z M633,273.6
			h-18.3c-0.5,0-0.9,0.4-0.9,0.9v3.6c0,0.5,0.4,0.9,0.9,0.9H633c0.5,0,0.9-0.4,0.9-0.9v-3.6C633.9,274,633.5,273.6,633,273.6z
			 M602.3,242.3c0.7,0.4,1.5-0.3,1.3-1.1c-1.1-3.3-1.8-7.3-2.1-11.4c0-0.5-0.4-0.8-0.9-0.8h-6.1c-0.6,0-1,0.5-0.9,1
			C594.6,235.3,597.8,239.7,602.3,242.3z M607.8,273.6h-18.3c-0.5,0-0.9,0.4-0.9,0.9v3.6c0,0.5,0.4,0.9,0.9,0.9h18.3
			c0.5,0,0.9-0.4,0.9-0.9v-3.6C608.7,274,608.3,273.6,607.8,273.6z"/>
	</g>
</g>
</svg>
